<mxfile host="app.diagrams.net" modified="2023-06-12T02:59:00.411Z" agent="Mozilla/5.0 (Macintosh; Intel Mac OS X 10_15_7) AppleWebKit/537.36 (KHTML, like Gecko) Chrome/113.0.0.0 Safari/537.36" etag="ZSKcOxrRhcizu60dA9pk" version="21.3.7" type="github">
  <diagram name="第 1 页" id="jZZSn7bTfoyUMW9jNUh2">
    <mxGraphModel dx="1793" dy="1180" grid="1" gridSize="10" guides="1" tooltips="1" connect="1" arrows="1" fold="1" page="0" pageScale="1" pageWidth="827" pageHeight="1169" math="0" shadow="0">
      <root>
        <mxCell id="0" />
        <mxCell id="1" parent="0" />
        <mxCell id="jz5FCo_KHYX5uSRo76Uy-74" value="" style="rounded=0;whiteSpace=wrap;html=1;movable=0;resizable=0;rotatable=0;deletable=0;editable=0;locked=1;connectable=0;" parent="1" vertex="1">
          <mxGeometry x="600" y="40" width="840" height="640" as="geometry" />
        </mxCell>
        <mxCell id="jz5FCo_KHYX5uSRo76Uy-73" value="" style="rounded=0;whiteSpace=wrap;html=1;" parent="1" vertex="1">
          <mxGeometry x="1440" y="40" width="420" height="640" as="geometry" />
        </mxCell>
        <mxCell id="jz5FCo_KHYX5uSRo76Uy-72" value="" style="rounded=0;whiteSpace=wrap;html=1;movable=0;resizable=0;rotatable=0;deletable=0;editable=0;locked=1;connectable=0;" parent="1" vertex="1">
          <mxGeometry x="600" y="40" width="350" height="320" as="geometry" />
        </mxCell>
        <mxCell id="jz5FCo_KHYX5uSRo76Uy-71" value="" style="rounded=0;whiteSpace=wrap;html=1;movable=0;resizable=0;rotatable=0;deletable=0;editable=0;locked=1;connectable=0;" parent="1" vertex="1">
          <mxGeometry x="90" y="40" width="510" height="640" as="geometry" />
        </mxCell>
        <mxCell id="jz5FCo_KHYX5uSRo76Uy-3" value="" style="edgeStyle=orthogonalEdgeStyle;rounded=0;orthogonalLoop=1;jettySize=auto;html=1;fontFamily=Comic Sans MS;" parent="1" source="jz5FCo_KHYX5uSRo76Uy-1" target="jz5FCo_KHYX5uSRo76Uy-2" edge="1">
          <mxGeometry relative="1" as="geometry" />
        </mxCell>
        <mxCell id="jz5FCo_KHYX5uSRo76Uy-1" value="Clock" style="rounded=1;whiteSpace=wrap;html=1;fillColor=#f8cecc;strokeColor=#b85450;fontFamily=Comic Sans MS;" parent="1" vertex="1">
          <mxGeometry x="150" y="90" width="120" height="60" as="geometry" />
        </mxCell>
        <mxCell id="jz5FCo_KHYX5uSRo76Uy-5" value="" style="edgeStyle=orthogonalEdgeStyle;rounded=0;orthogonalLoop=1;jettySize=auto;html=1;fontFamily=Comic Sans MS;" parent="1" source="jz5FCo_KHYX5uSRo76Uy-2" target="jz5FCo_KHYX5uSRo76Uy-4" edge="1">
          <mxGeometry relative="1" as="geometry" />
        </mxCell>
        <mxCell id="jz5FCo_KHYX5uSRo76Uy-2" value="获取当前pagConfig" style="whiteSpace=wrap;html=1;rounded=1;fontFamily=Comic Sans MS;" parent="1" vertex="1">
          <mxGeometry x="150" y="180" width="120" height="60" as="geometry" />
        </mxCell>
        <mxCell id="jz5FCo_KHYX5uSRo76Uy-7" value="" style="edgeStyle=orthogonalEdgeStyle;rounded=0;orthogonalLoop=1;jettySize=auto;html=1;fontFamily=Comic Sans MS;" parent="1" source="jz5FCo_KHYX5uSRo76Uy-4" target="jz5FCo_KHYX5uSRo76Uy-6" edge="1">
          <mxGeometry relative="1" as="geometry" />
        </mxCell>
        <mxCell id="jz5FCo_KHYX5uSRo76Uy-46" value="Y" style="edgeLabel;html=1;align=center;verticalAlign=middle;resizable=0;points=[];" parent="jz5FCo_KHYX5uSRo76Uy-7" vertex="1" connectable="0">
          <mxGeometry x="0.4591" y="-2" relative="1" as="geometry">
            <mxPoint as="offset" />
          </mxGeometry>
        </mxCell>
        <mxCell id="jz5FCo_KHYX5uSRo76Uy-11" value="N" style="edgeStyle=orthogonalEdgeStyle;rounded=0;orthogonalLoop=1;jettySize=auto;html=1;fontFamily=Comic Sans MS;" parent="1" source="jz5FCo_KHYX5uSRo76Uy-4" target="jz5FCo_KHYX5uSRo76Uy-10" edge="1">
          <mxGeometry relative="1" as="geometry" />
        </mxCell>
        <mxCell id="jz5FCo_KHYX5uSRo76Uy-4" value="pagConfig是否为空" style="rhombus;whiteSpace=wrap;html=1;rounded=1;fontFamily=Comic Sans MS;" parent="1" vertex="1">
          <mxGeometry x="125" y="270" width="170" height="80" as="geometry" />
        </mxCell>
        <mxCell id="jz5FCo_KHYX5uSRo76Uy-21" style="edgeStyle=orthogonalEdgeStyle;rounded=0;orthogonalLoop=1;jettySize=auto;html=1;exitX=1;exitY=0.5;exitDx=0;exitDy=0;fontFamily=Comic Sans MS;" parent="1" source="jz5FCo_KHYX5uSRo76Uy-6" target="jz5FCo_KHYX5uSRo76Uy-20" edge="1">
          <mxGeometry relative="1" as="geometry" />
        </mxCell>
        <mxCell id="jz5FCo_KHYX5uSRo76Uy-6" value="停止播放" style="whiteSpace=wrap;html=1;rounded=1;fontFamily=Comic Sans MS;" parent="1" vertex="1">
          <mxGeometry x="320" y="280" width="120" height="60" as="geometry" />
        </mxCell>
        <mxCell id="jz5FCo_KHYX5uSRo76Uy-13" value="" style="edgeStyle=orthogonalEdgeStyle;rounded=0;orthogonalLoop=1;jettySize=auto;html=1;fontFamily=Comic Sans MS;" parent="1" source="jz5FCo_KHYX5uSRo76Uy-10" target="jz5FCo_KHYX5uSRo76Uy-12" edge="1">
          <mxGeometry relative="1" as="geometry" />
        </mxCell>
        <mxCell id="jz5FCo_KHYX5uSRo76Uy-48" value="Y" style="edgeLabel;html=1;align=center;verticalAlign=middle;resizable=0;points=[];" parent="jz5FCo_KHYX5uSRo76Uy-13" vertex="1" connectable="0">
          <mxGeometry x="0.3378" y="-1" relative="1" as="geometry">
            <mxPoint as="offset" />
          </mxGeometry>
        </mxCell>
        <mxCell id="jz5FCo_KHYX5uSRo76Uy-15" value="" style="edgeStyle=orthogonalEdgeStyle;rounded=0;orthogonalLoop=1;jettySize=auto;html=1;fontFamily=Comic Sans MS;" parent="1" source="jz5FCo_KHYX5uSRo76Uy-10" target="jz5FCo_KHYX5uSRo76Uy-14" edge="1">
          <mxGeometry relative="1" as="geometry" />
        </mxCell>
        <mxCell id="jz5FCo_KHYX5uSRo76Uy-47" value="N" style="edgeLabel;html=1;align=center;verticalAlign=middle;resizable=0;points=[];" parent="jz5FCo_KHYX5uSRo76Uy-15" vertex="1" connectable="0">
          <mxGeometry x="-0.4375" y="-1" relative="1" as="geometry">
            <mxPoint y="-1" as="offset" />
          </mxGeometry>
        </mxCell>
        <mxCell id="jz5FCo_KHYX5uSRo76Uy-10" value="是否等于lastPagConfig" style="rhombus;whiteSpace=wrap;html=1;rounded=1;fontFamily=Comic Sans MS;" parent="1" vertex="1">
          <mxGeometry x="123.75" y="370" width="172.5" height="80" as="geometry" />
        </mxCell>
        <mxCell id="jz5FCo_KHYX5uSRo76Uy-49" style="edgeStyle=orthogonalEdgeStyle;rounded=0;orthogonalLoop=1;jettySize=auto;html=1;exitX=0.5;exitY=1;exitDx=0;exitDy=0;entryX=1;entryY=0.5;entryDx=0;entryDy=0;" parent="1" source="jz5FCo_KHYX5uSRo76Uy-12" target="jz5FCo_KHYX5uSRo76Uy-14" edge="1">
          <mxGeometry relative="1" as="geometry" />
        </mxCell>
        <mxCell id="jz5FCo_KHYX5uSRo76Uy-12" value="停止播放&lt;br&gt;state = INIT" style="whiteSpace=wrap;html=1;rounded=1;fontFamily=Comic Sans MS;fillColor=#dae8fc;strokeColor=#6c8ebf;" parent="1" vertex="1">
          <mxGeometry x="320" y="380" width="120" height="60" as="geometry" />
        </mxCell>
        <mxCell id="jz5FCo_KHYX5uSRo76Uy-17" value="" style="edgeStyle=orthogonalEdgeStyle;rounded=0;orthogonalLoop=1;jettySize=auto;html=1;fontFamily=Comic Sans MS;" parent="1" source="jz5FCo_KHYX5uSRo76Uy-14" target="jz5FCo_KHYX5uSRo76Uy-16" edge="1">
          <mxGeometry relative="1" as="geometry" />
        </mxCell>
        <mxCell id="jz5FCo_KHYX5uSRo76Uy-14" value="保存为lastPagConfig" style="whiteSpace=wrap;html=1;rounded=1;fontFamily=Comic Sans MS;" parent="1" vertex="1">
          <mxGeometry x="150" y="470" width="120" height="60" as="geometry" />
        </mxCell>
        <mxCell id="jz5FCo_KHYX5uSRo76Uy-22" style="edgeStyle=orthogonalEdgeStyle;rounded=0;orthogonalLoop=1;jettySize=auto;html=1;exitX=0.5;exitY=1;exitDx=0;exitDy=0;fontFamily=Comic Sans MS;" parent="1" source="jz5FCo_KHYX5uSRo76Uy-16" target="jz5FCo_KHYX5uSRo76Uy-20" edge="1">
          <mxGeometry relative="1" as="geometry" />
        </mxCell>
        <mxCell id="jz5FCo_KHYX5uSRo76Uy-16" value="开始播放" style="whiteSpace=wrap;html=1;rounded=1;fontFamily=Comic Sans MS;" parent="1" vertex="1">
          <mxGeometry x="150" y="554" width="120" height="60" as="geometry" />
        </mxCell>
        <mxCell id="jz5FCo_KHYX5uSRo76Uy-24" style="edgeStyle=orthogonalEdgeStyle;rounded=0;orthogonalLoop=1;jettySize=auto;html=1;exitX=0.5;exitY=0;exitDx=0;exitDy=0;entryX=0.5;entryY=0;entryDx=0;entryDy=0;fontFamily=Comic Sans MS;" parent="1" source="jz5FCo_KHYX5uSRo76Uy-20" target="jz5FCo_KHYX5uSRo76Uy-1" edge="1">
          <mxGeometry relative="1" as="geometry" />
        </mxCell>
        <mxCell id="jz5FCo_KHYX5uSRo76Uy-20" value="等待1s" style="rounded=1;whiteSpace=wrap;html=1;fillColor=#f8cecc;strokeColor=#b85450;fontFamily=Comic Sans MS;" parent="1" vertex="1">
          <mxGeometry x="440" y="90" width="120" height="60" as="geometry" />
        </mxCell>
        <mxCell id="jz5FCo_KHYX5uSRo76Uy-27" value="" style="edgeStyle=orthogonalEdgeStyle;rounded=0;orthogonalLoop=1;jettySize=auto;html=1;fontFamily=Comic Sans MS;" parent="1" source="jz5FCo_KHYX5uSRo76Uy-25" target="jz5FCo_KHYX5uSRo76Uy-26" edge="1">
          <mxGeometry relative="1" as="geometry" />
        </mxCell>
        <mxCell id="jz5FCo_KHYX5uSRo76Uy-25" value="停止播放" style="whiteSpace=wrap;html=1;rounded=1;fontFamily=Comic Sans MS;fillColor=#f8cecc;strokeColor=#b85450;" parent="1" vertex="1">
          <mxGeometry x="720" y="90" width="120" height="60" as="geometry" />
        </mxCell>
        <mxCell id="jz5FCo_KHYX5uSRo76Uy-26" value="&lt;font style=&quot;font-size: 15px;&quot;&gt;state = STOP&lt;br style=&quot;font-size: 15px;&quot;&gt;mPagFile = null&lt;br style=&quot;font-size: 15px;&quot;&gt;mPagView.stop&lt;br style=&quot;font-size: 15px;&quot;&gt;mPagView.flush&lt;/font&gt;" style="whiteSpace=wrap;html=1;rounded=1;fontFamily=Comic Sans MS;fontSize=15;fillColor=#dae8fc;strokeColor=#6c8ebf;" parent="1" vertex="1">
          <mxGeometry x="705" y="230" width="150" height="110" as="geometry" />
        </mxCell>
        <mxCell id="jz5FCo_KHYX5uSRo76Uy-30" value="" style="edgeStyle=orthogonalEdgeStyle;rounded=0;orthogonalLoop=1;jettySize=auto;html=1;" parent="1" source="jz5FCo_KHYX5uSRo76Uy-28" target="jz5FCo_KHYX5uSRo76Uy-29" edge="1">
          <mxGeometry relative="1" as="geometry" />
        </mxCell>
        <mxCell id="jz5FCo_KHYX5uSRo76Uy-28" value="开始播放" style="whiteSpace=wrap;html=1;rounded=1;fontFamily=Comic Sans MS;fillColor=#f8cecc;strokeColor=#b85450;" parent="1" vertex="1">
          <mxGeometry x="1010" y="90" width="120" height="60" as="geometry" />
        </mxCell>
        <mxCell id="jz5FCo_KHYX5uSRo76Uy-32" value="" style="edgeStyle=orthogonalEdgeStyle;rounded=0;orthogonalLoop=1;jettySize=auto;html=1;" parent="1" source="jz5FCo_KHYX5uSRo76Uy-29" target="jz5FCo_KHYX5uSRo76Uy-31" edge="1">
          <mxGeometry relative="1" as="geometry" />
        </mxCell>
        <mxCell id="jz5FCo_KHYX5uSRo76Uy-29" value="确定开关" style="whiteSpace=wrap;html=1;fontFamily=Comic Sans MS;rounded=1;" parent="1" vertex="1">
          <mxGeometry x="1010" y="185" width="120" height="60" as="geometry" />
        </mxCell>
        <mxCell id="jz5FCo_KHYX5uSRo76Uy-34" value="" style="edgeStyle=orthogonalEdgeStyle;rounded=0;orthogonalLoop=1;jettySize=auto;html=1;" parent="1" source="jz5FCo_KHYX5uSRo76Uy-31" target="jz5FCo_KHYX5uSRo76Uy-33" edge="1">
          <mxGeometry relative="1" as="geometry" />
        </mxCell>
        <mxCell id="jz5FCo_KHYX5uSRo76Uy-31" value="确保环境&lt;br&gt;&lt;br&gt;mPagView != null&lt;br&gt;state != RUNNING&lt;br&gt;curPagConfig != null" style="whiteSpace=wrap;html=1;fontFamily=Comic Sans MS;rounded=1;" parent="1" vertex="1">
          <mxGeometry x="980" y="270" width="180" height="90" as="geometry" />
        </mxCell>
        <mxCell id="jz5FCo_KHYX5uSRo76Uy-36" value="" style="edgeStyle=orthogonalEdgeStyle;rounded=0;orthogonalLoop=1;jettySize=auto;html=1;" parent="1" source="jz5FCo_KHYX5uSRo76Uy-33" target="jz5FCo_KHYX5uSRo76Uy-35" edge="1">
          <mxGeometry relative="1" as="geometry" />
        </mxCell>
        <mxCell id="jz5FCo_KHYX5uSRo76Uy-69" value="Y" style="edgeLabel;html=1;align=center;verticalAlign=middle;resizable=0;points=[];" parent="jz5FCo_KHYX5uSRo76Uy-36" vertex="1" connectable="0">
          <mxGeometry x="-0.0861" y="-1" relative="1" as="geometry">
            <mxPoint as="offset" />
          </mxGeometry>
        </mxCell>
        <mxCell id="jz5FCo_KHYX5uSRo76Uy-39" value="" style="edgeStyle=orthogonalEdgeStyle;rounded=0;orthogonalLoop=1;jettySize=auto;html=1;" parent="1" source="jz5FCo_KHYX5uSRo76Uy-33" target="jz5FCo_KHYX5uSRo76Uy-38" edge="1">
          <mxGeometry relative="1" as="geometry">
            <Array as="points">
              <mxPoint x="1180" y="433" />
              <mxPoint x="1180" y="50" />
              <mxPoint x="1285" y="50" />
            </Array>
          </mxGeometry>
        </mxCell>
        <mxCell id="jz5FCo_KHYX5uSRo76Uy-70" value="N" style="edgeLabel;html=1;align=center;verticalAlign=middle;resizable=0;points=[];" parent="jz5FCo_KHYX5uSRo76Uy-39" vertex="1" connectable="0">
          <mxGeometry x="-0.6689" y="-5" relative="1" as="geometry">
            <mxPoint y="1" as="offset" />
          </mxGeometry>
        </mxCell>
        <mxCell id="jz5FCo_KHYX5uSRo76Uy-33" value="mPAGFile == null" style="rhombus;whiteSpace=wrap;html=1;fontFamily=Comic Sans MS;rounded=1;" parent="1" vertex="1">
          <mxGeometry x="980" y="400" width="180" height="65" as="geometry" />
        </mxCell>
        <mxCell id="jz5FCo_KHYX5uSRo76Uy-53" style="edgeStyle=orthogonalEdgeStyle;rounded=0;orthogonalLoop=1;jettySize=auto;html=1;exitX=0.5;exitY=1;exitDx=0;exitDy=0;" parent="1" source="jz5FCo_KHYX5uSRo76Uy-35" target="jz5FCo_KHYX5uSRo76Uy-50" edge="1">
          <mxGeometry relative="1" as="geometry" />
        </mxCell>
        <mxCell id="jz5FCo_KHYX5uSRo76Uy-35" value="当前状态不是 downloading&lt;br&gt;&amp;amp;&amp;amp;&lt;br&gt;没有正在下载当前pag的情况下&lt;br&gt;&lt;br&gt;下载PAGFile" style="whiteSpace=wrap;html=1;fontFamily=Comic Sans MS;rounded=1;" parent="1" vertex="1">
          <mxGeometry x="670" y="383.75" width="220" height="97.5" as="geometry" />
        </mxCell>
        <mxCell id="jz5FCo_KHYX5uSRo76Uy-37" value="" style="shape=image;verticalLabelPosition=bottom;labelBackgroundColor=default;verticalAlign=top;aspect=fixed;imageAspect=0;image=data:image/png,iVBORw0KGgoAAAANSUhEUgAABcIAAAFYCAYAAABwPI/iAAAMPmlDQ1BJQ0MgUHJvZmlsZQAASImVVwdYU8kWnluSkEBoAQSkhN4EkRpASggt9N5EJSQBQokxEFTs6KKCaxcL2NBVEQUrzYIidhbF3hcLKsq6WLArb1JA133le+f75t7//nPmP2fOnVsGALXjHJEoD1UHIF9YKI4N9qcnp6TSSU8BDpSBNkCAKYdbIGJGR4cDaEPnv9u769AP2hV7qdY/+/+rafD4BVwAkGiIM3gF3HyIDwKAV3FF4kIAiFLebEqhSIphA1pimCDEC6U4S46rpDhDjvfKfOJjWRC3A6CkwuGIswBQvQR5ehE3C2qo9kPsKOQJhACo0SH2yc+fxIM4HWJr6COCWKrPyPhBJ+tvmhnDmhxO1jCWz0VmSgGCAlEeZ9r/WY7/bfl5kqEYlrCpZItDYqVzhnW7mTspTIpVIO4TZkRGQawJ8QcBT+YPMUrJloQkyP1RA24BC9YM6EDsyOMEhEFsAHGQMC8yXMFnZAqC2BDDFYJOFRSy4yHWhXghvyAwTuGzWTwpVhELbcgUs5gK/ixHLIsrjXVfkpvAVOi/zuazFfqYanF2fBLEFIjNiwSJkRCrQuxQkBsXpvAZW5zNihzyEUtipfmbQxzLFwb7y/WxokxxUKzCvyy/YGi+2OZsATtSgfcXZseHyOuDtXM5svzhXLBLfCEzYUiHX5AcPjQXHj8gUD537BlfmBCn0PkgKvSPlY/FKaK8aIU/bsrPC5byphC7FBTFKcbiiYVwQcr18UxRYXS8PE+8OIcTGi3PB18GwgELBAA6kMCWASaBHCDo7Gvsg1fyniDAAWKQBfjAXsEMjUiS9QjhMQ4Ugz8h4oOC4XH+sl4+KIL812FWfrQHmbLeItmIXPAE4nwQBvLgtUQ2SjgcLRE8hozgH9E5sHFhvnmwSfv/PT/EfmeYkAlXMJKhiHS1IU9iIDGAGEIMItrg+rgP7oWHw6MfbE44A/cYmsd3f8ITQhfhIeEaoZtwa6KgRPxTlhGgG+oHKWqR8WMtcEuo6Yr7495QHSrjOrg+sMddYBwm7gsju0KWpchbWhX6T9p/m8EPd0PhR3Yko+QRZD+y9c8jVW1VXYdVpLX+sT7yXDOG680a7vk5PuuH6vPgOexnT2whdgA7g53AzmFHsEZAx1qxJqwDOyrFw6vrsWx1DUWLleWTC3UE/4g3dGellSxwrHXsdfwi7yvkT5W+owFrkmiaWJCVXUhnwi8Cn84Wch1G0Z0cnZwBkH5f5K+vNzGy7wai0/Gdm/cHAN6tg4ODh79zoa0A7HOHj3/zd86aAT8dygCcbeZKxEVyDpceCPAtoQafND1gBMyANZyPE3ADXsAPBIJQEAXiQQqYALPPhutcDKaAGWAuKAXlYBlYDdaDTWAr2An2gP2gERwBJ8BpcAFcAtfAHbh6esAL0A/egc8IgpAQKkJD9BBjxAKxQ5wQBuKDBCLhSCySgqQjWYgQkSAzkHlIObICWY9sQWqQfUgzcgI5h3Qht5AHSC/yGvmEYqgKqoUaopboaJSBMtEwNB4dj2ahk9FidD66BF2LVqO70Qb0BHoBvYZ2oy/QAQxgypgOZoLZYwyMhUVhqVgmJsZmYWVYBVaN1WEt8D5fwbqxPuwjTsRpOB23hys4BE/AufhkfBa+GF+P78Qb8Hb8Cv4A78e/EagEA4IdwZPAJiQTsghTCKWECsJ2wiHCKfgs9RDeEYlEHaIV0R0+iynEHOJ04mLiBmI98Tixi/iIOEAikfRIdiRvUhSJQyoklZLWkXaTWkmXST2kD0rKSsZKTkpBSqlKQqUSpQqlXUrHlC4rPVX6TFYnW5A9yVFkHnkaeSl5G7mFfJHcQ/5M0aBYUbwp8ZQcylzKWkod5RTlLuWNsrKyqbKHcoyyQHmO8lrlvcpnlR8of1TRVLFVYamkqUhUlqjsUDmuckvlDZVKtaT6UVOphdQl1BrqSep96gdVmqqDKluVpzpbtVK1QfWy6ks1spqFGlNtglqxWoXaAbWLan3qZHVLdZY6R32WeqV6s/oN9QENmsYYjSiNfI3FGrs0zmk80yRpWmoGavI052tu1Typ+YiG0cxoLBqXNo+2jXaK1qNF1LLSYmvlaJVr7dHq1OrX1tR20U7UnqpdqX1Uu1sH07HUYevk6SzV2a9zXefTCMMRzBH8EYtG1I24POK97khdP12+bpluve413U96dL1AvVy95XqNevf0cX1b/Rj9Kfob9U/p943UGuk1kjuybOT+kbcNUANbg1iD6QZbDToMBgyNDIMNRYbrDE8a9hnpGPkZ5RitMjpm1GtMM/YxFhivMm41fk7XpjPpefS19HZ6v4mBSYiJxGSLSafJZ1Mr0wTTEtN603tmFDOGWabZKrM2s35zY/MI8xnmtea3LcgWDItsizUWZyzeW1pZJlkusGy0fGala8W2KraqtbprTbX2tZ5sXW191YZow7DJtdlgc8kWtXW1zbattL1oh9q52QnsNth1jSKM8hglHFU96oa9ij3Tvsi+1v6Bg45DuEOJQ6PDy9Hmo1NHLx99ZvQ3R1fHPMdtjnfGaI4JHVMypmXMaydbJ65TpdNVZ6pzkPNs5ybnVy52LnyXjS43XWmuEa4LXNtcv7q5u4nd6tx63c3d092r3G8wtBjRjMWMsx4ED3+P2R5HPD56unkWeu73/MvL3ivXa5fXs7FWY/ljt4195G3qzfHe4t3tQ/dJ99ns0+1r4svxrfZ96Gfmx/Pb7veUacPMYe5mvvR39Bf7H/J/z/JkzWQdD8ACggPKAjoDNQMTAtcH3g8yDcoKqg3qD3YNnh58PIQQEhayPOQG25DNZdew+0PdQ2eGtoephMWFrQ97GG4bLg5viUAjQiNWRtyNtIgURjZGgSh21Mqoe9FW0ZOjD8cQY6JjKmOexI6JnRF7Jo4WNzFuV9y7eP/4pfF3EqwTJAltiWqJaYk1ie+TApJWJHUnj06emXwhRT9FkNKUSkpNTN2eOjAucNzqcT1prmmladfHW42fOv7cBP0JeROOTlSbyJl4IJ2QnpS+K/0LJ4pTzRnIYGdUZfRzWdw13Bc8P94qXi/fm7+C/zTTO3NF5rMs76yVWb3ZvtkV2X0ClmC94FVOSM6mnPe5Ubk7cgfzkvLq85Xy0/ObhZrCXGH7JKNJUyd1iexEpaLuyZ6TV0/uF4eJtxcgBeMLmgq14I98h8Ra8ovkQZFPUWXRhymJUw5M1ZgqnNoxzXbaomlPi4OKf5uOT+dOb5thMmPujAczmTO3zEJmZcxqm202e/7snjnBc3bOpczNnft7iWPJipK385Lmtcw3nD9n/qNfgn+pLVUtFZfeWOC1YNNCfKFgYeci50XrFn0r45WdL3csryj/spi7+PyvY35d++vgkswlnUvdlm5cRlwmXHZ9ue/ynSs0VhSveLQyYmXDKvqqslVvV09cfa7CpWLTGsoayZruteFrm9aZr1u27sv67PXXKv0r66sMqhZVvd/A23B5o9/Guk2Gm8o3fdos2HxzS/CWhmrL6oqtxK1FW59sS9x25jfGbzXb9beXb/+6Q7ije2fszvYa95qaXQa7ltaitZLa3t1puy/tCdjTVGdft6Vep758L9gr2ft8X/q+6/vD9rcdYByoO2hxsOoQ7VBZA9IwraG/Mbuxuymlqas5tLmtxavl0GGHwzuOmBypPKp9dOkxyrH5xwZbi1sHjouO953IOvGobWLbnZPJJ6+2x7R3ngo7dfZ00OmTZ5hnWs96nz1yzvNc83nG+cYLbhcaOlw7Dv3u+vuhTrfOhovuF5sueVxq6Rrbdeyy7+UTVwKunL7KvnrhWuS1rusJ12/eSLvRfZN389mtvFuvbhfd/nxnzl3C3bJ76vcq7hvcr/7D5o/6brfuow8CHnQ8jHt45xH30YvHBY+/9Mx/Qn1S8dT4ac0zp2dHeoN6Lz0f97znhejF577SPzX+rHpp/fLgX35/dfQn9/e8Er8afL34jd6bHW9d3rYNRA/cf5f/7vP7sg96H3Z+ZHw88ynp09PPU76Qvqz9avO15VvYt7uD+YODIo6YI/sVwGBDMzMBeL0DAGoKADS4P6OMk+//ZIbI96wyBP4Tlu8RZeYGQB38f4/pg383NwDYuw1uv6C+WhoA0VQA4j0A6uw83Ib2arJ9pdSIcB+wOeZrRn4G+Dcm33P+kPfPZyBVdQE/n/8FyX58Uj3J03EAAABsZVhJZk1NACoAAAAIAAQBGgAFAAAAAQAAAD4BGwAFAAAAAQAAAEYBKAADAAAAAQACAACHaQAEAAAAAQAAAE4AAAAAAAAAkAAAAAEAAACQAAAAAQACoAIABAAAAAEAAAXCoAMABAAAAAEAAAFYAAAAAD39npgAAAAJcEhZcwAAFiUAABYlAUlSJPAAAEAASURBVHgB7L0HeFzXde+7iN577wRAgCRYwS6SoihSpCSrd7nGThw78c1Ne8lNvs/vvnvfdfLSnTi247jbsWzLlizJ6hKpQopFpESCHSRA9N57B/jW2oNz5szMmcFUEAT+i99wztln1985c2bw3+usvaysrOwGwUAABEAABEAABEAABEAABEAABEAABEAABEAABEAABEBgkRIIWqTjwrBAAARAAARAAARAAARAAARAAARAAARAAARAAARAAARAQBGAEI4LAQRAAARAAARAAARAAARAAARAAARAAARAAARAAARAYFETgBC+qE8vBgcCIAACIAACIAACIAACIAACIAACIAACIAACIAACIAAhHNcACIAACIAACIAACIAACIAACIAACIAACIAACIAACIDAoiYAIdzu9EbFxNqlYBcEQGCpEwiPiKS4+MSljgHjBwEQAAEQAAEQAAEQAAEQAAEQAAEQAIFblkDILdtzP3e8bN0m2rZ7H4WFhdF3vv41P9eO6kAABG5lAjl5y+mTX/gKNdRWU8VHJ+jcxycXxHCiY+No9513k/QvNi6RQkJD6a2Xf71g+rcgIKETIAACIAACIAACIAACIAACIAACIAACIMAEvBbCQ4OJ1meGUXxkEFU0T1D3yMwtCXTtxq20844DlJmdq/rf3tp8S47jVut0WEg4Lc9YSdFRsVTTcoX6hrpvtSGgv0uMQEhICBWuWKlect947cVfUk9Xx02jkJtfSE99/isUExNj0wcRw2EgAAIgAAIgAAIgAAIgAAIgAAIgAAIgAAK2BLwWwh8ui6Y9RdGqtv0rpumrb3TTtIda+DIunRIdxK9gCrEL0nK5Y9Lj+myHNvfetl176e4HnqCgIEvjk5OTVH318twFvciRnpBNMZHxDiVv3JihgZFe6hnqopmZaYfjzhJERA5aZun34GgfdfS1OMvqkJ4an0GpCVkUH53EjKepb7CbWnsbaHCkzyGvlpCZlEdR4baCm3bM/n1iaowaO2vsk232d6zeT6vyNqq0Nflb6JnD/859mbLJIzuR4dGUlZTvkK4ltPTU0+j4sLaL90VGICp0GRUlO79NXe+eopHJG05H7Wt5reLeni5qaqhVnteStmJlGT35uS/TD775DzQxPqZlm9f3A/c/rovgcu9qaayn7s42am9pmtd+oDEQAAEQAAEQAAEQAAEQAAEQAAEQAAEQuBUIOFeY5uh9ToLV6zAuPJhSWcxuG3RfyM1LDKZPbYgjYz3GJv/ilU4amXEucBnzerO9rnyrLoLPzMzQxYqP6P1Dr1JXR5s31c1ZZueaA5TGYrgzExG8tv0qHb90iIbHBpxlU+kJMcl0cPNjep623kZ68dhP9H1nG1ERsXQbC9DFWWUOWaamJ+lczUn6uOoDU0G+fMVOyk0tcihnltAz2EGN73/X7JCelhSXpm9HsdidyGPqGmjX07SNoqzVtKvsoLbr8P7KyWeoabzWIR0Ji4PAhqww+lS54wSSNrp/OdJDIoY7M1/La/WK5/f3vvF3tHbjFg5Fcg+lZ2ZTBr/uf/RT9PzPf6Blm9f37FzLBJHcv/7zX/+WOtvdnwyb146iMRAAARAAARAAARAAARAAARAAARAAARBYAATs/LDd79GRmhEaZU/MG6xVV7SMeSSCR7D8/qVtCU5FcPd74V1OWfhu3z2P6J7gJ44eVmJWoERwd3oZFBRMRZmr6fHbv6g8tV2VyU0rtDmcGp9FEmrElS1btowObHrERgQX8Vs8wsVCgkNp04rdtLX0DrUf6P+uNJylialxvn5uUH1HlakI7k4f+Ap0JxvyLFICvp59T8tfOHuafvjtf6Lurk5FVCbUtu++86bQDQ7m+FRs7W0tEMFvyhlAoyAAAiAAAiAAAiAAAiAAAiAAAiAAArcSAa89wj9qmmABvJOCWUofd+6QacqiJDWUEiItIk5tzwS9XjlMPaO2cVXGpjyVqEybMk3ctfcgJSQmqmMtTQ106LUXTPMFInF8cpRePG713g4NDqPk+HRaX7iDEjhUSURYJO1Zdy/99sTPnDafaRcqJJhF9KzkfKprv+a0TFnBZspIzFXH+zkUy9Hzr1NTVw1PBgRTac469hS/i0JDwmjd8q1U1XyBugfMYx+PT47Ryyed900amJ6e+4KobKig6uaLfP2EkjBxZtXNl6mtp9HmcGnuOlpbsNUmDTuLk0BFywTV9trGj9+WF0F3rbCEZZpr1L6WN6t/bHSEXuf44E9//g9JxOh99zxMlRfPUZ9dP83K+jNtfHyCwsPDSM1G+rNi1AUCIAACIAACIAACIAACIAACIAACIAACi5CA10K4sJhi7VpenlpqjEUEl3JvXRumS+2TnlbhU/6S1etUeQkp8Mrzz9DMtPshXXxqmAtPsQd272CXTTUS37umpZKe2PP7FM3hS7KSCyg5Lp3FaMdQIVJQE7TFkzqPw5Us41jh2akFLoVwEco1e/fsS9TW26R2JSSLeGdHhEfSttI7lTCenZLvVAiXmOZd/f4JHzPFgrm8XNnYxDDJy2h56cXGXWwvYgIS/3tk0vbzOThuu+9q+L6Wd1Z3VeVFOnv6OG3evpvCwsJUyJSj77zhLHtA0kdHhpUQHhHl3qRAQDqBSkEABEAABEAABEAABEAABEAABEAABEDgFiHgthC+Mi2UNueYh99oGZiid6q9WzBuaCJwnt9m5yA5NZ3SM7LUob7eHmpurDPLZpMm3tSZSTnUP9xLnSwCl+WXU2RYFFW3XqaK6hO0InsNrcxdzws7xigv65NX3jGNs21Tqd2OeEVXNlao8CRyKDnWXAiXhS4lprZYS3cdxUbGURLnzZz19lYHTP6TGNxiw+NDughuzFbXdk0J4ZKWEJNqPOSX7fz0Eua02rSubo4pfrbquOkxfyfKgqUFGSUki5emMEvhLhMRbT1NVNtWqUK1+LvNxVDfwdJItQ5AHz+58ea1EVrN94M1GeFUmBxG/WPT1NA3RW9fG6XhCfOZsftWRfFTIEHUOTxNb151fAIgPTaIvbyjFKqPmsapkhfLXeh2/doVJYRLPwtLVtO8C+Gjw+rJlshIC7eFzgv9AwEQAAEQAAEQAAEQAAEQAAEQAAEQAIGbScBtITwrLph25JsLLnUc3sSVEB4dFsQi2DJ9nClRVo9w2R43CYPSOjBNgVgrMyUtgz2oLX3p7jL3uNY7OruRkZjNsbXX0MBoH4cO2aZCiMihlPhMDu0RQuXFu/jdMqak2FQVb/vI+dfsq5lzf8iwSGZstPkCgdmp1vjgLV0NLFqnKCFcPMgjWJwfmxgxbSeEQ7CIjbIQbmbipf7isR9z38NoxEkes3LupiXFpSiGZvnj+1vnRQiXc3PvtqcpJiLOphviYS/ntYpDtbxT8VJAxPCYOPPzadOR2Z3JiQkaH7MVi30tb9aOJ2lrWfRenmQRvSNCltHeYqsXckZsCJWmhpOELPnmsT5q7nf02F6XGU7Z8aG8lsCUqRAeH2G9vzTzxNqtIIQ31FWra0XuJ3HxCZ7g9EteCdEiFhERQaHslS7XDQwEQAAEQAAEQAAEQAAEQAAEQAAEQAAEQMCcgNtC+DB7bouIZbS0mBAKsurbxkM22w+WRdHOAnMR/XObzQXCv3ilk0Mi+N9bPC7OKlh1tXsW4iMuMkEt7Nje10xr8jezZ3YMbSnZQ41d19k7u4E9xTcpkbU0Zz0dv/TWnGE/bCDxTlyUJW65pA8O99sfVvtZyXnqfWxilL3TW6mtu4lW5W5U4VFyUpZTdcsl03LuJGrhUtzJ62me8Ylx6hu2jfUs4w3isC7zYQnsEX/f9k+pcybtSXx04Scx2sVbPZY9xcWzX+zw2RfVuz//++O/+poKoeFOnefPnFKLtxrz+lreWJcv2yJY7y6Mona+F1ztHKcQvgGsz4ogmeyKCw+mpzfE0j+/37ckljAdGuinAX7FswgeGRXjC1avykZFW9ucnsfwTl51FoVAAARAAARAAARAAARAAARAAARAAARA4CYTcFsI/7BhnORltP9zMJmSDN7dxmPGbTe0cmP2gG6HRVjDu/T22MbqnqvhGY6P/d65V9irepgF1FDaWLRTeYS+V/EqDbM3t4i6IoyLd3h8dLLTGN9m7USzl7II2pp19Ddrm/q71J+ekKP22/ua1HtTV61+XGJ7+yKE6xUFYONy/cckL6N9ev9/d/DONh7353ZR1mpdBD917T06c+0DvfrTV9+n+3d8mlLiMthrvYyO8SSGM896vdAS3rjSPk7fPzWgrw/w8uUR+h97E9UCuOI1nhUfbOoVvhiRDfb1KiE8NDR0XoeXlpFNySlpqs3+/r55XedgXgeKxkAABEAABEAABEAABEAABEAABEAABEDATwTcFsJ9ae/d66N0tsUqom/gMAk7l1s8xJ+/MMCe5o6hFMan/e8Nbj8GWfjRE5OQISKCi3X1d6j3UV7IUURwsd6BTvUu/4WFWEKR6AmzGyKgZ6cU6MkhQaGUFJ9Gawu2cmiTSJXe0FlNfUO23tNyIIPjlIeHRqg8bb2N6l3aFk/rBBbeM5JyVVog/wsPjaRP7fsjl028cvIZjqfe4zLPfB9M5/A2YsNjg1RhF498fHJMhWa5a9MjKmxONi8ser31il+7+Parz6vwFe5U2tZsmeQw5vW1vLEuX7efvzCki+BS18D4DB2uHqZH11pCzmTGLh0h/MY8+L4XFJbQ/k88PHvallF4RCQlJiVTSEgITU1N0dHDr/l6SlEeBEAABEAABEAABEAABEAABEAABEAABBY9gXkRwls43re8NMvkeOOa1fVOUU23bcgV7dit9u6OdB8WEk73b/+006ENjvbTkfOvmx7P5tAnmrV01Wub1N7bpITwRF7kUjzLNWFez+Bk45N3/jf2yI51OFrTdoUOnTEPDyLxkCWMiCubr3AnrvpgfyyV47mLyaSBePbbW9eANUxOGovm/hbCTx17z75Jj/Z9Le9RYy4yj3E8/85hR37GyazYiPkJd+Oim4vqUGRUNOXmW9cGMA7ujZd+RadPvG9MwjYIgAAIgAAIgAAIgAAIgAAIgAAIgAAIgIAJgXkRwk3aRZIdgVFe5LKm9TKdqnyPxEPZzDKT8lTy+OQodfS16FlaexpJ4pKL5aYVUmVDhX7M1UZQUBAFzS7yacy3zEXcbvGiv9Z8wZjdYXt8yur973DwJiWI572YeM4f3PK4Qy+M4n0Ie+3DzAmMTzmK4JLTSbJ5JUj1iEBvTyfVXa/SF/kNj4ykpOQ0jjkfSvc89CRF8P7Rd97wqE5kBgEQAAEQAAEQAAEQAAEQAAEQAAEQAIGlRmBJC+GuBN9AXQgieL/98fN69SIs9w33csiVIT3NbCMkOITSErLUIamjJHudni0izBIuRRKyOKyHu0L42epjetxsEcQ3Ft2m1+lsY3pmht6teNnZ4QWfHs0e8MsjShd8P9HBW4PAMgr8CghtLU30o//4JxsgKWkZ9OU//SpJbPJtu/dBCLehgx0QAAEQAAEQAAEQAAEQAAEQAAEQAAEQcCSw5ITw0WFLjG9BkZic4kgkwCkSlqOl2xrWxN3mspILSPNUFq/mvRvuNy2akWhZTNP0oF3ipbqP9RQR2t0RwvUCt+hG/0gvVTa69phvNYSd8dcw/+DP/6cSLd2pr/LSOXrr5edssvpa3qYy7PiNQGxCoqprfMz8KQ6/NWRXUVdHG/V0d1J6RhbFxsZxvPBQjhc+aZcLuyAAAiAAAiAAAiAAAiAAAiAAAiAAAiAAAhqBJSeEd7a3amMn8aq8Vcy4wObUtMRUt41ILqE9xKs7LiqR4qOTnC5WaQwBYhx7cNDivhS0RQ37hrp4YcxjxqHPy3ZSciqHsjBfQNW+A7GxjjHYfS1v38bN2g924kAd5CT9ZvXTnXZj4uIpjl9iA/3zvzjsyLD1KZJltyJAdyAjDwiAAAiAAAiAAAiAAAiAAAiAAAiAAAj4icDiVj9NILU2N9L09DQFBwdTckq6SY6FmZSZlKs6Njk1QT96659pZsa6+KgcWJm3ge5Yd5/Kk5ta6CCEj4wPqkUuY5wsdJkQk6zKyn8jY1aBTU9coBtBy6wLr7rqYv9wD8mCmbGRca6yBezY5fMfU1i4NYSNq4YaaqsdDvta3qHCeU7oH5um7PhQSowKJtFsZ2zncSglyrrAZt+I7bXtqqshPgrAvpTPLyjW43b39/W66mZAjkVGRql6x9gbfXJiIiBtoFIQAAEQAAEQAAEQAAEQAAEQAAEQAAEQWCwElpwQLuEDenu6KSU1jRISkyi/cAXV11Qt6PMZHhpBKXEW7/WO/hYHEVw639RZq48hk+OEX6z7SN+Xjb6hHkpPyKGwkHBanV9Ol+vP2ByXNM16Bju1zQX5PjpuDW8ji4M2dl6fs58dfc1KCE+MSSMJH9PW22RTZkvpHlq3fJtKO3X1XbpQe9rmuK87L/zyxz5V4Wt5nxr3Q+HWwWlazfNOIjxvzwun4/XWBVXFGXxHfqTeSmO/ayF8YMyqoq9KC6VrnZ6FBPG1vNbRFavWaJtkfNJETwzwRkRUtGphdMT6eQhwk6geBEAABEAABEAABEAABEAABEAABEAABG5ZAm4L4XcURbCIZTvOiFBLQlxEMO1fYevt2sRiVmWHZwKVbe2B2zvz4VE6cN+jHEokiO579FP03X/72wXtUZmTslyFPREi9gKuRmlotJ8X3eyhBA6LYhYnvKrpApXkrOWl/ZbRzrIDKoRKU2cNSUiU4uwyWpFtEfVGJ4aprt3/EwMbinfoY9D6HBpsCRUSGR5N5SW7tGT13t3fQfXt12zStJ2O3mYODHNDjaUsfzPFRCZQ14A15I3ka+tu4FjsDVoRauyoIcm7bNkyumvTo3Sq8j1q7W2gmIh4ykzOVfHRJbSMLF7a3FWnl8OGfwicbhyjvUXRyhv8ifVxzH2IrrRPUHRYEN87oqggyXItXO+eoK7hGZeNNvRN8nkiPpdEdxZHUzJ7mUua0aq7p6iuR0IIOZqv5aXGVWs30vpN21XlIyMj9OGxdx0bCnBKZCSE8AAjRvUgAAIgAAIgAAIgAAIgAAIgAAIgAAKLiIDbQvj9q2MpIsQ8kG8SC1EPr7ENOXGsdmTBCuEnjh6mzTv2UBIvlpmWnkkH73+cXnn+mQV7WrNSCvS+uVrIUbyeRQiPjoil5Lg06h7o0Ms1ddUqL/Cy/E1K/N5QtIPkZbQbrC4ev/Q2jY77PzTKpuLdFBpiHiM7JiKOtpbcYewKXW0671QIl3FVNlTQqryNPJZgKswoVS9jBR9VHbERwutYVD9ZeZi2r9yn+DhbbPRM9TFa6B7xxnHeKtuNfdP01rUhurs0hkI5UPiDfD95cLVt78embtAzZwdsE0322gdn6EjNMO1hYV08zDflRKqXMetLlwedCuG+lo/mxSnvfvBJNZEmbcrE2vDg3P029s8f22FhoaoamdCDgQAIgAAIgAAIgAAIgAAIgAAIgAAIgAAIuCbgthA+rYL6mgvhZk1M2QcBNsvEaZZ6nRwMUPIMxwg/cuhVeuDxzygxa/P23SyKp9LRd16n2uqrHrU6bRer26PCbmZOS8hUOaemJ6m1p9FpKTlWkr1WHZfwKEYhXBKPXnidOvtbadOK3SpeuFaReFd3cbqI4M7q93WcMzdch7vQ+qK928dA19K19yMXXmMP+C4qzVmvvNtDgi2ioHbcrHxF9QmS0DiluesoKTZdieha/q6BNjp3/SRVNV/UkvDuAQHj533Kyal++fIItfRP8aRZrIoVrlUvt4qLbWP0q3ND1Dvq2htcK/Pr88PUPjRNtxVEUlpMCIXZrcI5133Fm/JBvK7A9t130tadd1JCQqLqSk93F9833tC6Na/vo6OjFBUVRemZ2ZSRxeF+WprmtX00BgIgAAIgAAIgAAIgAAIgAAIgAAIgAAK3EoFlZWVl1oC7t1LP/dDX8m076d6HnqbQUIuIKh7R5z4+Sbd6PGZ30ESGxyjvcWIRXATziSlrzGZ3yt/qeUQ4T423xF3vG+4NiBf8rc4okP2PDQ+ilOggmpi+Qe0cP3zKPf07kF1yWXdaRjZ98gtfocQk66KyXR3t9PMffYu6O9tdlg3Uwd/5gz+n5UUlqvqpqSlqbW5QfTl7+gTVXfdsQi9QfUS9IAACIAACIAACIAACIAACIAACIAACILBQCASnpaX9r4XSmfnuR2tzI3V2tFJB8UoKCwtT8aOXLQui0yfen++uzHt7U9MTJHHFh0YH2CvfiQvvvPdq/hqc4VjgMnZ5CQvY/BIQAbyPvb8Hx2+Qmw+PzG8H7VrLyMql7bv2qtSZmRmqqaqkX/30P3nh3S67nPO329LUQKvWbKTw8HD1ZEs8e6lLPxvrr1MrH4OBAAiAAAiAAAiAAAiAAAiAAAiAAAiAAAhYCbgdGsVaZHFtXblwlqqvXqJN23bRuvLtFByy5JEsrhOM0YCAHwhMczil8fFxqrxYQR9+8A41N9b5oVbfquhoa6Zv/fP/pl17D1JuXiHFxidQCD/dMsYhU2AgAAIgAAIgAAIgAAIgAAIgAAIgAAIgAAK2BJZ0aBRbFJa9qJhYGhkaNDuENBAAgSVMICIyikXmkSVMAEMHARAAARAAARAAARAAARAAARAAARAAgVuXQNCt2/XA9BwieGC4olYQuNUJQAS/1c8g+g8CIAACIAACIAACIAACIAACIAACILCUCUAIX8pnH2MHARAAARAAARAAARAAARAAARAAARAAARAAARAAgSVAAEL4EjjJGCIIgAAIgAAIgAAIgAAIgAAIgAAIgAAIgAAIgAAILGUCEMKX8tnH2EEABEAABEAABEAABEAABEAABEAABEAABEAABEBgCRCAEL4ETjKGCAIgAAIgAAIgAAIgAAIgAAIgAAIgAAIgAAIgAAJLmQCE8KV89jF2EAABEAABEAABEAABEAABEAABEAABEAABEAABEFgCBCCEL4GTjCGCAAiAAAiAAAiAAAiAAAiAAAiAAAiAAAiAAAiAwFImACF8KZ99jB0EQAAEQAAEQAAEQAAEQAAEQAAEQAAEQAAEQAAElgABByE8JiaG5AUDARAAARAAARAAARAAARAAARAAARAAARAAARAAARAAgcVAwEEIXwyDwhhAAARAAARAAARAAARAAARAAARAAARAAARAAARAAARAQCMAIVwjgXcQAAEQAAEQAAEQAAEQAAEQAAEQAAEQAAEQAAEQAIFFSQBC+KI8rRgUCIAACIAACIAACIAACIAACIAACIAACIAACIAACICARgBCuEYC7yAAAiAAAiAAAiAAAiAAAiAAAiAAAiAAAiAAAiAAAouSAITwRXlaMSgQAAEQAAEQAAEQAAEQAAEQAAEQAAEQAAEQAAEQAAGNAIRwjQTeQQAEQAAEQAAEQAAEQAAEQAAEQAAEQAAEQAAEQAAEFiUBCOGL8rRiUCAAAiAAAiAAAiAAAiAAAiAAAiAAAiAAAiAAAiAAAhoBCOEaCbyDAAiAAAiAAAiAAAiAAAiAAAiAAAiAAAiAAAiAAAgsSgIQwhflafV+UFExsd4XRkkQAAEQAAEQAAEQAAEQAAEQAAEQAAEQAAEQAAEQWIAEQhZgn9Clm0CgbN0m2rZ7H4WFhdF3vv61m9ADNAkCIAACIAACIAACIAACIAACIAACIAACIAACIAACgSEAIdxLrqHBROszwyg+Mogqmieoe2TGy5pubrG1G7fSzjsOUGZ2rupIe2vzze0QWgcBEAg4AXnyY335VoqNS6RL5z6i5sa6gLeJBkAABEAABEAABEAABEAABEAABEAABEDgZhKAEO4l/YfLomlPUbQqvX/FNH31jW6a9lALX8alU6KD+BVMIXZBai53THpcn6dD2bZrL939wBMUFGRpfHJykqqvXva0Go/zJ8elU3piNsVHJ9LMjRvUP9xDbT2N1DfU7XFdKOAdgcIVqygpOUUVbqyvoYU+AVJcWkYJiUkOg525MUM9XV0s5NbS5MSEw3FnCeVbd+rXfW9PN12/5v51X1i8krJy8ykpJY2mpqaou7Od6muuUVtLk7PmHNJ9ad+hMi8SPvHQU7Rmw2ZVciOz+Prf/DVNjI95UZPnRQoKSygnfzklJqfSDf7893R1UENtNTU11HpeGUp4RKAgvYSCg2y/9qemJ6lnqJMGR/o8qisnhc9hXArFRSXS6MQI9Q12U1NnDU1MjTvUk5GYQ9ERcTQ5PUENHdX68azkfIoMs3yPSrocF5PviIToZLrB/2par+j5CzNW0rJllu+rvuEu6h7o0I/JRkxkPKUnZKu0tt4mGh4bsDkuO7mphRQWEkEy7vqOKofj7iZ4Mn6zOkODwygvrVg/1D3YPud3oK/nLy0hi2IjE/Q2nW1MzUxRffs1h8P+4K9VmpWcR0l8nuOiEtQ108vXT3NXHY1NDGtZ8A4CIAACIAACIAACIAACIAACfidg+xex36tfvBXmJITqg4sLD6ZUFrPbBqf1tLk28hKD6VMb4shYj7HMX7zSSSMzN4xJft1ex96gmgg+MzNDFys+ovcPvUpdHW1+bcdYWWR4DN22ej8VZ5fRMv5ntJmZabrSWEEfXnnHVEgx5i0v2UUpcRk0PT1Fh8++aDw0L9s3u31/DHL/Jx6m7Jx8VdWbLz+34IXwA/c9SumZFoHLbPxyDVdfvUQylrmu4ezcAnrwic/q1bQ2N7olhCenptPB+x+n0tVr9bLahgjip08cocOvvzCnIO9t+1pb/nhPScvQq4mKiqIsvhbqrl/V0wKxIcL33cKvbB2Lmfaf/xm6cPY0vfnKczQ86CheGvtz4P7HKC0ji6aZ+S9+9G3joXnZvtnteztIEV4Pbn7cgb1W39jkKJ2pOkrna05pSabvWckFtGP1nZQan+VwfIDF9PfPv6IETePBjSt2Un7aCuob7rYRwveXP0JR4RYh/L8OfUMXwreuvEPl7x/p0YXwqPBYOrD5Mb3a662X6e2Pf6Pvy0Zx9iravnK/SvvtiZ+ZCuF7Nzyo2uxh4dkbIdyb8dt0cnanNG897So7qB+qqDlBJy8f1vftN/xx/jaX3k55qVbx3b4Nbb93qMtBCPcX/8ykXNq+ah9PhudozenvI+NDdPTC61TbFth7kd4gNkAABEAABEAABEAABEAABJYcATs/5CU3fq8HfKRmhEYn2V+NteqKljGPRPAInn740rYEpyK4151ys2B4RCTtu+cR3SP2xNHD9PzPfzCngOhm9abZRPi6a9PDtCJ7jS6Ci+eg5gEYFBRMZfmb6PZ195iWNybKH9LimbY8o9SYPG/bN7v9eRvoLdSQPNVQsmot/d4f/RWJ0OzKileusTksoupci8QGBQfT45/+oo0ILuL39LRl8iskJIR27L5TCeU2lZvseNO+STU+JVV8dILGxyeUR3Zt9dWAi+AWfr9HK9es14XYCfbgl6dQxOT8rd+0jR587DNzjisnr5BW8BMCRSWr58wbiAw3u31vx5QUm6qzN6sjIjSSJyoP8D34XrPDKk1E4E9se1oXwcVje3LK+iSGePeKuB0WEm5TR0iwZeLYmFe8xDURXDJPTFqeSAhij++MxFxVvrW7Qa8nOS5V35aNpNg0m33ZSYi2POUi290D7fJmYxHsfa612TfsmQe8VOTt+G06MbuzKneDTXIUTxS7Mn+cP3e8waUP8pSWvfmDf2ZSHl8/n7IRwY1PEAiD/eUPUyxfRzAQAAEQAAEQAAEQAAEQAAEQCAQBeIR7SfWjpgkWwDv5MXOi8SnPKilJDaWESA4yzlbbM0GvVw5Tz6htXJWxqcB5g+/ae5DDTCSq9luaGujQay+o7UD+tzJvA2UlWTyQxcvvyPnXdK9BEbV3s/gSGRZFxVlr6GrjeWrkR+xhIGBPYGxsjH72vW/oyWHh4ZSRlUNbd+5VoVMiIyPp3oefou994+/0PPYbeQVFNknBLHKXsDgu4rAzk8+MFke/r6+X3mLPc4mtHcqLy265bQ/tPfCAWmh207Zd7Nl8ikOlOA+54E37zvrlbfqJI4fozKljJPwG+z0XBD1tdwcvxKtNUPT19tKbv/0VXb5wRlVTvm0n3fWJx0g808VbfM2GLfyEymlPm0D+OQgkGoTkk5WHqaalUgnjEtqkKGsVrZwVZlfmrKcL7BUuXsFGExF5X/lD/J0XrEKWnK0+Rueun6RxFrCT49Jo38aHlDgt9/GV7O1s9Cy3CuHWsCl56VbP5Bsc4kibFM1IyqHw0AjVdGNnrd6FxNhkfVs2EqKTlOBuFFLjONyWmHgWj7OHu72lcD8162fvdE/Ml/Hbt5OdUqDCvxjTI8OjjLsO276eP6nw9VPPUlioZZJCRPGDsx72DZ3VdKryPb3NsQlHdr7yj+DrQkTukGDLz07xgK+oPsGhUEaU8H3nhvspk38jSOie9YXb6IOLb+r9wQYIgAAIgAAIgAAIgAAIgAAI+IsAPMJ9IDnF2rWnIrg0lxpjEcFl+61rw3SpfZJaB6ZtXgGMikIlq9dJ0yThJF55/hmamfVqVYkB+k8TwaX6w2de1EVw2a9pq7R5JDyDPb5hgSVwwxDQXvNqDmyL/qldwmE01l/XXxLb+9h7b9H3v/n3NDQ0qBrJyVtOEofamWXOhoSpvX5NfQYkX0GR8/xyPG+5VbR7lT8zIoKLSVzy4++9TaeOvav2xbN5ebHrJxW8aV9V7uf/xsdG50UEl24b+f321z/VRXA5dubDY3Tk0CuyqSy3oFDbxLsfCSTEWIXk9p5mGhjpVZ6/jZ3X6b1zr9CVBsvEhDydk5duO1kk3ShmsTx61mtZ4nmLcCoiuJjE6v7QIKRGRcSqdO2/0Fnxc8LgPZ7NMcbFRMie4jBXmmVzDG+xaQ6X1cR90yze4O0taRIrXGJeGy0+Kkntmnk0y4HEWKvHuMQ098R8Gb99O6v56SexaY7F3dxtEfujwlx7hPt6/qQ9Oedd/W3qZQxPpKVp70Oj/ZLdxnzlX5S1muPEW64LueYkDIyI4GISn/59nhyXJwzEJJ48DARAAARAAARAAARAAARAAAQCQQAe4W5SXZkWSptzbB/31oq2DEzRO9XeLTQ3NGH5w0+rK9DvEuc4nUNBiPX19vAig3Vq29V/ZQWb2VMrh0WTXurkP6LL8suV93Y1x2gVjy4Jd7Iydz1JDPCmrho6yXG+Jea30TRPPRE9OvpajIfUdj0LKxI/Vpld/GCJyZ0UYxUwkmIsXn0i2OxnD0V76xpo436dtE9W++LVt7pgIyXzY/WJs3VKXNu23kb2gjythAn7gv5sXxZzK8goUQu6pcRnKK9F4dHW08RxUStVqAr79gOxPzFh9cwUQfRWN/FqlhjTEp5ELJ29xOt4AUt7k4Uuo6MtMYnFazs2Lp5S+DORzeK5K0tKtlxzw0NDdO3KBYeslRfPkXiNi6WkWuNv22f0tv27H3ySkpJSaGCgjw6/8RKtWb9JhQbJyM6jEZ4A6GxvoffefpV6uzvtm1T7GzZvp9VrLeKbfYbOjlZ6+9Xf2Cfr+7v33UO5HI6kt7eL2pobSRbXjIyKpsqLFRwT/UX2xr+D1pVvo6joWLVo6Gsv/tIhTnpCokWElXAoZguTXrlQQdt2759t0zZ+uMTkTklJ1/uTnGo5F+LJ/8nPf0VP1zba25pVv7R947v0Q54eSE3PJK2efvbwb+IFY4++84bpgqH+bD81PYtWrd3I3vH5HOc8m8ZGR3iR1UbV/ll+IiGQk5Lx7EGtWc9gh7apv19nD/FVeeVqX1uQUj/IG/npK/Tds1XH9G1tY4Cf9NHMfg2IYLvQKHIfTovPJHk6SDyAg5ZZJ4ezOHyGWGdfsy60y754gIuJp7qMRUKopCRk8HeORUgO59AumtDqTAiPN0wG9PICoZ6YL+M3tiMiryx6KSbfe5P8nSgWORsrXe2Y/Ofr+bOvMsHgYe/OpICv/AsM18/H147ad0ctFHqDJ+eX8fe6UaR3yIgEEAABEAABEAABEAABEAABEPCBAIRwN+FlxQXTjnzzR5frOLyJKyE8OiyIQ6FYxZ2UKOsf/bI9bhIGRTzEA+EVLovkaX9kdnc5xlA1w5GRmK1ClgyM9tG65dsoNCRMZUthIUNEjPLiXepxeUmUOKbyGLyEPjHa6Piw2pXYselcX3tvs/Ewe4YN0y/f/Q+bNG0nhz0HjR7lWroIIRJKxd5CuY0KchTCc1IK6Y4N91GMnbeZxJoVYUJEoNc+/IVDfFR/tS9s7uX4uvbtSzxc4VrVfJHeqXhpXsRw8WTWbJzDjcxlMSwYu2tS980Q1wf7e/UuasKrnjC7UViySk8SIVxEcO0Vn5BE/X1WMU/PyBsSAkVsZHhIvdv/J17qz/zgm5wvnIZYrHZm3rZfyF7mslioCPHh4REsPG/Vm0hMTFLCasnq9fTcz75nKjSLACthR8xMFrF0JYRLSBMpO9DfT+Vbd3MIGEu85zQWk0NCQmnbrr0korRYckoqhYaG0XPPfN+mKY1bGHNcwWFoqiov2hzv6+2mf/2bv7ZJ03YKClfoYVW0NHkX73uzMYVFWMJqGPPKdtn6zXTPQ09SbGyczaHklDQSvus2badf/eQ7DpOD/mo/r6CYnvjcl7l9W2/prJw85rpTPanz7E//M2BiuOYtPTw2aCMwazAk5InVrN9XWlrqrPe1TDS29TZpyfp7TIT1HqGFOdEOhvBCnWJaGJP8tGLl0d3SVU+FmSv5O9AiBsuCkJqXd3N3vVZcvcfNCuGD/D10gxfnkPupLJqsmTGGtT6pqh2cfY+fDZ0ioVjMJgPsstvs+jJ+Y0WrC8r178vKhgrKTi1QhyV0iHw3y9jMzNfzZ19nYrRlckrS3WHhK/+5+Ek/Xjv1S/5/mfo9IPswEAABEAABEAABEAABEAABEPA3AQjhbhIdZs/ttkHr49tSLC1GPNnmruDBsijaWWAuon9us1U8MNb0F6900ggvxulvi4uzLkLV1d7mUfVxHFO0vqOK2tlTb03+Zl50LIa2lOyhxq7r1MKLmslilyLylnKM2eOX3rJ53F0WLtO84LavupMF35fV49DudGB4dNDqLc4FxOtPBBMxM8FjgD3X7U288O7Z+qQuQIyy8C5ifATHok1nIVoEiHiOlXvnxgfoxWM/sREj/NG+PNZ+3/ZPKWbSN/Gc7+xvVePIZxE+lj3FxbNe7PDZF9V7IP8zeoSPjY3M2dQf/9XXVAzsOTNyhvNnTqnFV93J6888CewxrZkIq2aWOxsffHR0lGqqrrC4nMUxqTcrUVUW2zx94n2zYnqaq0+kmae4XnB2w9f2o2NiWNDdZHmao6GWBegQKmARN4LFX4mxffCBx+k7X/+ag5g6yp7Hvb22In98fIK+YK59P8324+LjScLJtDTW04YttynP+tv27Kf6Wg5VU3ed1m/eoUTe1evKKfz5SJvJkPa2FipcsVJVu/fgAyyq91J7q+1kmFmbkjY40G/T95gY/vyHWsR4+zFJ/r6eLnmzMZkAfPSTX9AF+5ER9sRubqCIyCgV+10+/wkJiXT/45+h7/7b39rw80f7Mpnw1Of/UH8aoaGuRnmCy8RAIS/6GccTTSvL1tOTn/0S/eJH37bpuz92ZHwSC1xMvLDNLD7GclyODY8O2GSRUCeymKaYM29rYwzp/iHbNkJ4wlRMWywzN80S/qSJ14IoyVmnYnrLcYmdLZOrYo0d1rAocr/XJhBFyJ+YHFdCeHKc9UmBRMPimb1Owp5oYvIAh/4whmNRDbr4z9fxa1XL5G0pj1dMzoOEmEmOT1P7cky+p8zCkvh6/lQDdv9pwrY8vdVjFw/eLqv6nvKFvzv8pE3Nu9++feyDAAiAAAiAAAiAAAiAAAiAgL8IQAh3k+SHDeMkL6P9n4PJlGTw7jYeM267oZUbswd0OyzCGt6l10QwctX4DHvRSSxZ8e4OZa/vjUU7lWD8XsWrNDw2oB5VF2FcPAvj2dtMxG/NLtSeJgmxImKKLIj12O7fo8rGCqptrTT1LtTKybu9MPyJ7U9TbkoRCxmTTr3IjeVle3X+Rl0El5jkb330nJ5FxIfHbv9dDvcSzSFLciiVPd2N4Vv80b7ER5WJA7FT196jM9c+0Ns/ffV9un/Hp5V3Y3FWGR3jSQQtdqqeyc8bRiF8dMTire/nJua1upS0TFq70eol3cwisb2J93ImhxIRk3AUYlWVl+nuB9Qm5bPn8VxCuCWnd//7q/1GDuPx8x9+SxeaZeyf/8M/JxGIJezR8qJSB6/wDzjsh7yM9n/9P//o4B1tPG6/LWsKvPjsT5TQLB7yW3mRUPFelZjfXR1tFMQrB992+34lNmdm5dqEpjnx/tu0cfNtLDxHKO/1L3zlf3Cc9dN05cJZB+9w+3btheEvfOUvKX95EU1OTjr1IrevY/MOvi/Neq1XXb1ks+Cq8Pvd//aXaiIhk0Pq2PPzR/uyAKgWkucYx5R/6xXr/UeetvidL/0Zh2vJoFJev8HVkwn243J3P4Hvx9oihWYThVJPgiH8VM+gbdgQCSWlWd+Q+SSTbXnb0CvaYpkTU5anT7KSC1QYqqauOnVflnu5WHbqcvUuE5VGr3NZjFPEYDGJcy3XndwrjQtmaqE7JI+Zh7P0QSYcxQaGbYV6lejiP1/Hr1VdxH3WBOWrTedV8uj4iHaY+2cuhPt6/vQGDBvWSYE+h1Bmhmxq01f+7vCzbxP7IAACIAACIAACIAACIAACIBAIAhDCA0HVrs53r4/S2RariL4hM5x2Lrd4iD9/YYA9zW3jaUvx8WlXvqd2DXi5K4+He2Ij40NKBJcyXf0WoUMECxHBxXoHrOJJ2Gz4FHWA/xNhVxbJvGvTIyThUcLZE3t94Xb1kpArVxvP0UUWy7XF17Ry/noXD8Ez1cfUYlznr39oU630/3rLZVpTsEWlJ3PsbqMQbpPZyx0JByMm3owVVcdtapExn+U0YSNiT3ZyPl1vvWKTx9874+PWcCjDTsJ9GNt8+9Xn9fAgxnSz7bbmJrNkv6SFcNiN1WvL9bpCOUxHWkaOJW51pMVjte56FTWZCOHFpWUcVsQyEaQJ5V0cH7u3p5sSk5Ipi712A2n+av/Qqy/oIrj0V8ZQcfoExyg/oLqflpHpIIT7Y1xynWje1u2tlnMsntUigotJnHLNwiMs50Lbl5Azr/zmZ/TA459VTxZE8ITcpm271EtCrlxkUVwWPR1i7+9AWHdnG3147D0loH7wru2EgPC7dvkcbWCPdrGM7By/88vimOBisqDrOxzj3Wgy5pNHD9H9j31aff6LV5bRxyePGrP4vC3hnzTrG3b0mJdjWtgQWaRS4nAbzejt3Wfn7a3lsy1vFcvFw1sLuyKLZWYk5vCkYDQ/RVTP4w1SxSdnhXAtPrg8YWS0RA6Doln/YI8eYkVbMFM8ieNjklQWCb8iiy/am4RS0dpz5tVuX0bb92X8Wh3yvip/g9qVRTKv1FeobXniSLMonpQ1M1/Pn32dykM7zPIZdYeFr/xt+VmvDft+YR8EQAAEQAAEQAAEQAAEQAAEAk0AQnigCXP9LRzvW16aZXK8cc3qeqeopts25Ip27FZ7n0u6b+y8Tr89/lMqL9mtwqTIo+BiEnJFPMlX5W2kV0/+3EGE8QeH6haOSWzV6RyqbOyo0YXw8FCr17xDRi8TxMtcTEK5iGe9vUncXc3SWDQPtBA+MW6ZmBHPSlloci47xSLiQrDw8DB68nNfctqVwYEBFlx/bnp8+YpSPb2OQ3xo1tpUr4RwiW8tITQ0YVc77uz9z/7vvzf1qK66cpF+/qNvORTzR/uy2KTEI7c3EXM1i44xF9O04wF7n+MGIIuZyvnZdedBKlqxSg/LIiFXxJNcPPqf/fF/8Phq/N7F08ddh7yRMDmaEB4ZGe339mVhTLG+7i6amrJ4PxsbaWmyCr8SRsXfQrhxYURnYUPioixCssTgtl/s2JW3tzYOZ+VlzQbNJKRJbnqx2m3uruNJ0TC1LR7hstiyJvg2s6e40RJmRW5J6+FFLkfGhnhSgxdW5O8QbcFMLfSLM2/vxBirmN7noUe4L+PXxpHCYVy0tS7q2q/xpPKQOjQybhXCoyPMrz1fz5/WB+3d6KHt7AkBLa+8+8rflp9lwvz2dffSSg6jZm8yEfODN/7BPhn7IAACIAACIAACIAACIAACIOAXAhDC/YIRlbhLoIvDpUhYEglHUpS1kvJ40TR5TF5EcXlkXBaTfPa976iwJ+7W6W6+IA7ZUpKzlhI5BIDEGde8A6V8xKx3nLt1eZovJMgS01gecT+45XGH4tqkgBzQwgg4ZPJjwsSsR7iEl1gMJp7JVVcu0Fvsue7Mqzgnr1ANdYwXB73OwqdmDRzfWuJai8lCju4K4bJYo7zsbZlJmuTxR/vGRU6N7ZqJq8bjC2W77vpVkpeEI5HY7EUcHzsnjz//zEwWsZTFJL/1j/+Lxjimub9Nwrls3n47hyDJpJjYeG7TGrQqEOK3sf8hIZav2oTkFPrs7/+J8ZDaDpoN2yI7stiov03uO5rZhz2RdHlKJ4bDcoiZeQjL+gliIpDbe4tLuorh7aS8JnZLvgl++iUnpUA2qaG92iCET1FuaiHfky3npL69SuXR/oub7b8I5tI/mcATMVvu5bJgptzbZUJVrJ9Dp5iZrZhsEWPN8pml+TJ+rT4JDabZlfqz2ibHBLcK4VHhsXq6ccPX82esS7ZtPLR5cnYu85W/xs/4tIGEspHzZm/yhBgMBEAABEAABEAABEAABEAABAJFAEJ4oMjeAvUaheD57q6EIzlfc0q9spLz6I71D/Bibgkqhuua5ZupovqEX7uUnpBNezc+qGLK+rViDysTAX55hNUz2cPifsuuhUZxJqz6rSE/VySC929/9VO9Volb3cEhOXq7XQtbEqojg+M/i0lM9G0771Db8l9UtCV2u2xLnPATRw7J5pz24dHDJPGdxUTQkZjZziwQ7Ttr61ZIFw/29956Wb1Wlm2gex95mmTxTlk0ctfeg3TotRf8OgwJSyOhRxISLV7Pfq3cg8okjntMySoPSvgnqxa2xGXYELKI0GZCuLawooiU9t7i0kMVQ3q2vL2HsVEIl4cGUuOzVIgoWSw4M8kSs18EblkoU6xnsF0Pt6US+L+EaIsQr8UHt+TrUEK4LJhpFFWdxjA3TAZ0D1hCe2n1z/Xuy/ilbgkFJutEiMk5kIlgWVTa3qIirPci4zFfz5+xLtm28dA2hDSzz6ft+8pf42d82uBa80Vq7WlUTUj8+vWFltBEZtef1g+8gwAIgAAIgAAIgAAIgAAIgICvBCCE+0rwFis/Ojys9ziRvRMXgkk82ENnfkOP7PqC6o54BvpTCBdvxX3lDyuhXRoQMUU9ms5xyzUTb0IJzRJoE29FWSTUlbV21bs67Jdj42Ojqp6JyQm36vuDP/+f7Klq8Wqfq0DlpXP01svPzZXNq+M3WPi+ctHqTeluJSWr1pLmlSvxwO9+4AnTolk5BabpZolHDYtPitDtSggPRPtmfboV0yovVfDClxPsKf3HqvsFvNinPy2SJzoeeOKzSmiXevv7+jgG+CUaMdwLRSAXD/VAW19fL13kEDGurL7GGrbHVT5PjmlCpNOwIXGpenX2QqTy9p6NXS33TjMzxpCW8E9GCzWsF5GWkKme/pH44GLaMRHCc1KWq7Rmu/jg8rSMFvakb9javoSTKspcrURwEcM1cyaEa2KyrHXhyWLEvo5f+rUyb73yupdt8b7fu+F+2XSwyLAohzRJ8OX8mVWosZBjZguLGsv4yt/Iz3htVTZYvwclbjyEcCN1bIMACIAACIAACIAACIAACASKAITwQJFdoPV2trfqPZN4yPNhMZHxvEBarmqqa6CVzIQKWZxyiL3EJTxKzOwj7v7qW3bqcl0Eb+qqoVc4Drm95aYWBVQIv8HLdIr18SJ0Z6uO2Tc/7/utvKDlkcOvsxhoiVM7VweSklPVIodz5ZPjsRx2YqHZ8mKruDo15RiTXwtzEp+QQFk5+dTCccPNzCwUiuSTsBuuzF/tu2pjoR5LTc+igqIVqnstjfXU3Fjn0NXr1y7T4OCACo8Sy57h/rSVq9fpInhDXQ394Jt/71D92o1b5kUIlycXZOHZ+TTxPo4InV0Y0YmQLUKkZq3dFi9dbV/iQ2shS4xCpnZc3lPirUJ0j52HcQhPRGqWlpilNps6a9W7iKRiIg5rYncTr9dgNFkEUxbcFOs3iOydvZZ1FeTJpty0Ir2IWegX6b9Wv7Mx6BXYbfg6fqluZa51klVEf3uT8UkfozhOur35ev7s65N9LZ67LN481wLVvvI38nM2kZKaaFlDQ/rmbDFWOQYDARAAARAAARAAARAAARAAAV8JQAj3leAtVr61uZGmp6cpmGPSJqdYxYtADiOWY8fuL39INXGh7hQdu/iWaXMS91VMezfN5EWiUaRxtghlZHi0FzW7X0TEF1kwU1gsBJPQFIdff9Htrlw+/zGFhUe4lb+httqtfPOZKSfP4m06MTFJ//C//ozsQ8LctucuOnj/Y6pLRaWrHYTw4aFBFbYjNs5cpM3Mskz0SAXDQwMOQ/O1fYcKb6GExKQUuu+RT6oenz19nJqfrTPtvf65n70PmGbyIjE90yryVjp5miCaQ5YE0vp6uiktgz//s6F0fG1LPotr2YO9h4X12uqrLquTsCWamU1ChrNInptarLK09TY6eAgb4zibiaYR7MW8InutKj82MUrtvU1ac+pd8/qWHYnnLYtc1ndY7hFaPPSUeMuk7OT0BDV3W0RyrZKkWOv3VN9gt5ZMHX3N6rtCBGTNm9wYg1rPyBvxHI9aW3vBmRhrzG/c9nX8MskqsczFqlsu8dNPLxirV9v3bnuK8vgcRJh8D/l6/uwbmysevH1+X/kb+cliqfYm568s3/I0hpy/2jbX17N9eeyDAAiAAAiAAAiAAAiAAAiAgCcEIIR7QmsR5JVF9XpZlElJTVPxciUmcn2N7cJk/h6mxIKVuLLyB3Fx1hoVF3xwpM+mmZKcdSo+uCR2cX5XNjnr0SvChojLUr8rE3FGM4nVamZFWe7H7fW0fWlPRBvpa2JMGnvH51CbnVi0pXQPrVu+TXXt1NV36UKt6/AJZmPwJE28biVchwh04o07l73wyx/PlWXBHpc43rJAolhHa5ODCC7p1VcvsxAuWxwnfHkxHbVs6v+LJ28mxxgPDw9TMaw/ePdN/ZhslG/dqe9LzHKj+aN9Y3232nZ9bRV//mf48x9EpRwPPD3zELW3NtsMY/vuO9VEgyS28zlyZZMTFjFNQvUUrlhFNYaFT83KjYxYn3qIiDQPPbFyjdVj16wOY5qn7UvZ1uYGJYQnp6SpBVmrKi8aq6S7H3ySNm3brdI+ePd1ev/tV22OG3cSEpPpS3/6VYqKsozlAodaee6Z7xuz2GzbLIw41GNzTETw/ZseYk9ky0Tg1aYLNsftd9ITs+2TaH3RNj3sR2PndZphodtomte3pEWGRat74diEJURXKN/DxbTFIEWIn5qeUmnaf8b+9w51askq1nb/SI8qq3lSG2NQ6xl5IynWOhlgttinMa+rbW/GX1awSa/ycv0Zfdu4oX1HSWgUEYb1SSHOZBy/vbe0p+dP2kyKTeVo7stU88JvLjO27xV/y/y2aiYzyTphqLW7Mm+Dfv7rO6polEPXwEAABEAABEAABEAABEAABEAgUAQghLtJ9o6iCAoJss0cEWpJiIsIpv0rbAXWpv5pquxwfATatoabs3fmw6N04L5HlTB136Ofou/+29+aioP+6p0IGzVtlSyCl7EQEkUP7/wdOl/7IXX0tvIj78GUl15Mq/PK9eaqW1wLs72DHUQZllAXd21+lGpartDEtEUck0paOutshOaOXqvoVl68i4V9jGopAABAAElEQVSGIKprvUoiiKRwbNlNJbdTfpoldIPeCRcbnrYvVTXy4/7i9SYix12bHqVTle9Ra28Dh4KJp8zkXNpYdJuaKBBvyeauOhet+34oLj6RvvIX/5siIsJVZVcvn6ef//Bbvle8QGso5dAYWkiTpsY60152tDVTXy+LahwrOjOnwCGPxHVetWaDOn97Dz5ACezlXFtVSSGhIbR67SZauWa9KiOLeV65UGFT3h/t21Toxc6+ex6i4BDb231YmOX8R0ZH04FZb3itapkwqPjopLbr07vEo6+qvESlq9cq8fZzX/5z+vjkEeV1L3HbZSHLtRu36m1cuXBW3zbb6Ops4zKr1aGHn/o8Xb18jiZmxXFJlPNiFJqbG+pUXvlv26596nMmnuGN9TUcsqWUbt93Dy0vKtHzzLXhaftSn4j16zdtU9fPQ0/9Dn3wzutUd72Kr6NkyuOJF1m8Va5RmTCorbrqsgvrN+/QRXDJKJMLUezRPsJPLZiZJjLLMXk6JpK9ycNDo0gWZixIL1X3ZDnW2lNPVSZCuIiv4gkuk4i5KUV0Jy86fJ3vuXIvy+d7t7booywCebb6uFRlY5rXt5bYPBsfXPZDQixCuH7M5N4nC2GKyb3RPp61LHppHJ+zsCcJsclaE+qeX16yS9+33xgdG6YrDdZr0Jfxx/IC0HlpxaoJWQRUi43u0ObsxIDE45ZQKEOj/XoW4/i8OX8JMclUaJjoTYqxxoOXUGRGFlVNF8l+ktpX/hIzfmxyVIXnyUou4KfDHqZrfJ3JtZ6dWkBrC7aosYr4f7nOfKJAh4ENEAABEAABEAABEAABEAABEPCRgK0y4mNli7n4/atjKSLE4kVlP86kqGB6eE2cTfKx2pEFK4SfOHqYNu/YQ0m8WGYae8oevP9xeuX5Z2z67++doxfeYBEmQ/fe275yn2kTF+tOU90cj0ZfqP2IFx/bSNEcT1UWudxQtMOmrpMzh22FcI4/XtV8QT2+L4+Fbyvdq14St1vzjJPFMwvS3RPDPG1fOif1n6w8TDLu6IhYp4ulnak+xmKP1evRZmB+2ilcUaqL4FJlRnaen2pemNUUFFrPq6unH1rZa1eE8JiYGLJ/UuISh4YpPbNeiZki3m7Zcbt6GUcsQs67b75E4j1uNH+0b6zPm+3tu/c5jfEeGxtHOzk0jNEusxjtLyFc6n35+Z+xR/RfkixUGs3Cu4jPZlbx0QmS8Cmu7MT7hzgsyFaK5vMUFx/vcB5mOPSTUQiXJx6uXKxQExkWj/4D7NV/QA+rIW3VcHiRQkMceX+2L3XJuGRNht133s3XV6zTxVpPHX+PGuosYUOc98HgYsuZWI9WorSz/NpCi3J8feF202yygO+RC6+rJ3fsM4yziHmp/mMqL7Y89VDCYVDkZTQJafHeuVcchGrJExJs+zOjseO6XtQYP1wSG9qtx7RMEtZEbJDFYXtv8W61YKb1aR5nQnhitFUIl6eSXFlDZ7WNEO7L+MUbXMRtscrGc06bHR0f0Y9J+CyjEO7r+ctNK6StJXfo9Rs3JGyLvDSTSWV785W/TKLI9/rmFberqmVCXF5Gm5yaoHfPvUyyhgcMBEAABEAABEAABEAABEAABAJJwM7HOZBN3dp1T8/Yig9zjWbKzfye1jtXu+4cF6HoyKFXlUeW5N+8fTd99vf/hIwL+rlTj+QRAcQdEzHhN0d/SGeqP2DvQmuoEq2seI29zbFTP7j4ppbk9F0eq3/p+E/Yy/wqDZs8Ri1hWOztyPnX6ez1YyQxaDUTEVwWLrvccIbOVH2gJZuKQfpB3vCmfSlfUX2Cx/cGh3JpceDWxYLO4bMv0umr7xubCsj2lYvnqLvLItaKV96lcx8FpJ2FUmk6hzQRm5yc5BAol5x2q7HeKsKJEG5vv/nFD+nNl5+jwYEBm0MigLe3tbBX/bfp1LH3bI7Jjr/ad6jYkDA9Zb3mp+1CS0g2Oc+emNwj3DF38w3299F3v/H/0YfH3qWxsTGHqiVc08s8GedOCJ6+3m76r+/9mwpnMzzkGEbBbPwv/fq/6NTx99U1oDUuHs1yTZw/c4o9tN/QknkNBdvQHPqB2Q1v2peih157gQ5xXH65VmSdBqN1tLfRqy/8gl5/8Vljsun2mVPH1NMLclDO64UzH9IwLzTqzGSxYnuT+157X5MSuN/++HklYpvdN7VypyrfpeOX33JYWFHKSDiL545+j2paHUVUKa8JwbItIUBaexpkU1nwsmBtUwnd9h7fcjCan5oRMwvj0dnXpo5p/9mHDtHSoz1Ym8FMTPd2/JrgK0Lv1cbzWncc3scmrEJ4OD81ZTRfz59ZeWP92rZcE2Zj9wf/j64eUd99xnFKu6M87sau67yA9TNOrx+tf3gHARAAARAAARAAARAAARAAAX8QWFZWVmaj8Io3pNiQicDgjwZRx8IhUL5tJ9370NMksXbFRNA79/FJt8QoX0chj3/HRydwm6Q8oM3EcV/bMCsvccrlUe+o8FiOMTtGsnicPNI/32aJb56hmu0b7r0pcVGzcwtoZGTYwYN5vlnciu0lJqeyh3MW3eAJr+amOpdC5K04vkD3OSUtk9cpSOdnMm6oECkilM+HhYaFcaz3PJIY+WOjI9TGIWBciciB6pPEKs9fbplskZjy9k8RuNNuUclq6u/rJVn4dj4tLjpRPYkjIqaEl3IloM9nv+arraU+fl85S7iYOH6NjA2p68fX+lAeBEAABEAABEAABEAABEAABDwhACHcE1qLMO+qtRvpvkc/rcJByPBkEbtv//P/uwhHiiGBAAiAAAiAAAiAAAiAAAiAAAiAAAiAAAiAAAgsVQK2wTuXKoUlPG5ZmE7CRWzatovWlW93WFBvCaPB0EEABEAABEAABEAABEAABEAABEAABEAABEAABBYJAXiEL5IT6a9hRPFCbiNDg/6qDvWAAAiAAAiAAAiAAAiAAAiAAAiAAAiAAAiAAAiAwE0ngMUyb/opWFgdgAi+sM4HegMCIAACIAACIAACIAACIAACIAACIAACIAACIOA7AQjhvjNEDSAAAiAAAiAAAiAAAiAAAiAAAiAAAiAAAiAAAiAAAguYAITwBXxy0DUQAAEQAAEQAAEQAAEQAAEQAAEQAAEQAAEQAAEQAAHfCUAI950hagABEAABEAABEAABEAABEAABEAABEAABEAABEAABEFjABCCEL+CTg66BAAiAAAiAAAiAAAiAAAiAAAiAAAiAAAiAAAiAAAj4TgBCuO8MUQMIgAAIgAAIgAAIgAAIgAAIgAAIgAAIgAAIgAAIgMACJgAhfAGfHHQNBEAABEAABEAABEAABEAABEAABEAABEAABEAABEDAdwIQwn1niBpAAARAAARAAARAAARAAARAAARAAARAAARAAARAAAQWMAEI4XYnJyYmhuQFAwEQAAEQAAEQAAEQAAEQAAEQAAEQAAEQAAEQAAEQWBwEIIQvjvOIUYAACIAACIAACIAACIAACIAACIAACIAACIAACIAACDghACHcCRgkgwAIgAAIgAAIgAAIgAAIgAAIgAAIgAAIgAAIgAAILA4CEMIXx3nEKEAABEAABEAABEAABEAABEAABEAABEAABEAABEAABJwQgBDuBAySQQAEQAAEQAAEQAAEQAAEQAAEQAAEQAAEQAAEQAAEFgcBCOGL4zxiFCAAAiAAAiAAAiAAAiAAAiAAAiAAAiAAAiAAAiAAAk4IQAh3AgbJIAACIAACIAACIAACIAACIAACIAACIAACIAACIAACi4MAhPDFcR4xChAAARAAARAAARAAARAAARAAARAAARAAARAAARAAAScEIIQ7AYNkEAABEAABEAABEAABEAABEAABEAABEAABEAABEACBxUEAQvjiOI8YBQiAAAjcdAJRMbE3vQ/oAAiAAAiAAAgsFgLhEZEUF5+4WIaDcYAACJgQwO9nEyhIAgEQ8ImAr78ffC3vU+fnoXDIPLSBJkAABEAABBYxgbJ1m2jb7n0UFhZG3/n61xbxSDE0EAABEAABEJg/Ajl5y+mTX/gKNdRWU8VHJ+jcxyfnr3G0BAIgEFAC+P0cULyoHASWNAFffz/4Wj5Q8KNj42j3nXeT9C82LpFCQkPprZd/7fHvIwjhgTpDqBcEQAAEFjmBtRu30s47DlBmdq4aaXtr8yIf8eIYnngerS/fqn48XDr3ETU31i2Ogd0iowD/W+REoZsgsEAIhISEUOGKleol37uvvfhL6unquCm9w/3rpmBHo7MEFsv1h9/PuKRvBoGwkHBanrGSoqNiqablCvUNdd+MbizZNm8Gf19/P/ha3t8nOze/kJ76/FcoJibGpmoRwz01COGeEkP+JU1AZqDWbthCSSmpFBoaRr09XVRfU6Ve7oDxtbw7bbiTp3DFKkpKTlFZG+traC4Bs7i0jBISkxyqnpycoJrqqzTY3+dwzFVC+dadFBRkiczU29NN169ddpWdSsvWUyyzd8fGxsboYsVpPatxrHriHBvuMJmjikV/eNuuvXT3A0/o53FycpKqr5qfR5mxzcjKcYvJmdPHaWZ62iavs+tv5sYMiwFdLOTW0uTEhE2Zhbzj6fXv77F84qGnaM2GzarajfxZ/Prf/DVNjI/5uxnT+gqLV1JWbj7fQ9NoamqKujvb+f55jdpamkzzL9TEoOBgys4poOTUNJIfiUY7f/a0S57zzX8xfH7Eay4yKorkO+fcxx8acd/y2ylpmVRQWKzG0dRQx5+Fxlt+TP4YQFToMipKtv1sGeu93j1FI5M3jEmLclt+ZzY11CrPJxngipVl9OTnvkw/+OY/uLzPBArGQrh/ye+NevaQ72M2i9USklKouGSV0+FVX2MRaxGM39P733xff05PgA8HPPn97EMzDkVT4zMoNSGL4qOTaHpmmvoGu6m1t4EGRzz7G86h4gAmpCdkU0xkvEMLN/j3/8BIL/UMddEMj8VdExE4aJnl78/B0T7q6Gtxtyj5g58v7bvdURcZd6zeT6vyNqoca/K30DOH/52vhSkXJfx3yB/8/Ncb72tatmwZJcQkU3xUEgUH2f5GqWu/5pLnfPP39feDr+W9p+y85IH7H9dFcPkt0NJYz39LtlG7F39H2p49523iCAgseQLl23bSvnse0T98GpCZmRm6cuEsvfDsj12Kcb6W19rzx/v+TzzMIk6+qurNl5+bUwg/cN+jlJ6Zbdq0jL+nu4sqL1bQ268+b5rHmJidW0APPvFZPam1uXFOIXznngOUPysU6AWdbHSzl5RRCN9/70MkbXpib/z2V3My8aS+hZj3/sc+zT8Gl1Eriy6njr3nURfXsTexJoLL+b9Y8RG9f+hV6upoM61n1dqNtGvvQdNj9okXuK7x6VGbZFfXn2SUPlRfvURyLTvrg02FN3HHm+vf391NScvQq4xicTGL7wV116/qaYHYSE5Np4P846V09VqH6kUQP33iCB1+/QWX91CHgjcpoWTVOjr4wOOUwiK4mYlA4WpiYb75L4bPzx0H7qe0jEwaHBxYdEK4iOByPxY79PqLEMJnP1QbssLoU+WOAsjsYfqXIz0kYvhiN/H8/t43/o7WbtzCjwLfo36LZfDvsfsf/RQ9//MfzPvwF9L9q7e3h1p4kuDl3/ycRoeH5p1FIBtcV76N9t39gNMmnv3pdxeFEO7p/W++rz+nJ8DLA57+fvayGZtiURGxdBsLoMVZZTbpsjM1PUnnak7Sx1UfeCQoO1QUoISdaw5QGovhzkxE8Nr2q3T80iEaHhtwlk2li3h5cPNjep623kZ68dhP9H1nG/7i5237zvrlTXpSnPV3a1R4NCUyk66Bdm+qcruMv/i53WAAM2Ym5dLutfdQUqyVo7G5n7z9dRodd/67ZL75+/r7wdfyRjb+2s5mZyox+dv/P//1b6mz3f3JLPs+YLFMeyLYBwETAvnLi+neh57WRXD58MkslJh4Npet36REHpOiKsnX8s7qXQjpMn4RhHbtPUAPPfm5ObtUvHKNTZ60jCySRx1h80dAxNjN23dT+bZdtJw9dD0xWThDJoQ0j/4TRw+rP8ZdCdDyeQmkSV9KVq2l3/ujv/J40iOQ/TKreyFc/xJndnx8gm7cuEG1/ERHoEVw8Z5+/NNftBHBRfyenvX8F4/qHbvvdHkPNWN5M9Jk0boH+T7nTAR3p0/zzX+uPt1Kn5+5xoLjS4fA4vcFtz2XF/hJkx9++5+ou6tTHRBBbTvfN+fbFtL9K5GfVJTf35/94h9TbHzCfKO4ue3x9/dStIV0/XnK35vfz562YZ9fvFcPbHrERgQX8Vs8wsVCgkNp04rdtLX0DrV/q/0XFBRMRZmr6fHbv6g83V31Pzet0OZwanwWSagKV+ZPft6076pv3hy70nCWJqbG1e//+o6qgIvg/uTnzXj9WSY8NJL2lz/iVAR3p6355q/1ydffD76W1/rhj/dg/ptSrL2txScRXOqAR7hQgIHAHATWsmdG6Gzsoevs7ffai8/S0GA/rd+0ne558AmSG/3GLbepuI32YR2kal/Lz9G9eTssYUd+9r1v6O1FcXym5UWltHnH7YqPMOjp7qQjh17T89hv5BUU2STJDa2ExXH5cTuXjY2N0y9//C2X2aZmJyi0TK/+5hcUFm77Q2fnHQfV48WS54Vf/pj6+3q07Oq9u/PmxN606UQAd4ze/Z7GGRXP7oTERNW7lqYGOvTaC3P29PiRQ1RTdUXPt3vfvVTE8U7Ffvvr/1LXjHZwfMzWG1xLl3f760/Oq4Rc2bpzrwrdExkZSfc+/JTynjOWW0jbvlz//hrHCT4fZ04dU58LT8MaedMHuWa0OPJ9fb28oMlzJLHJQ3lx1S237aG9Bx5QC61u4omZC2dPuR1qypu++FqmdPU6fUJUfoSdZJby6KDRhgb6jbsO2/PNX+vAYvj8aGPB++InUNEyQbW93TYD3ZYXQXetiLZJW0o7Y6Mj9DrHB3/6839I8ttp3z0P89N456jPjlMgmdys+9fIyAj95Dv/ooYWFRVNGTm5tPW2vZSYlMxPNeWpydYffusfAzn0ea37PC+K2lhXbdOm/M0hv7OXst2s688fzL35/exru2UFmykjMVdV08+hRI6ef52aumrYmSWYSnPWsaf4XRQaEkbrlm+lquYL1D2wMP/+GZ8cpRePW723Q4PDKDk+ndYX7qAEDvUSERZJe9bdS7898TOnyDKTLJ6kWoZgZpCVzE9EcjgLZ+ZPft6076xf3qZXNlRQdfNFDukRSsI00OZPfoHu61z156YWUjQ/XSHW2d9CZ6qOk4TXMdr4hGum883f2Ddffz/4Wt7YF1+2xZErPDyMeDbHl2pUWQjhPiNEBUuBgPFRvCOHX+fwC61q2B9+8I56XFUC94tXY15+EdVxvFt787W8fX2+7t+Ytnroal6Z7tQ5zV6cjfXXbbJevXROPcr98FO/o9ILWBh3JYRnzoZkqb1+jcRTXrwRC4pK3BLCJSaceLB6YmYLAW7YvEOvQjyZJf7mUrJkQ2gMV57cZkxKWAgUEy/vV55/xiGet1kZeWTZeN42bdutZxPvNnc9ks2uP4kvf57F0y//6VdZoIxVcVQLCktMP4d6ozdxw5fr35/dlgkHV5MO/mwrjz/nmr3K18y1KxfUrsR1P/7e2xQdHatC58i9YHlx6YIWwhNm11aQAZzmkEIyoeCNzSd/rX+L4fOjjQXvi5+AxP8embR4LWqjHRy33dfSl9J7VeVFOstrachTXWE8mSghU46+88a8IrgZ968b/JvDGD+/prqSfzeepC//yVcpPiFBffdHREaR/LG+GEwmN+wnOFasXLsYhubzGG7G9edzp7kCb34/+9quCL2avXv2JWrrbVK7ElJEvFMjwiNpW+mdShjPTslfsEL4FPe3d9DW6UDie9e0VNITe35fCZRZybxuS1w6j8E81Ic2ISCe0HmpRezEFkTZqQUuhXB/8vOmfe3c+fN9anqKQ+I4D9/hz7b8yc+f/fKmrrho61NH565/SLVtld5Uo9jPF3/7Dvr6+8HX8vb98WZ/dGRYCeERPCHuq0EI95Ugyi8JAiNDg/o4RUwwmoiBicmpKqm723wm3dfyxvb8sT0xMa5X4w8xTLy599x1n1qAMyMrV6/bfkMWyouOtty4ZJHR2Lh4DjGQTtm8mOJSsaKS1eoPWFksMCIymoYG+ujcmZPUwAs/3XnwQYXh0vmPOQ7uSVMkcq2VrStXcZ3TMnPU0wi9PSwm8wTBB+++aVpm78EHKNNwXlI5HI1msljiqjWWhVO0tE6eHDCL9y5xntNny/ZxbE6zSQatjvl8F69meWxLwmuIpbOXuNmEVEJisvIeT03PVIscSt5+9lBu4gVjRUhwFddZ8pat38xPgWzjhR7TlTdeP/+h+tHJo+oP76233SFZlEBx5eJZtW3/n7fX/90PPklJvHDWAF8rh994idbwo+ByHWVk55HcWyQ+2ntvv0q9/DSGmW3YvJ1Wr91kdog6eVLv7Vd/Y3pMEnfvu4dy8wqpt7eL2jiev1wvkfzjQ9YEOMzxjLfuvIMklmkUi9my6OVr7K1ov3BpUrIllt7w0JAughsbFI9GLYZ8Sqo1frkxj2xLWJLb9txFKekZLHwkqXZksTCZZDl94n377Pq+r/z0inhjGf/TbNjwvaClmb37wt9Yn6/Xn7Eu4/Zcn5/S1etJvPXFThw9pP54lAWMZQIzJCSUr7sOunz+zJyTAqnpWSTrBUh8v7SMbPW5EWFLPn9n+TvE7GkqYz993fb2+tHa9fX+IfeONRu2qoVi5SkyuXZlfQZ3fVq85eev86dx8PY9gv/i2FscSbkJoZQWHUJTMzeoc3iKqrom6YPaMeLdgJosvrmjIJxy4kIoKz5UtdU1PM3tT9BRbt/gH2Daj4zYYNq9PILSYoIpLpwfzeVbweD4DHUNTdEH9WPU1OdapPe1vLFT8mSiCOFihfxdEEgh3F/3L3GSkD7H8/dwVHQM30eI5A/afv4tIcK+/IHtqcn335lTH/BTRfep7+SSVWvo/JlTptV4+vnPL1xBsj6N2Fv8Hak5wOzkMID5BStU+rtvvUytzQ1qWzy15bdUD3+u33jpWZUm//nz+0ev1IsNT8dv38TNuv/5ev35i7+v37/e/H4Wb9rMpBzqH+5lD9Q2Kssvp8iwKKpuvUwV1SdoRfYaWpm7niLDY5SX98kr7zjE+ZYY0GLD40O6CG48t3Vt15QQLmkJMZa/ZY3Ht6/ax4tVxqo+nL7q+DsrmWNObyy2PKVQ1XyJ6turjMW5/7lUVmD5/Vlx/aT6DVWQWUq5KctVWJbeoW72UL7ktagoXs2VjRUqvIs0nBxrLoTLQo0SE1uspbuOYiPjOMRFOmXOesurAyb/+cpPq9Lb9reU7uGQL4k0NDpIH187SvnpJfwqUouejvI57WIP/jNVxzgutfkaCZJ/RfZqrRs2792DHXSWvZqd2UK4/rS+SViStYVbVFiSOF48dXJ6Ql2TTZ21VN1yScvm8O4rP5sK5Utr1kYnhrVNl+++8DdWnJNSSCvz1nNM9xQ1aSULxV6s/YgmJscUF8l7uf4sX9v1xmKm277+fvC1vGmnPEgcHR1WT6ZH8sS3rwYh3FeCKL8kCMiCghKHUGwd/zFr9Ipu41Vq5eXKfC3vqm5vjhmFqnEOd+IP07xwROiOjo2jYV7UzN4KS1bpSSKEiwiuvUTYsg9RomdeJBuywN72XeJ5EaSPSMKM5OQvp6uXz3MMZYu3dXOT+ReZeMs+8vTvsiBou4CYxCteUVpGRfx65vv/TlNTlvj1WiOr122iNBYPzUy88u3NPpSMdlyebBABR6y7y9zjQss73++D/b16k/IHm73JHzH3PPQkxfK1abRknpAoZK7r+JHjX/3kO07F/QP3PUY7bt9nc+6S2DtYxMBKfiqitMxy7upqHZ8I0drz9vqX/kk4GxGSw8MjWHjeqlVJEiNVhMUSFiuf+9n3TBeeFQFN659ecHZDJlZcCeEST17KDvT3U/lW8UC0CEhpPJkgIui2XXuVACHVJaekcoikMHrume/bNCMhUMRGnCxmJvfTZ37wTQ6VEq4mhmwKz+6IyHAXnwNtIk3LI2OXe7OEn/oNLxxn70En+XzhJ3zkGtEsgXlrlsTjLebPnL3V8dMuxs+gL/y1uv1x/Wl1mb27+vwk8nWuXT89POkmkz5ajD6pS91/Vq5R6w04W7wvr6CYnvjcl/nzZ3msVOuDhDQo58kV8ZR79qf/GTAx3JfrR/rq6/3jE498krZwCDHt/il1yudF7ukyiTeX+cLPH+dvrv7NdXx1eih9pjyO4iJYQDaYiOLl2fxI+/Io+o+TfdQ1bH1azZDN583ilBD63KZ4SoqybT+HBfENWRG0pzCK/v1YH/WMmLd/Z3EEPbImTom3Dp1JC6ddhdH0euUQvXrF3BvZ1/L2bTZwyAxZ40Gup7gAx8b2x/1r/70Pq8lO4/WvjSmHHSHkHi4LJotjiafW2W55QlPKyRNXZkK4N59/CbOn3fcunf9IF8JXlm0gLcRZ1dWLuhBeuGKVyt9Yb/uEoS/fP56ycJbfm/Eb67qZ9z9frz9/8PfH9683v58zErM5tvcaGuDwC+uWc4hODmEilhKfyaEtQqi8eBe/W+5pSbGpSlg+cv4146njNEsZZ0KpeFm/eOzHKt+IiZian17M4lsq9Q13k5kQHhUeq/oojcqii/ZCeFxUkn68b7iHNhbt1PssZWTRwaLMVXS54QzZ912Ou2NDhkUyY6Nt/z7SymdzWAvNWroaWPRPUUK4eJBH8OTC2IT5vdtXflqb3rYv4ThksVCZyJDzX5Zv0SKk3oToZJ5oyFcx0t84/SyJh7y9JcWl6Pztj8X3t7oUwhfC9Sd9Lsgopdt5gcoonvAxmox9Ze4GKs1bR4fP/JbPoaM47Qs/mWAS0V2zuEirR3g8h+Mx/s7X8nQy0xl+el0zX/hrdZSX7KItK+T3o1U7EEE8L61YhbmRe4RYc1e9W0K4r78ffC2vjcvbd01vioiIUCE2jZqWp3VaiXpaEvlBYAkREK/PwQGLsCthNVx5PZth8bW8WZ2+pBk9wsfGzL/8PalfFoBJYI9VMYlDayaCy7Hc2fjgo6OjKmZ0U0ONJCtxURY7XMwmcdRvu32/LqSKN7X8wSYhYuQPWk0EFwZdhj/sNCYiZj/9+a8oEVzCklRdvUQnP3iXLlbwjPCERfiWH/zioWtvN/iRQvHg1l7acVnwVUszvkvsbzOLi7P+COhqbzPLctPStOtPOmAvhsofII9+8gu6CC6xRmuqKknGKezFEhIS6f7HP0OysKO9SagVowjeyWMX8aqq8pJa8HHVmg32RUz3fb3+ozkmvwgGcq4unftYxYaVz5tYVFQUyUSLWf9H+VHxXi5jfHm6gKlMvjQ31tIxDmUyPGz5sXnbnv0cVqiOn0R4iwYHB1U/VvPTCnI/MDNXDp8SLkXihtfzkxH2Jn8Ii1eXJoLLvVjOnwgOsuimWP7yIjXRYV/WuO8Nv4P3PUqf+eJ/11/ahKjUe9cnHtHTjXli+EkXo/nK31/Xn7FP9tuuPj/GvCKCy7Vz7cpFdf8y3itkgqZ8205jdrUtkylPcUxjTQRvqKuhU8ffV+GwBmbjqa9kD/MnP/slh7L+SPD1+vH1/iEe2UYRvMNw/xCW4inuyvzJz5vz56pv7hxLiAiiz2+J10XwTvagPtUwQv8/e+8BHsd1ngt/IkH03jtBAATB3ptYJJIS1ZslWXKJaxwn8c1Nbpzkxs9tyf+nl5s/vraTG8d23GRbVu8SSYkq7BJ7BwiiEr13gOX/3rM4s7Ozs4vdnQUBAt+HZzEzZ059Z3Z29z3feb/LHQjY66ohm720v7I2kQmSQGoMLk9C1Cz6vU0pBgnew/Iqx64M0cU2BAxz1ZUZH0FfWsNEt03VabGzPEjw7qFr9HH9oBpDU+9V5dGPcveXc8yUVG//IqflbbrEE4bdvELIFYsgJtaTHLDL7yTN6fML9++mO3cak0CY0MX3FzxD8JmkDe8RrBgJ1swruaB7bLVQ3//4jobvSLCUsVVN2IdHuzZ4+WpLZq1ymK+VWaF8/ui6nWxDHb9uc7Kff07vPz2OUPEP1+evk+/PIOCudNTQ4Yt7SZPVa8vu4LRqOnThPdJE8IL85Uxoez+DNAa+tpBLgW54B3sIT6SBBL9+4xpdYo/2MzWfsId6ndHcosJVVJztih1kJAa4kxibYuTs7Xc9F42EsZ3ctEK1N8QaziArm9rr1THIxXz2TndigeDntP04JmVB+mIyAR7wFazzrTW+4em+Zem9xjPWPJZhXgGOSQzzy0zUmvP62p/M+y+eiehtyx80SPDewW4lZdPQzt//x+RdCtJLaNPiu311X6WHgt/Ghdvpsc1fNl7AX9vWpfcb6eY8UaxVbzan+GOiZk3pFoMEb+tpUpNGlxrPqd+f8/OC506cfn9wWt6MTyj7WFGmLRh5X13GvA3+aWkuLfuCwAxBABrHh/e/RzvufURpMj7y6S/Q9//P3wTsvea0fLhhNhPhWJrqxEC8PfDYZxQRh3qafXjHw3s0h6UcYFrnseL8Wbr3YZVEWIbqT97AlevW/A+MtOwJRrCLA0x+ZNL0vOPuB/j8GBB83s4jfMv2e9kb2BX08/lnfsgEuNuLsGzhMvrcV7+hwIHnzv73d6l9/e97//j/6F0l4/MH3/oLdQxt7p+xB3mgFhntah/5rQECA61jIvKlZ+awTuo6o+oGi+b7mo13GB6s+AFuDviKsl/9T3+i7t8cllRB8FfojpsNkwvaix8E9HPseaxlHOAFBhJUnzeXM++H6/6vYxmJZ374XUPfG/3/8u9+U+mjQ7bGrv+418z3G/r1R//r742JAXM/fe2DsHvpVz9Wcg7w8F7HQS4xifDKr3/CnnJNTMDPUhM98BSGDI+dNI2vusdLv+Ou+wkz/zB437/wix8Z44en7FNf+m01fpCpuB7mwKzWuoPGz7QU0lpXoMdO8Q/H/eevr+O9f6xlEbAOOGq7+4HH2dtzpzpcu/FOOnponz6ltktWrDUmMTCR8s5rzxnnMWnwpa//IWXwihVMBk7EyiCn9084nh/aExYyYgjQrA336xe//gf60HYbbvyCvX62nQoicWdZDMXOcTHc+6sH6Jcn+gwZEpDkv78lmeVGImhuSiQtypxDp5pc5GMQTfjNejvLoUTMclHcILB/dMQ1aYdCiUySf2tHipI6KUmLZMmU2dTQ7Slxsjg7kn+EuppA/39+zHMJ+qNL4owAniDCL3e4Jud0p5yW1/VYt70s65XE3uA6kLv1fLiOnT6/sNpDfz5CBusX//E9j649+tQXjQCQ8A4/d+qYx3mnB07e/5BtSc/MUgE50Q9okGNVGSZgERcodUwWEecSk1yrhdpafTsJBP35g4odmpPxo+nJfv45vf/M8IWCf7g+f518fwZxuffEayx/0U9zZs9RXtX4/rX3+OvUz97Qs5jMBTEO7/Ak9hL2pZFtxmKy9l/48IfU2ddmNL9y/iaWZtmmjpeVrKeqIHWX46ITaWGBewKtpbvBqFvvAJ+s5Hx12NzlIsDr2y7r0wRtdH/yGkbGEHfC1T7I33c+fs4ggDH2TzFRiwCOGUm5/Mrx8go/yxMOeJnt83f9Z4rnsoHaZN5/q/n+gCwKDOT/+ydfM8aPVRAPrP+sGj9kgk5WHVKTHL7GFSx++nubr/oCSXeK/9J5a/nz0zXBiwmQ90++bjhw4Xrj+ps9xQPpE/I4/f7gtHyg/bTmg6yiXqXbzbKo+re4NV+gx0KEB4qU5JvRCGy75yH2CHXPNmI5973sffnGi78MCBen5QNqJIhMw8MuL1IU6fchV2BXXRSTUfc/9rRxKjo6lnLZ2yeDfyjA8MUMEd3tDBICmsjVRCU0Fzs72tWPDNQznoEM++b/+Du/2X7xo++yp2+N3zw3+ySW0sIbBdbW2uxFSoK43rztPiU7AW9laMeaDR4puOdg8Jg1k+BIu3jupPKsgkzGbP5x5s9yx4KVIk+HD01pf+X1OQQuvdkWwbIbi5auMpqdwzIdmdn5Lt3qGNcXpepLFV7BT9v5h+mhfazFy/fnR++9ZZTHDu7Bi2dPkA6gmp2X70WEa29ZzDy/+cqzHh+8IF3hHT6eV2c47n/0d/frLxoksO7/8SMHDCIyMzvHq//I59TwnND3ZXOj64cE7lUdbBU65dp8eYTr88FuM8d06Uc4uOarvHTeHNcAS/QO8cqIHWMzapBK8UeEB4vfYa4bAYG1gdRZNOa1CF3edn4/W82XBIw1X6DH4bj/0Fao7x9zPzERZCbBcW7PWy+piSgErNN9NZfJ5WsC62M933dZ495s8Cw5yLrjDz3xeeXNVFq+mD7hFVjhNKf3T7ieH0NDw/Tmy896DA336olPDvl9foQTv1Cun0eHQziYmzJHlRrk4Je/PukmwZHYNXSd3q8aoCeXuX6UF6WGnwhv6rlKr53r5ec/0XuXBj1G0MMa34drh+iu+XEqPY89061EeAxri2s71zKid43tK2f66e0LrpV1w1fHXMyNs0ROy5uq8ti9oXzRPZKm5IH58+DypfNefXzt+WfovbdfVekDA56TDF6ZQ0hw8v5HbAwQ4doLHN7tIPXreFXL3OJS43mHyWEtWdfS5P4stHY32M8fa/lQjp2MH+1N9vMvlDH7KhMK/vozzcn3P2t/gv3+DC9wkOCwtm6X1zY0ikGCwzp7WtUW/yLH5FOMhCm0AyLPTIKja8cr9zORvYLg1Q25CV+GCYC89CLjdMSsOZSalElLi9axtInr+39tayV1sea41bJZZz1qjsuZQnuhAzt4SUNeJJt1zCfSwtX+gbO7DRIY/cUYTtd8bEwkQMLGTh7F6dgm8/6DRzRs5OowfXT6LY/xd/S20rFL+2nz4ntUnsyUXL9EeLD4gVivanR/ZkGiZUH+MtXWwfPvUrfNvTYyOqzOh+sf9OFh13hl94GzewwSHGlY2QBJocVz1+AwKHP6/cFp+UA6C+7jrgceG8t6m1ptnMIrrzAJjcnoD/e8EUg1fvP4Z0z8FpWTgsDMQAAeh3fe/aAxWHwZgtfj2o13EEi3sxzYEIYvyFgqD2thUkiT5E7LqwrD/G9k2PWgBjGIQGmBGh4+6ze5Zu6tZUBSgWT0FShw3vwFRhFo6GprZNIaDzbopWIJpibW9Hnz1qWH6Sk7YD6PfbN2rfXcZB2XmLTRj+zf69UN6FtpjzMEYLTairUbjSRfEw3mIH5GZpsdeF5qa2+d2GWQup1wbaOiIumpL37dZ3WQzHjthWe8zh9hGQZ/BjJKE+ExMS5CxJxfS130Mmln935pbgIxvN5cxGs/HPc/3mPm+AS6ER3EC8dx8YF7eejyYdl68z9hqRaVJCWPLTnnCSIQp1bTE2tIRxBaXxYKflWV7i/BqBfLzLVdqauhs6eO6sMJ24bj/kPnQn3/mAeGiTyrwSOjgwNmggiHRA+8JrWGH/LCgwPW1d5mq6lollfB52i4iXCn94/j50eC6zOrm0k1My4KFP433vMjnPiFcv10P0PdZia4iPCm3lEa8XS2VlUe4ECTV6+5HiAtE6ARfqJxlPDyZWebRwwiPC7KTXrr/K197k7vKI2ltoFrVNvpTkOQT5D8vsxpeV/13irpXR1ukm7V+i3U0damJu91/6GzOpHxYZy8/zv5mQVDoEkYAm3DmpsaCEHHsYIFlpNbaHi911tWpKkM/C+Uzx9d1snWyfjR7mQ//5yM3Vw2VPzD9flr7ku4930/fcLdkrP6uvo9nXxQG36HghwHER4TGad0zq9e835eR0ZE0UMbPu+zA5DM+ODkm7bn80zSJ1dYR1lbM0vCgAgHgQzvaj2xoM/72n52+39ij+oEr9NVTedo99GXvNLD0f7o1RGCnrvVukxpMeycNhk2kfdf4tjkSDdPWgxzYEirtXS6VwD4m0gJBT8EqMVLW0piht6lVtZjb2irNo4naicu2vX9Efe3lsIxt4VgqdPVYmLjqGBuse3w3mKnknCoCAgRbguvJAoCbgTMmoV73nqF4Pn46d/4LfWl9/5Hn6YrddVKk3gbeyQi8BXs1LHDRgVOyxsVhXFHaypq/cNgqsaXSRi8YkCMw5obG+jZn35fedeqBJt/+YWuhxk0jS8x8aittvoSQVcYNp8DrvkjwiHPcP70cV3UdjvgUOrFtlKHiXoZD77wnWTvYauBXNPLm6361shrJt8wAYOX1RISXQTo4Dge/qkmrcsW/jE3HQyeyRWsMf3O68/bEqUYIzy21mzYqn7IxjMxNWtsqTzO2ZHfSNeml8fpe1+n6+0wa96PZ+G4/30FBLEL2DJef26l85BdgennlrXv/exprA0SNL7sVsUvHPefL0yQHsj7R5f3dQ3qWSoFy3/tTH9OJHPQzS/8lrcMiFnXHsFWw23huH+cPD/0s8YsSWYe43jPj3DiF8r1M/c1lH39qPVFFg9fJfqoOrxeVNZ+og+r8lj6hD2+k2NmsRa4m/BOYHkWf3auhYla1gVP4kCfRamR9F/vTKMW1jlvZH3wRvY2P9004iWHYq7PaXlzXbfi/rlTx2nrXQ8qeSTId0HGrYtlXaCljRU1lSxXFm45FDNOTt7/8IaG6YCkWhMc31PhtJCTV6AcOLSDQS8HibebLEcdk/X542T86DdsMp9/rh44/x8q/hP9+et8ZLdODaM86WVnjR21Pr8/2OU3pw1ykMsq1hw/fH6vLVGKvDmprhW1IBLNHtONHXXs4btcVVeQWUzna/3/vtTt4vevlqvQadj6kqgIR/sj17xXI6FNrZON/elos29zyYL48rSG5rs2BJD1Zbcqfvr5c9XH9R8Z8Z4c8IXBrZbeyZPocDjVGETxym9wGJG8Gvy+R59ip5sYwspcJ+b7jnFSq5QVBKYRAvlz56nRwBMcs08gGg/v30sbNm8nkI8Pc4C9wyy7MJ+lP2AI4PbJoY/UPv45LW9UFMYdLY3i64uhr6YQ5Ojv/uyb6vTceaWsTfxH6gEVG5fAHj3ensy6HiyNzWb9ZRg0yddvulPt45856AF0wn15PCMviPBf/eT/YveWMr2sto/xGzCRdnoQGhsct7d5z+4mseSJNrN3uU4zb7V8hTnNvJ8ypmkJLBvYozVU8/WFL9T6AikHwu6VZ39iZMUYsPrCV3AqnRGyJJBeSDbhqM/djG247v+b0VdpY/oiEOr7JxBEdnPcg/EsPj6B4k2rY8bLP1XOT/bzQ+MwkfgFcv10P261bR7rfn+Vg3VmJYT2kwcE/vcPddMXVicqLXOMH5rmeC1nB+F72f/hYuswvX6+nyrbmNW3mNPyluqMQzOZbyROwR14e7/63E9VwGMEpYZhi9e8kjKeoN6i4qLs46DLCJg8layl0SVzAkeFrJw8jrHiCgoP5w84LYAIxys1PUt1u4ul/qabTZXn33TCdTK+P09l/I5XHmCJlAN+uwjCe9cnzxt5IC/T1d/JkjH+5ZQQPDQz2bWSD3WU5bmkLVBRdKRLLgX7uWlzAybCj1XuM4I3ghBfWXI7qrC1iWjftiFJFASCQMDp9wen5QPpahPHnPvRv/yDR1YoB/z2f/nvynlw/ZYdQoR7oCMHgsAEIKClNuA9rb1t3371OSooKqE81lsGMZk/t0S1DGLOqoHqtPwEDMnQ2B0ZtZ9hDqRNaFXXVFVSUcl8NSGwAQ+kPW/aFi1buNTwHocMyr0Pf9o2X25+kW36rZ6YwAHhYD3dHbZDyTct/dEeSDpjLMgjfsGa+MdX5fkz+pTt1p8+Mgokp7hkJnq6u3162NpWzImD/S6NQpzXPwh95Z2I9Bv8/vIlveOrvRiOLv0wB7dFUDFYd1cXa2ifoQHTWECQL1nhR2NtbN2ffi9b24rgH8n+bKbf//6wkXMBIODw/tMthPL+0WXDsYUX6GmbFTHmumuqLpoPJ30/LM+PMI3iVsQvTEMPuZo57Ez2tXVJlMGkNayVPbmPXRmiXtYG15YeO5vuKInTh7ZbBMD8yz0dtICDeS7MjKT8pAjKZmI9IcrlrVaWEaW8xf9ydztLp7jr1pU5La/rMW8TxkjlYV5lN9UNHt+XKy/w6r+VTH6XKy9qTMrHjMX2wHfpx57+kvKy9iUtMhljrK+rVg4Y8ACF1nZySjrBKaah7rIRYwU/zPG9FtZh48gwGf0OV5tT6fkXrjEFXU+YPn8n+/tz0OOeYgUQsPFKe/DOO7lpRUpuBcOBDMq2FQ/Zjiw7xeWsZXvSknim+hMjBUS3PyJ8Ito3GpedGYMAAuHa2Wy+/0Ixp98fnJYPpc8og9VYiG+G1WUIXI1VwE5WRYeGXqi9l3KCwDRBAJqo8Ez98u/8MS/NiFbaqxjaOZbtGI+IRD6n5VGHE2tsqKcPmLR2GtQNnvEgwmGrN2ylfXvf8QgkqE7wPy0Zg2MEOLCaa5nZLKUxi2COUy3YpbW/wR5rAvXqqPfYQXQvW7XeqLL5iqdcSTbr6+plQdBW38XyH6EatHu1hEoX69UGa63NjUYR/Pi7FaycgxtqEryWA1z94Dt/69XtpSvX+iXCEcALgbASEpNtP3RTTHIzXpVzwky//zUmeJ/bGX5s77zfFRAFkz2HPnrXLpvtUlRk1LJC2If80HQzp/ffVMEDKzecPL+cjsNuKTPq9Hf/hOP5ofvt6/43S8PovHbbycbPrk/BpI0pHAVTxHHe0vQ5Bgl+tnmIvru/x6vOsow54xLhKHSV+e0zTaPqhWOIqyzMmkMPlMcpEjxy9m20YW40B+Z0Bc5EHrM5LW+uC7rFieNMsJvzT4V96OMfPbRPvdAf3PfL+bvPxjvuVj9q8T5csfZ2r2DX4/U9nn8MazMHUtZpehvK+x9SQj0cRweT5Yg/AU1wHGM1pQ6UjKXaetWenQa/bn+yt6GMfyo9/yYLv3B9/k7292df0mVzZrNsYPlWBW97VwtdbDjpAbX+SjVrTKLC4yQf+Ppcs+abrGNzgE2XjIjnd0TggveGDtbZ3W/vsOQLP39yHBhzuNqfLPzC1a4v/Ma9/8aCQvu6z3wRxOHq92TXgxUPCTFJrEnPkp58r2JCyGxJ8e4V4+Z0f/tOvz84Le+vb4GcM3NXt2ntvUAK2uQRItwGFEkSBOwQsD6EsWRj765XPLybP9j9ul1Rlea0vM+KQziB4Hp73nwphJKeRbCMtfnuB9SPmBT+obDu9jvo4IfeJFZ+oUteZmRklKVV/tBLK/F2/iF0z0NPqMpLFiya8kR4ZFQ0LWUPYsxKwstpPNNENiRQ8AFiDvi3eds9KsAc6sCqgwb2QDKbmSTx9yPPXMbXPq6D7st4Eip2dTQ21ClvKBD7aWNLge3yTaW0rBy3l8f508dsuxY35nFve5ITuzs7KJuXRUOXbMuO++i9t18xsiawp/mSFWuNY7ud6Xb/243RXxo0vEHaYCLBzvILimjV+s3q1LEj+72y9LHuaiovSQfWdqZ1W3EOAU2nmzm9/yYbD8gFZGbn8PV3rYy52f1xcv+E4/kxNDTIz45Iik+wv3+1dJYvXCYbP2u/gv386+TgkjmszQ3PazsDEf2fN7kkM/bXDNAzx/wvddd1RATwA6iAZVG0Ha4b1rse2/hIUNrBG+iUs82j7F3eS3+6zeURnBHvbm+8Gp2Un8tB3PVneTevtAjGgr1+wdQdTF44hOB5j/fn53/z91TRlNT0YKpQeXP580NbTVWF3jW2Tt7/qATvPxDheQXz1HeAeg7aDNOyKVgdlzgWNLO1ySWlojJM8L/ZEYHda07GPxWefxMM47jVh+vzd7K+Pw/w80kRaUym2VkqBwBcPm+DOnXq8mEvIhzlUxMQTDLBnoiLc3+uDQwG9uy268dEpeWkFqiqESzxR+/8I6/wcAc6xonywhV057IHVZ6CjGKyEuHj4Zcc73r2o4KBIe/xO21fdewW/jcefuPdf/1DvRQZH0XxMe77zAyHOUBm35D3RLc576243zPQxdI+eTQnIpKWFq+lE5cOGcOImhND5WMa90ZiADtOvj+geqflA+ii3ywx7NQHQ8y5YCV+rRXbu2dZc8mxIDCDEdDBF/FDFp6j2kBQli10a40hfdOd9+jTxtZpeaOiMO6AUFrNuowlZYsc13rUpIe+duOdXvWB+M3IYiFNtpbGetuHVuWFs0Y5aI9PZYO0yH/5b3+ttOG/9Nt/SE987jfH7W5rsyvgUlRUFH2FddXv4MkDEKqf/co36Patdxnl7X7Qmj1csTTXaouWrqJv/cU/03/7q+/Ql37nm9bTHsdmjWz8CA3WsPyoc0wDE3VB032qG7x5tMEj3s7Kl6y0SzbSTh8/bOxv5ev25Oe/RpjA2H7vI/S13/sWS9fEG+etO9Pt/reOL5BjreEeFRVJW7bf61VEk+A4Ac13q3WOEQ8g06Ena7WVazcZSdMlAKwxIN5xcv+Z65ms/caGWtU0ggYjILLV7n3kKfX8wjMMz8Zwm5P7JxzPjx6eSIMlJSfzd4h1HsPDss6F4zx/Jhs/c4dD+fxrYjkSWFocNLW9ZaS2lcQwqYtAY0S1naPm5rz2e4bc3nwLWaZkPOsbdueP80F4ry1w68Ta1fc7GxPpr+5Lo7+8N43lULzJx7hI90+pa9fd7em6nJbX9Zi38xe630dmT1NzHrv9UK6fXT3BpH3ld/+Y/uTP/zf98Z/9A68gZEF1i5njxEB2JBjDd9iV7EUOGxrkQOwX3d8ldT1O3v+oAwG7YFrCTsuf4H2JFY7JqRmGfF1dbZXKO1H/+vvcRE/x/IUBNeNk/FPh+RfQICcwU7g+fyfr+3NXn+vzJzIiihYXrfZCatFcd1pHr+teN2fSxDA8bxdZymMybr5Jc7u1271q1FzHZO1HzYmm9ETX6tWW7iteJDj6Vd962eheDuuEW82M36K5q6ynyZxmxS8c7Xs1eIslmPEL5f7rGvPQx2ROSY43Z7GoyH1NOnpabjF0xu/uxfpTRqYN5TvojuUPqHtueckGenzLV9QElZEhwJ1Qvz/o6p2W1/WEuo2OdUnZIeacU4twWoGUFwSmOwJtTGLqQJjb7nmE4H04ytra5YtXUCHrhJtt2ap1HOH2gkewTKflzfWHYz8xKYW+8cd/TtHRUaq6C2dP0jM//G7IVX984AM1AQDpiPTMLPbs3GQsfUWlC1iaQnvDQ2/RzkBedTFZAHI1J7/ILsuUSVu+ZqPhwY1OLeD7APImdkEwdac/OfQh3ffIp9UhyKDt9zysT9H5MycURvhCaeelfYV/bCHIXWxsLE+8LKW7H3iczp06SjH8QYAfZus2beNr6fohf/qYm7A1GjDtaBIbSeVMoGMyBwFQtbUyCWnnkavPY3uUx7LzwcfVNX3w8c/Rv/3zX9lObpjLoN9Fpe4fwGZZlRVrNlDZoqVG9nfffNmR3pdR0dhOQ221kbR+8w7u92yCZ3hdTZX6UQ5iGwG7/NnJo4eZwFrP+C9R44aeuFlTHJJIC5essK1iKtz/O+57lGZHeH7cR0a63v8xcXG0c2w1hh4AJqyOf3xQHzreQhca+OAe38b3PpaYX648r2RmFi5dqe5rNIL7/Nyp417tnfzkAJXML1fp9z36ND8jXPJJETwmeOPr53AnP0PwPJtq5hR/J/ffVMACcmHLV69X1//Rp79EH737pooEn8y6uoU88YngyfiMQIyNyxX+V9jgvrXer9Yx1nLsivNn3PeRk/snHM+PSzx+HTT7wU99jr9DZFIdyzThGb5x6w5eXZNhHYLHcTjx86g4hINQPv8O1AzSylzXZ9SX1ibT7op+utA6Qplxs2lFXhQtynSdG7l2g86wh7U/q+0aZfkjF2m+vTSO0tjLHGlmq2y/StWs6Q2r6XJtsf/gQng0FAftywAAQABJREFUEp1sHKG2/uuK1L6/PJaW5bjaRx47g0f7kmxXnq+y3vjB2gFV/2yurIylV9bmu8tXtXv2BfU5LW/tE56Zy1e7PDjxzDy07z1rFp/HoVw/p8+vvt5unjQvVX16hON1nOXvL3hfzWatnLnFZfz9Z7nR3yv11ca+dQexOO7c6fLcjIqKUd83EchRf788ZZqwNpd18v5HPVoCJY4/K83HIDYhk4LVSrBe9mw3r/ZTiWH+B/10OEfgsxT3AL7PN/P3Z7NNt+ef0/vPjE0o++H8/A3l+3MofTaXqWAirSx/KUs53Ua3L9pJ8KAF+QtJj9K8RQa5ODjST9XNFeaiar+i/jQtLOTfCyzLACIuOjKG6luqKIq3y4rXUUaSy9GpuauBOvvavMpPZkJ++jz1nR99aOqst+1K32A3B93k35+Mi51OuBm/TYt3KgmV+taqMfwW80SAa1LSDr9wtG/b6SASV5RuNDDQxSBHAouJiqNVZZt1stq2d7dQTXP4YrWY8Qvl/jtfe5zmZbl+o0HfPSMlh1o7ryj8ywqWUn56sep3V387NbRVe4xlKhw4xb+2pZIuNZ5V71ME2V1YsFK99NguNvD7O8/9G1qn+9o6+f6AOp2W99WvYNJjYoQIDwYvySsIOEJg//u7aAl7cSUkJKgfrNt2PuRRn0si5TV6/LNfVVqjdz/4BJNsl0l7Jjot79FYGA6K5y8wSHBUl51X6KhW/Bg4wUSV9vRct2m7BxFexD90tNktW9XnGpnwBREO71p4GvvLq8tMzpZ/hZuMf4+oHyWmJK/dgx/uUZ4IG7fercaIH26Dg4N0kUm7yguneVLF9UNQe+6YK0CAVnx5hgcyJEk2b9upXuY82P/44IfqZU03H8NbCmQ4AjuBWF/BpL7Zjh7eNy4RfoDHsmbjHerHXyZ7+t/z0JP02vM/N1fjtY/ruYnlb+xMe3Ppc+/vej2sRDjGrIlqeCRr/PSPSbRbxfI2xSaiXvfFvP35D/4P3c0TAEuWr2HPzhR1zfs54OaJjw/wJE6bTyJ8Ktz/CGSLFS12hmAj1mtzlgObhZMIP3PyE1pwdLkiQ3EPr1q3Sb3M/cH1eO/tl0l7j5vPoS9YfbN4+WoVdNflFe7pGQ7PvHc4iDF0aKeahQP/UO+/qYDFcX6PYPILnxEI/OsrWPLh/XuptrrSb5exqsZ6v1oL4PlqJsKd3D/heH58sPsNvnfXUDoT4IgpYv0OUXHhjDHZbh0LjsOJn139waUF//kHXe19lwdo07xYgo72/eXx/PJu9dkTPdQ56Kl/ac3V3HudPqjqV5rekEZZnR+jXuZ8L5/tNYjwhu5rtL96gG4viqWYObfR40sT+YVYAi4yHeWOc/DMFWNEvbkevb+rYpCW50VTIgfGzGWJl08tSdSnPLYN3aN0yEZ+xWl5cyNx/LzGCgpN/uK7QT8TsIFb8NfP6fMLsWPmsfcyvnOANN58507b7ra3tTKpv9f2HBLx3re+d3Tmw/vfp9dfeEYfemydvP9RUYspNoo6NsmfdHe2G0S4nSODR0fCcIDvxWdOfKIm4vFZWspSgniZbbo9/5zef2ZsQt0P1+dvKN+fQ+2zLlffdpnO1hylxez5Da/uZfPWq5c+jy2+f+0/s4ugR2w1EMinLh+i5cUbOehkBK2Zv1W9zPkgO/LBydfNSVNiPze9yOhHY1uNsW/daWESH0Q45F/SEjOp3eRZ7IlfBK0o2ahe5jp84ReO9s3thLK/unSLktWwKxsfnUjryu70OHWh/mRYiXBP/IK//0DKn687TuUFK1TQ0xV8H1rt6rVR+ujUW4TtVLNw4L/rkxeofX4zT2gtp6RY1+/PAX6vnqn5hHr7uwImwp1+f3BaPlzXBjKlMP09yEm9ni5iTmqSsoLANEWgp7uTnvvpvykSLL+wyBglPHFq2Pv75ed+RiArP2QvN3j6xsTE0P2PPU3/8S//qPI6LW80GKadc6dP0Fb+wQEvNHjgQefbqR3k4HZrb4dnchTlsA42PIAvnnMt58niYxj0ryv5B78vq6u5ZJCJViL8mkXTzVcdgaabl9/aBe/0Vw/I4lXrNitCG/idOnoooB+ih/kHHl6Q54hijfHuLtdyxa133W80pz2PjISxnV2vv8DE+QCTuPeq+8t8Hpri8MpHvwKxl5/9Me247zFFTOFeNZuv9s15IKkCLfyHn/wN9SEEUjI1LUPd/7700s14m+u6Wfsv//qnSjsapLsOjAePKtyT5xTpe8Agwq9dc3sQWvu367XnCS+sAMAPAry3Yes3b7dmNY7Dcf8blfnYuXbVvZzcrv+4T4OxQGVzAs2Htl/4xQ+p6Uod3X7HTiNgK9LxAwJEw+7XX+Rnhm9v7mf5Gbyx5i72oL1bBS7F9YPh/QvvQgRhhJd/KDYefr7qDPS+Dhf+odx/vvoeTLrdPRVMeeTd/caLNMyB5yANks6rqkDiaGvhVVdH9r+nno86zboN5jPA7ro4uX+cPj8wWfyT//tP9NATn1NyZPrLe3dXFwfXPqsmffWqM1/vKSf4heP66esR6uffM8f7qJK9pR9aFE+pFq3wOvbofvF0H3uJB/Yj9tcn+6m57xqT2zGUGR+hyHXdP2yt8iTPnuxjgv0a3TU/nqIiXM8NPD7ggb6PSfIDNW4i3PQoNapsH7hO//RBJ923II5J92gmk1x16AyjXM8B1jZ/8/wgjbofxfo0OS2PirB6a8OW7bwCbDsl80QsrKO9jT9331L7gf4L5fo5fX7hO8ovf/RdJQcHKRN9/+s+4xl+gVfGvfv2q+q7tE73t8V7vL21hZp59RJWYcIRwJ85ef+b47YAC/PnDJwX5pFrtVsHf68OxYL9/HmeP0vb21oUGY7gnVgZZbbp9vxzev+ZsbHbDxT/cHz+hvL92a7PSAvmM/HDU28SZEtWz9+i9MJ1nTc4EGEbp4MEb+yo08le2wNn91BHTxutLb+Dg/a5JwIRuK+u9RLtO/MO9fS7vg9bCwfTT2tZp8eZyS5vdRCk/saHc9qrFvIoZiIcfQgVv3C17w+H6zfcHzpW/XOUM5/3V48+Z1eHPmfeBnNdQ8VPt7f3xGvKo39V6SZKiE1WqxtwDsFPGztq1P0b6moEMz6Bjh1tB5rXXD/KjWe+6j1awYGm+QWJI3iGD48OqqrKTNJEvup2+v3BaXlf/Qo1HY6EmFjP4thdiL0Gh9RQ7bbFixd7uAdordM+03L5UCu/FcvN9PHfitfsZvY5mQP54I03OjzMXqTng27aafmgG/RTIK+giKUI+m09MP0Uk1NjCOAHHTS9EXjUiX3+a//Z8Ab80b/8b/Wjzl992bkFPImRyUEiBpWeci8vzZ0MgwTO/Y9+xiCWQWie+OQgvfjL/5iM7gTU5hz2is7JLVRBF+E53MQ/ooPzprNv5q77HzNWRLz1yq/pwAe77TNKqkIghSdOoHd/g/V0G+qrg74G8ErAaoSrCC5bX0O+yMOZAvetdv9hMnDuvPnq8kAT3m4VwEReu1Dvn3A8PzCJhuCwmBQIddXTZOOHa+Pk8w+a2ulxLjK5ufcaDfmeewzrbQD+Oj1uFiVG84qs0RvUymT6iJtDCKgt1JEaM4sSuA78eOpikrx76LraD6SCUMpnZuepeCJYyaWtraWZnmFyOZDJa13GvHVy/cz1BLuP91AWjwdxavD8x2oqTITezGd4qO//YMc6VfOHOv6p8vybariG8vk7md+fY6LilfczuyEownfk6nBQkMYxEQ55lavXRqijt0WRkUFVcItndorfLT58x913ih+I4MS4FMIEP+RQ8NtzJtuK0ttZssjljLX35GsEKRmzOf3+4LS8uS/h2kc8NC1pion0RlYUwHehY0cOjMuhWPvgOY1sPSvHgoAg4IEAlj46Wf7otLxHZxwemL1cHFY1I4vbBWUKFgjo5paOBSyFRjo8m8YzeNXiNdl29NA+GuRVEQ8+/nklZwMP3RyHMjsTPSZElx5PeiHYPkDvGjrx2tpamvSubH0gAOLTCfmJyYvLQckB+OjINEi+Fe8/TEJdOHti0tAP9f4Jx/MDsST0aqlQAZhs/NBvJ59//SPXqX8k1NGHXg5xLFv6rqtXqLWgjjYmv/EKxUIpn8BBgjUJDu9YrLx6+dmfGKvKQumHk+sXSnu6DN5D0LmeTAv1/T+ZfQ5n26GOf6o8/8KJhdO6Qv38nczvz5A/sZNACRSL/qEewmummlP8ZipuetxO8cPETVu3/M4CnrFRCVSa65bG6rQJduv0+4PT8vq6h3P7xou/pC/81h+o1cVYEVXA8dLwqq2+FBCPYu6LEOFmNGRfEBAEBIEJQGD7vY8wWeoOCIUm4hOSFIGsm/v44Ad695bZQlYEcjer12+mZas2eAVkvGUGEmBHv/K7f0xRJjkZ6C0i8J1e6g2pg+qq8AWZCbBbkm2GICD33wy50DJMQcCEAKQuhnkV4nkOynyIZejEicEEjuwKAjcJgXB//s6078836TJJM4LAtETggfWfoag57sDcs/j3Z2oC//5kmRRYz0Anyx95TxA4/f7gtPxEXAzE4PvuP/45y8XeQwWFxWqFGYJpD7FkSrAm0igWxEQaxQKIHAoCgoBjBL78O39ERSUuKQBrZfiQAQmOGc5b3bDsHx6P09X+599+z0Pb2DxOxAx4hb30zp0+Zk6WfUEgbAjI/Rc2KKUiQeCWQgByOFMxEPAtBaJ0VhBwgMBEf/5O9+/PDqCXooLAjEfga/d/SwW7tQNiYLifdh99ga6019idVrHJnHx/mM7fP8Qj3PaWkURBQBAQBMKHQGdHKwe3cGmi6lqHhgaos6OdTh877BF8SZ+/FbfTmQTH9YCmL4KGmA2BchG46tBH7xnBM83nZV8QCBcCcv+FC0mpRxC4tRBw8iP21hqp9FYQmJoITPTn73T//jw1r6r0ShC4NRBAUFq9+lj3eGiYeYT+NjpbfcwInqnPmbdOvz84LW/uy1TbF49wyxURj3ALIHIoCAgCgoAgIAgIAoKAICAICAKCgCAgCAgCgoAgIAgIAoLALY6AS1jmFh+EdF8QEAQEAUFAEBAEBAFBQBAQBAQBQUAQEAQEAUFAEBAEBAFBQBDwhYAQ4b6QkXRBQBAQBAQBQUAQEAQEAUFAEBAEBAFBQBAQBAQBQUAQEAQEgWmBgBDh0+IyyiAEAUFAEBAEBAFBQBAQBAQBQUAQEAQEAUFAEBAEBAFBQBAQBHwhIES4L2QkXRAQBAQBQUAQEAQEAUFAEBAEBAFBQBAQBAQBQUAQEAQEAUFgWiAgRPi0uIwyCEFAEBAEBAFBQBAQBAQBQUAQEAQEAUFAEBAEBAFBQBAQBAQBXwgIEe4LGUkXBAQBQUAQEAQEAUFAEBAEBAFBQBAQBAQBQUAQEAQEAUFAEJgWCAgRPi0uowxCEBAEBAFBQBAQBAQBQUAQEAQEAUFAEBAEBAFBQBAQBAQBQcAXAkKE+0JG0gUBQUAQEAQEAUFAEBAEBAFBQBAQBAQBQUAQEAQEAUFAEBAEpgUCQoRPi8sogxAEBAFBQBAQBAQBQUAQEAQEAUFAEBAEBAFBQBAQBAQBQUAQ8IWAEOG+kJF0QUAQEAQEAUFAEBAEBAFBQBAQBAQBQUAQEAQEAUFAEBAEBIFpgYAQ4dPiMsogBAFBQBAQBAQBQUAQEAQEAUFAEBAEBAFBQBAQBAQBQUAQEAR8ISBEuC9kJF0QEAQEAUFAEBAEBAFBQBAQBAQBQUAQEAQEAUFAEBAEBAFBYFogIET4tLiMMghBQBAQBAQBQUAQEAQEAUFAEBAEBAFBQBAQBAQBQUAQEAQEAV8ICBHuCxlJFwQEAUFAEBAEBAFBQBAQBAQBQUAQEAQEAUFAEBAEBAFBQBCYFggIET4tLqMMQhAQBAQBQUAQEAQEAUFAEBAEBAFBQBAQBAQBQUAQEAQEAUHAFwJChPtCRtIFAUFAEBAEBAFBQBAQBAQBQUAQEAQEAUFAEBAEBAFBQBAQBKYFAkKET4vLKIMQBAQBQUAQEAQEAUFAEBAEBAFBQBAQBAQBQUAQEAQEAUFAEPCFQISvE5IuCAgCgoAgMDURiI1PoOWr1lFCYgqdOfExNdRVT82OSq8EAUFAEBAEBAFBQBAQBAQBQUAQEAQEAUFAEJgiCAgRPkUuxEzqRlpiFmWl5FFSXApdv3GDuvs7qKmjjrr62mcSDDNqrKULFlNySqrXmK/fuE4dbW1M5F6m0ZERr/O+Elat20SzZrkWtHR2tNOli2d9ZfVKLy4tp9yCuZSanklXr16l9tZmqqm6SE1X6r3y+kpw0r6vOoNJf+DRp2nJijWqyErG4p/+8ls0MjwUTBUh5y0qLqP8ufMoJS2DbvD7t6OthWovV1J97eWQ65SCgSFQlFVGs2d5fmxfvTZKHX2t1DvQFVglY7ny0/kaJqZTYmwKDY4MUFdvO9W3VtHI1WGverJT8ikuOpFGr41QbUulcT43bS7FRMapY6TjPAzP+OS4NLrBf1WN51Qa/hVnl9Ntt7net139bdTe02Kcw058TBJlJeeptKbOeuof6vE4j4OCjGKKjIgmjLumpcLrfKAJwYzfrs45syOpMLPUONXe2zzuZ5jT65eZnEsJMclGm752rl6/SjXNF71OhwN/XWluWiGl8nVOjE1W90wn3z8NbdU0NNKvs8hWEBAEBAFBQBAQBAQBQUAQEAQEgSmHgOcv6inXPenQdEIgJiqebl90F5XmLabb+M9s169fo3N1x+nQuXdtiRhz3lVlmyk9MZuuXbtKe469ZD51U/Ynu/2bMsgwN7LzwccpK8dFcNlVff36daq8cIbefvU5amtpsstipOUVFNEjn/6CcdzYUBcQEZ6WkUX3PPQkLVi01Cird0CIHznwAe1588VxCflQ29dthWObnpltVBMbG0u5+XOp+tIFI20idkB83wv8Fi9jMtP6/r1Op44dobdfe476e73JS3N/dj70BGVm59I1xvwXP/qe+dRN2Z/s9kMdJIjXe9Y86YW9rm9odJCOVnxIJ6sO6yTbbW5aEW1ctJ0yknK9zvcwmf7+ydcUoWk+uXL+JpqbOZ+6+ts9iPC7Vn2KYqNcRPhPd3/bIMLXld+p8ncPdBhEeGxUAu1c84RR7aXGs7TrkxeMY+yU5i2kDeV3qbRXDvzMlgjftuIR1WYHE8+hEOGhjN+jk2MHCwqX0+bF9xinjlcdoINn9xjH1p1wXL81C7ZSYYabfLe2oY87+9q8iPBw4Z+TWkAbFu7gyex83ZyxHRjuow9PvUmXmyb2WWQ0KDuCgCAgCAgCgoAgIAgIAoKAICAIBImAaIQHCZhkDw0BEGd3r36M5uctMUhweB5qD8JZs2bT4rmraeuy+8ZtAD/E4dk2L3vBuHknIsNktz8RY5rsOuHdXbZwKf3m7/0pgWj2Z6XlSzxOg1SFVIg/mzV7Nj35+a95kOAgv69du6aKRURE0MYt2xVR7q8enAul/fHqDPb88Y8P0PDwiPLIvlx5YcJJcBd+v0nlS5YbROwIe/CPjo6qruP6LV+9nh554jfGHUp+YTHN5xUCJWWLxs07ERkmu/1Qx5SakGFgb1dH9JwYnmjcyc/Q++1OqzSQwA+s/4xBgsNje/SqeyUGvHtBbkdGRHnUETF7jjo254WXuCbBcXJk1LUiYRZ7fGenFKj8je21aot/aYkZxj52UhMyPY5xkByXbqS19zQb+3onmr3PdZtd/cF5wKOOUMev2zdvFxasMB9yv+I9jq0H4bh+gXiDo12ssrJaOPDPSS3k++dzHiS4eQUBMLhr1WOUwPeRmCAgCAgCgoAgIAgIAoKAICAICAJTEQHxCJ+KV2Ua9qm8cAXlps5VI4OX4Acn3zC8DkFqb2HyJiYylkpzl9CFupNUx0v0xaYfAkNDQ/Sz73/bGFhkVBRl5+bTuk3blHRKTEwM3f/Y0/T9b/+Nkce6U1hU4pE0m0nuMibHQQ77ss3b7qGcPBc519XVSe+w5zm0tedERtLa2++gbTsfpkjeX71+M3s2H2apFN+SC6G076tfoaYf+GA3HT28j4Bfb3fwhGCw7W7cssOYoOjq7KS3X3mWzp46qqpZtX4T3f3AEwTPdHiLL1mxlk4fPxJsE5J/HARSTETywfN7qOrKeUWMQ9qkJHchlY8Rs+X5y+kUe4XDK9hsIJF3rHqUpVVmK8mSY5X76MSlgzTMBHZaYibtWPmoIqfxHC5nb2ezZ7mbCHfLphRmuT2Tb7DEkZ7UzE7Np6g50arpula3XE5KQpq5O0x6pyrC3UykJrJcFgyexcPs4W61dO6ntm72Tg/GnIzf2k5eepGSfzGnx0TFmg+99p1eP1T45uFfUeQc1yQFSPF7xjzsa1sr6fD5vUabQyPe2DnFP5rvC5DcEbNdXxvhAX+88gBLoQwo4nv7iocohz/jId2zvHg9fXT6baM/siMICAKCgCAgCAgCgoAgIAgIAoLAVEFAPMKnypWY5v3QJDiGuefoSwYJjuOqpvMeS8qz2eNbbHoiADmMuppLxgva3vv2vkP//p2/pb6+XjXo/MJ5BB1qX5bDMiCwy5cuEiRVYEUlvvPjfOE8N2n3+vM/VyQ40qFLvn/vLjq87z0cKt3xeaX+VxqE0r6qPMz/hocGbwoJjm6b8Xvl1z8xSHCcO3poH32w+zXsKisoKta7sg0jAsnxbiK5uaOBegY6ledvXesl2nviNTpX65qYwOqawizPySJ0o5TJ8rgxr2XoeYM4BQkOg1b3IRORGhvtucJizhj5OWLyHs9jjXEYiOyrLFOlLY81vGHXWO6qnvumLcnk7Y00aIVD89psSbGp6tDOoxknUhLcHuPQNA/GnIzf2s4iXr0Eu8Za3A3tLrI/NtK/R7jT64f2cM3bupvUyyxPpNP0tm+wG9k9zCn+JbmLWCfedV/gnoMMDEhwGPTp3+fJbawwgEFPXkwQEAQEAUFAEBAEBAFBQBAQBASBqYiAeIRPxasyxfq0uGgNe3rlM+nSSa38I3zx3FXKe7uSNV7hEQa5k/KC5QQN8Pq2KjrIOt/Q/Dab9vQDadLSdcV8Su3XMDED/VllFv1haHKnxrsJkNR4l1cgCJ+72MPRam09Tdyvg9ZkdQyvwEVFKymNl+WnjNUJXdymzjr2ojyiiA1rwXC2j2BwRdllKiBcelK28noEHk0d9ayrel5JXVjbnwnH8GqGxjTkSWBZ7CVezQEsrYZAl3FxLk1ieG0nJCZROmt/5zF57s9S01z3TH9fH108d8or6/nTJwhe47D0DLf+tjVjqO3f+8hTlJqaTj09XbTnrZdpyfLVShokO6+QBngCoLX5Cu3d9Tp1trdam1THK9ZsoEVLXeSbNUNrSyPtev0Fa7JxvGXHfVTAciSdnW3U1FBHCK4ZExtH508fZ030l9gb/05atmo9xcYlqKChb7z0Sy+d9OQUFwkLORS7wKTnTh2n9VvuGmvTUz8cmtzp6VlGf9IyXNcCnvyf/fI3jHS909zUoPqlj81b9AOrBzKyckjX080e/vU1VfThu2/ZBgwNZ/sZWbm0cOlK9o6fyzrneTQ0OMBBVutU+8d4RcL1Makdc5/DtZ/EHtTaOnpb9K6xvcQe4gsLV6ljHZDSOMk7c7PmG4fHKvYZ+3qnh1fqaLPGcJhtkUbBczQzKYewugcewLNum62L8sqfQrXf2tVgEO1IgAc4DJ7qGAskVNKTs/kzw0UkR7G0iyZafRHhSabJgE4OEBqMORm/uR2QvAh6CcPn1ih/psFixrTS1YHNP6fXz1plssnDPpBJAaf4F5nun08ufmjtjgoUeoMnJm/jz2UzSW/NOJvdLx5cGEvLcqKpd/ga7aoYoDNNLokla145FgQEAUFAEBAEBAFBQBAQBAQBQSDcCAgRHm5Ep2F92Sl5SrKkZ7CLls1bT3MiItUo05kIAQmyqnSzWm6PROigYhk9pE/MNjjcrw6hPZvF9TV3NphPs2dZP/3yvX/xSNMH+ex5aPYo1+kgUiClYrU53MZx8ibC89OL6c4VD1K8xVsNWrUgNkAivXHoF176quFqH9jcz/q81vahpwtcKxpO07vHX54QMjyeCeNADV7S8Da+2dbb3Wk0qYlXI2Fsp7hsoZEEIhwkuH4lJadSd5ebzDMy8g4kUGAD/X1qa/0HL/Wf/+A7nC+K+pis9mWhtl/MXuYIFgoiPioqmonndUYTKSmpilgtW7ScnvvZ922JZhCwkB2xMwSx9EeEQ3MdZXu6u2nVui0sAePSe85kMjkiYg6t37yNQErD0tIzaM6cSHru5//u0ZTGDfIx81mGpuL8aY/zXZ3t9P/95bc80vRBUfF8Q1ZFp2ELXXG7MUVGu2Q1zHmxv3j5Grrv0acoISHR41RaeiYB32WrN9CzP/5Xaqir9jgfrvYLi0rp01/8bW7f01s6N7+Qcd1EZYuW0a9+8n8njAzX3tL9Q70eBLMeLCRP3OY5GYH0jDHva0wUNnXWu7OO7cVHu58RWuZEZ4rgQJ0wLWMyN7NUeXRfaauh4pxyGh4jgxEQUnt5N7TX6OJqmzhGhPfy58iNGzfUZwWCHmsza1gbk6L65Ng2aUw6BVIsdpMBluweh07Gb65oUdEq4/PufO1xyssoUqchHQICGGOzM6fXz1pnSpxrcgrpgWDhFP/x8EM/3jj8S/5/m/o8x7GdrcyNpJ1lLu/57IQIwuu/vdXOk9B2uSVNEBAEBAFBQBAQBAQBQUAQEAQEgfAiIER4ePGc1rUlsiZpTUsFNbOn35K5a1RwsLVld1Bd2yW6wkHREOwSJO8C1qjdf+Ydj+XyCHymveg2LNzOhO+rajl1IID1D/a6vcW5ALwGQbjA7AiTHvZctxq8+O5b95RBYAwy8Q4yPpq1bLOYiAaBkcRau9tXPkwv7fuxB5kRjvaxLP7BDZ8zAqrBc761u1GNYy6T8AnsKQ7PetieYy9Zu+/4+Pf/9C+UBnYgFZ08epief+YHgWQNa55k9pjWBmLVzgrG9MEHBwepquIck8u5rEm9RpGqCLZ55MD7dsWMNHuKynXazlPcKDi247T9uPh4JnRXU1dnBzXUXmYCOoKKmMSNZvIXGtv3PPwk/es//YUXmTrInsedXMZsSUnJatzmNH/7iUlJSk7mSl0NrVh7u/Ksv/2Ou6jmMkvVVF+i5Ws2KpJ30bJVFPV8jMdkSHPTFSqeX66q33bPw0yqd1Jzo+dklq+2e3u6Pfoez4FN58xxkfHWMaGOro42r6rSM7Pp8c9+xSDsBwbYE7uhlqJjYpX2O96/yckp9NCTv0H/9s9/5YFfONrHZMLTX/5dYzVCbXWV8gTHxEAxB/1M5Imm8sXL6akvfJ1+8aPvefXfaQLGBy1wGLyw7Swp3nUe5/oHezyyQOoEwTRhvrytzRrS3X2ebUTwhCdMB8ssyHTJn9RzLIey/GVK0xvnoZ2NyVFYXYtbFgXPaz0BCCJ/ZHRYEeFpie6VAimm4JmdPmRPNJncw9IfZjkW1aCff07Hr6vG5OsCHi8M1wESM2lJrhUOOIfPGTtZEqfXT7dv3mpiG6uvOix68OZ82HeKfyD4oR3t3Y99Xwbi22zxUbMpIXIWdQ0JE27GRfYFAUFAEBAEBAFBQBAQBAQBQWBiEPD8RTIxbUit0wSB6+yFBy1aeHfPYa/vlSWbFGG89/jr1D/Uo5a6gxiHZ2ISe6uB/NZ26vIRgsQKyBgE1Hpiy2/S+brjdLnxvK13oi6HrZUYfmDDZ6ggvYSJkFGfXuTm8thfNHelQYJDk/ydj58zsoC8eGLrV1nuJY4lS/Ipgz3dzfIt4Wgf+qqxY/q8hy/upaMXPzLaP3LhfXpo4+cJ3pGluYtpH08iaO1VI9M030nPzKGlK91e0iCJrQbv5RyWEoFBjgJWcf4s3fuw2qW57Hk8HhHuyhna/3C1X8cyHs/88LsG0Yyxf/l3v0kgiLOyc2leyQIvr/CPWPYDL7P90f/6ey/vaPN56z701F/61Y8V0QwP+XUcJBTeq9D8bmtpolmsWXD71rsU2ZyTW+AhTXPg/V20cs3tTDxHK+/1r3zjv7LO+hE6d+qYl3e4tV0rMfyVb/wJzZ1XQqOjoz69yK11rNnIz5Uxr/WKC2c8Aq4Cv6/+pz9REwk5LKljxS8c7SMAqJbk2cea8u+85n5+YLXFl77+hyzXkk0L2Cvc38oE67gCPU7m56kOUmg30Yd6kk3yUR29nrIhkILS1tVnP8nkWd5TekUHyxy56tIUz00rUjJS9W3V6rmKZzEsL2Oe2mKi0ex1jmCcIINh0LnGfYdnnTlgppbuQB47D2f0AROGsJ5+T6JeJfr553T8uuoS7rMm9C/Un1TJg8MD+jT3z54Id3r9jAZMO+5JgS4vKTJTNrXrFP9A8LO26ev4cN0QbS+No6gI1/1wpmlISHBfYEm6ICAICAKCgCAgCAgCgoAgIAiEHQEhwsMO6fStcGC4T5HgGGFbt4soAeEBEhzW2eMmXyLH5FPUCf4HYhdBMu9e/SmCPEoUe2IvL96gXpBcuVB3gk4zWa6Dt+ly4drCw/Bo5T4VzOvkpUMe1aL/l66cpSVFa1V6Gmt3m4lwj8whHkAOBgZvyOMV+z1qwZiPcRqwAVmUlzaXLjWe88jj9GDX688b8iDj1dXUUD9elpDPR7DsxqKlq4zyc1imIzM736VbHePyWK2+VEH1NkR46YLFLCsSpcpqoryN9bE7O9opJTWNctlrdyItXO3vfv1FgwRHfzGG40cOsEb5TtX9zOwcLyI8HOPqZ1kY7W3d3Oi6xvCsBgkOg065tqho17XQx5Ccee2Fn9HDT35BrSyIjo6i1es3qxckV04zKY6gp33s/T0R1t7aRIf27VUE6kfveU4IAL+LZ0/QCvZoh2Xn5Ycdv1zWBIchoOu7rPFuNoz54Ie76aEnPq/ev6Xli+mTgx+aszjeh3yTtq5+b495nNOyIQhSCR1us5m9vbss3t46n2d5N1kOD28tu4Jgmdkp+TypF8ergGp4vCz4zDY6RoRrfXCsEDJbCstCaevu7TAkVnTATHgSJ8WnqiyQX0HwRatBWkq358ur3VpGHzsZv64D24VzV6hDBMk8V3Nc7WPFkLZYnlS1M6fXz1qn8tCOdL1HA8HCKf6e+LnvDWu/Ajlu6btO33qzlRZnRVLP8HWqbLsaSDHJIwgIAoKAICAICAKCgCAgCAgCgkBYEBAiPCwwSiVAwJ/sBM7XtV6iV/b/hFaVbVEyKVhKDoPkCjzJFxaupNcPPuNF4qhMDv9VXmFNYzfP51VbXUuVQYRHzXGRrV6ZHCTAyxwGKRd41lsNur3aMpk0DzcRfphJxKlgUVGR9NQXv+6zK709PUy4PmN7ft78BUZ69SV3IM3G+hpFhEPfGhIamtg1MvvY+cP/8be2HtUV507TMz/6rlepcLSPYJPQI7cayFxtcfH2ZJo+P2Hbcd7ACGaK67N5+z1UMn+hIcsCyRV4ksOj/1f/8S88vqqwd/HIfv+SN5DJ0UR4TExc2NtHYExYV3sbXb3qHdjvSr2b+IWMSriJcHNgRF+yIYmxLiIZGtzWYMX+vL01WL7KI+aCNkiaFGSVqsOG9mqe1IxU+/AIR7BkTfg2sKe42ZLHSG6kdXCQy4GhPp7U4MCK/BmgA2Zq6Rdf3t4p8W4yvStIj3An49fjSGcZFx2rorr5Ik8K96lTA8NuIjwu2v7ec3r9dB/01uyh7WuFgM6LrVP8PfFzTXhvXXY/lbMMmtUwEfODt/7OmuxxPMzc99GGEY80ORAEBAFBQBAQBAQBQUAQEAQEAUHgZiAgRPjNQFnaMBBoY7kUyJJAjqQkt5wKOegaltmDFMeScwST/NXef1WyJ0ahMO3MYsmWsvyllMISAtAZ196FqD56zLsuTE15VRMxy6WJjCXy96x90uu8nhTACS1D4JVpGifAM7ni3Cl6hz3XfXkV5xcWKwSGhoboEhOf2mpZ3xq61jAEcgyUCEewRrysdptNGvKEo30EIrUzO3LVLt9kp1VfukB4QY4E2uwlrI+dX8jvX8YMQSwRTPK7f/9nNMSa5uE2yLms2bCVJUhyKD4hidt0SSugnYkgv839j4hwfVQmp6XTF37rD8yn1P6sMdkWHCDYaLgNzw1tVtkTpGOVTTzLcsDsPIQR/wAGgtzqLY50pSHto7wmu5FvhFev5KcXYZdqmytNRPhVKsgo5meq65rUNFeoPPpf4lj/QZijf5BGAZmNZzEkofBsxoQorJulU+zMk0x2kbF2+ezSnIxf1wdpL23nao7pXdYEdxPhsVEJRrp5x+n1M9eFfQ8PbZ5cHc+c4q/xM682gJQNrpvVsMJLTBAQBAQBQUAQEAQEAUFAEBAEBIGpioAQ4VP1ykzzfkGO5GTVYfXKTSukO5c/zMHgkpUG7JJ5a+h45YGwIpCVnEfbVj6iNGnDWnGQlYGAnxft9mwOsvgtnx2E9yvP/sQYB3SrW1iSo7PdP7EFqY5s1n+GDQ700/pNd6p9/IuNizf2oRN+4IPdxrG/nUMf7iHoO8NA6EAz25dNRPu+2roV0uHBvvedV9WrfPEKuv9TnyEE70TQyM3b7qHdb7wY1mFAlgbSI8kpLq/nsFYeRGXQcY8vWxhEifBk1bIlfmVDyEVC2xHhOrAiSEqrtzh6qDSkx8pbPYzNRDgWDWQk5SqJJwT7zUl1afaD4EagTFhHb7Mhl6US+F9ynIuI1/rgrnwtighHwEwzqepTw9w0GdDe46lhrtvxtXUyftQJKS/EeYDhGmAiF0GhrRYb7X4Wmc85vX7murDv4aFtkiSz5tPHTvHX+JlXG1xsOE2NHXWqCejXLy92SRPZ3X+6H7IVBAQBQUAQEAQEAUFAEBAEBAFBYLIRECJ8sq+AtM9as7W0++gL9KnNX1FowLMwnEQ4vB13rHpMEe1oAGSMWtrOuuXa4I0IaZaJNng7IkioP2tsq/F3OqRzv/PN/8meqi6v9PEqOH/mBL3z6nPjZQvp/A0mvs+ddntTBlpJ2cKlpL1yoQd+78Ofti2am19km26X+KEp+CSIbn9E+ES0b9enWzHt/JnjHPhyhD2lf191v4iDfYbTYnii4+FPf0ER7ai3u6uLNcDP0EB/v9EMCHJ4qE+0dXV10mmWiPFnNVVu2R5/+YI5p4lIn7IhiRlGdVYiUnl7j2lX49lnZ2YNacg3mW2OKd5DZnKOWr0DfXCYPgciPD99nkprsOiDY7WLlj3p6ne3DzmokpxFigQHGa7NFxGuyWTEqggmmLDT8aNf5YXLldc99uF9v23FQ9j1spjIWK80JDi5fnYVaixwzi6wqLmMU/zN+JnvrfO17s8x6MYLEW5GXfYFAUFAEBAEBAFBQBAQBAQBQWCqIiBE+FS9MtOoX/ExSRxgrUCNqK2nkeyIDgSn7GMvccijxI8tkQ8XBHkZ8wwSvL6til5jHXKrFWSUTCgRfmNMQb2Lg9gdq9hnbX7Cj1PTMlSQw0AaSmDZialm80rd5OrVqywwazEtc5KUnEy5+XPpCuuG25mdFAryQXbDn4WrfX9tTNVzGVm5VFQyX3XvSl0NNdRVe3X10sWz1Nvbo+RREtgzPJxWvmiZQYLXVlfRD77zt17VL1259qYQ4Vi5gMCzN9PgfRw9Zywwog8iG0SktsZ2l5euPoY+tJYsMROZ+jy26UluIrrD4mEcwROJ2jJTctVufetltQVJCgM5rMnueo63YDYEwUTATVi3iWRv7XTFRYBEVUFmiVHETvoF/df1+xqDUYFlx+n4UV15gXuSFKS/1TA+9DGWddKt5vT6WevDsdZzR/Dl8QJMO8XfjJ+viZSMFFcMDPTNVzBWnBMTBAQBQUAQEAQEAUFAEBAEBAFBYLIRECJ8sq/ADGg/gbVn71r1qBrpqerDtO/0O7ajhm4sTG9tM4WQaCZ5fAWhjImKC6HmwIuAvEHATGAxGXb25CcUGRUdUNO1lysDynczM+UXurxNR0ZG6e/+7A/JqrV9+x130z0PPaG6VLJgkRcR3t/Xq2Q7EhLtSdqcXNdEDSro7+vxGprT9r0qvIUSUlLT6cFPfVb1+NiR/dTwq2rb3hvv27H3sW2mEBKzctwk73kfqwniWLJkIq2ro50ys/n9Oyal47QtvBeXsgd7BxPrlysv+K0OsiXa7CYRo5gkL8goVVmaOuu8PITNOs52pGk0ezHPz1uqyg+NDFJzZ71uTm211zcOoOeNIJc1La5nhNZDT0/KVnlHr41QQ7uLJFcJ/C81wU2yd/W262Rq6WpQz3oQyNqb3KxBbWTknSTWo9axE3yRseb85n2n48ckKbTMYZVXzvDqpRfN1av9+9c/TYV8DaJtPkecXj9rY+PpwVvzO8XfjB+CpVoN12/xXNdqDFy/y03+72eUz02cTXGRt6mqRq7doJrOa9Zq5VgQEAQEAUFAEBAEBAFBQBAQBASBCUFAiPAJgVUqNSMALVno0uIHdWnuEqUL3jvQZc7CQSyXKX1wJLZxfn82OuYRDGIE5DLq92cgd7RB69XOSnID1/0Ntn20B9IHfU2Jz2Tv+HxqspBNaxfcQcvmrVddO3zhPTp12b/8gt0Y/KW9+Mv/8Hd6Sp+DjjcCJMJaGuu9SHCkV144y0Q49ojmziulD127xn948uawxnhUVKTSsP7ovbeNc9hZtW6TcQzNcrOFo31zfbfafs3lCn7/Xuf37yxawHrgWTm7qbmxwWMYG7ZsVxMNSGzma+TPRkdcZBqkeornL6QqU+BTu3IDA31GcnSMvfRE+RK3x66R2cdOsO2jmsaGWkWEp6VnqoCsFedPe9R+7yNP0er1W1TaR++9Se/vet3jvPkgOSWNvv5f/jvFxrrGcoqlVp77+b+bs3jsewRG7OvwOAcS/K7Vj7Insmsi70L9KY/z1oOslDxrEi0vWW/IftS1XqLrTHSbTXt9Iy0mMk49y4ZGXLI0c/gZDNPBIEHEX712VaXpf+b+d/a16mSltd090KHKak9qswa1kZF3UhPckwF2wT7Nef3thzL+xUWrjSrP1hw19s07+jMG0iggho1JIc5kHr/VWzrY64c2UxMyWM3dRSIDv/HM3H5I+Lvmp1UzOanuCUPdbnnhCuP617RU0CBL14xnX1uXRJkJrq+frX1X6c92jT+O8eqU84KAICAICAKCgCAgCAgCgoAgIAgEgoAQ4YGgJHkcIQBipKrpPJPgi5lIiaXHNn2JTl4+RC2djbxkfjYVZpXSosJVRhuVV84a+3Y7nb0tRNkuqYy71zxOVVfO0cg1F7mG/Fdaqz2I5pZON2m3qnQzExWzqLrxAoFQSWdt2tVlW2lupkv6wa49a1qw7aN8HcsFwGsOJMndqx+nw+f3UmNnLUvBJFFOWgGtLLldTRTA27Khrdra5Iw+XsDSGFrSpL7OHpuWpgbq6mRSjbWic/KLvPCCrvPCJSsU/tvueZiS2cv5csV5ipgTQYuWrqbyJctVGQTzPHfquEf5cLTvUWEIBzvue5RmR3g+riMjo1RNMXFxtHPMG15XjQmD4x8f1IeOtsNDg1Rx/gwtWLRUkbdf/O1v0icHP1Be99BtRyDLpSvXGW2cO3XM2LfbaWtt4jKL1KnHnv4yXTh7gkbGyHEk4rqYieaG2mqVF//Wb96h3ifwDK+rqWLJlgW0dcd9NK+kzMgz3k6w7aM+kPXLV69X98+jT3+JPnr3Taq+VMH3URoV8sQLgrfiHsWEweWKC367sHzNRoMER0ZMLsSyR/sAr1qwM00y4xxWt8SwN3nUnFhCYMairAXqmYpzjR01VGFDhIN8hSc4JgEL0ktoOwcNvsTPTDyL5vKzVwd9RBDIY5X7UZWHaa9vndgwpg+O44gIFxFunLN5diEQJgzPNqueNYJemsfnS/YkOSFNN6Ge2avKNhvH1p3BoX46V+u+B52MP4EDOBdmlqomEARUa6N7tTk2MQA9bkih9A12G1nM4wvl+iXHp1GxaaI2Nd6tBw8pMTMWFfWnyTrJ7BR/aMYPjQ4qeZ7ctCJe3fUYXeT7DPd6XkYRLS1aq8YK8v9stf1EgQEG76TEzDJIcKR/VD1gPi37goAgIAgIAoKAICAICAKCgCAgCEwoAp7MyoQ2JZXPZAQ+PPUWkzjZhvffhvIdtnCcrj5C1eMsrT51+WMOXraS4liPFUEuV5Rs9Kjr4PU9nkQ4649XNJxSy/+xrHz9gm3qBd1u7VmH4JlFWYGRacG2j86h/oPn9xDGHRed4DPY2tHKfUwWub0mPQY2Qw+Kit3XpaaqwicKjey1CyI8Pj6e5hbPJ3PeMywNs+DockVmgrxdu3GrepkrA5Hz3tsvE7zHzRaO9s31hbK/YcsOnxrvCQmJtImlYcx2lsnocBHhqPfV53/GHtF/QghUGsfEO8hnOzv+8QGCfIo/O/D+bpYFWUdxfJ0Sk5K8rsP1a9c8iHDoj587fVxNZLg8+neyV/9OQ1YDbVWxvEixSUc+nO2jLowrPTObtmy/l++vBJ/BWg/v30u11S7ZEN99MLnYcibmoxUp7Su/DrSI88uLN9hmQwDeD069qVbeWDMMM4l5puYTWlXqWvVQxjIoeJkNkhZ7T7zmRVQjT8Rsz68JdS2XjKJm/XAk1ja7z+lMkDWB9TI5bPUWb1cBM92rcXwR4SlxbiIcq4r8WW1rpQcR7mT88AYHuQ07X3fCZ7ODw24yF/JXZiLc6fUryCymdWV32rYN2Ra8tGFS2GpO8cckCj6X18zfqqrGhDZeZhu9OkLvnXiVEINjPFuQ4Z48gSzK/mr3JPZ4ZeW8ICAICAKCgCAgCAgCgoAgIAgIAk4RcP3Cc1qLlJ+xCIBACcRARrzw4Q/paOVH7J3olirRZeF1tou1Vz86/bZO8rnFsvyX9/+YvcwvUL/NMmzIsFjtg5Nv0rFL+wgattpAgiPw2dnao3S04iOdbEsmGSd5J5T2Uf545QEe31ss5XKFrLi1MSG059hLdOTC++amZJ8RyGJJE9jo6ChLoJxR+3b/6mrcJByIcKu98Isf0tuvPke9PT0ep0CANzddoWd++D06vG+vxzkchKt9r4pNCdeuuu/ZaxZpCWSD92UwBjI5EAs0X293F/3bt/+aDu17j4aGhryq7mQN7Vef/zkFIsHT1dlOP/3+Pys5m/4+bxkFu/G//Ouf0uH976t7QDcOj2bcEyePHmYP7bd0MtmVN07yTijto/zuN16k3W++pO6VaxZ8W5qb6PUXf0FvvvQrc1O2+0cP71OrF3AS1/XU0UPUz4FGfRmCDVsNz63mrnpFcO/65HlFYts993S5w+ffo/1n3/EKrIgykLN47sPvU1WjN4mK8poIxj4kQBo7arGrbPZts/WuIrqtHt84GcerXmB2Mh6tXa6AmSoD/7NKh+j0uCBiK9iR6aGOXxO+IHov1J3U3fHaDo24ifAoXvVkNqfXz668uX69j3vCbuzhwP/jCx+ozy7zONHuII+7ru0SB6D+uc/7R/dPb8tMRPgn9YM0MOo5MaTzyVYQEAQEAUFAEBAEBAFBQBAQBASBiUDgtsWLF3v8CoE3JazPhqCYiA5MtTpn+vhv1vXA8vGkuGT26iTlAW1Hjk9EX6BTjqXisVEJrFE7xMRLu9KqnYi2/NXp0jfPVlm6+jsD0lX1V5+cCw6BlLQM9nDOpRvXb1BDfbVfIjK4mmdG7vTMHErPyOI1FTeURAqI8pthcyIjWeu9kBKSkmlocICaWALGH4k8UX2CVvncea7JFmjKW1cRBNJuSdki6u7qpLYW/zEOAqkrmDyJcSlqJQ1ITMhD+SPQg6n3Vsk708fv9DpBLiaRXwNDfer+Cba+/3dnGqXGuSZQ/ua9dqrrCmzSLth2JL8gIAgIAoKAICAICAKCgCAgCAgCdggIEW5BRYhwCyByKAgIAoKAICAICAKCgEME0uNm0Z/vTFe1XO4YoX94/+ZMoDnsthQXBAQBQUAQEAQEAUFAEBAEBIFphIBIo0yjiylDEQQEAUFAEBAEBAFBYCoiUG6SRfmgylsibSr2WfokCAgCgoAgIAgIAoKAICAICALTCwEhwqfX9ZTRCAKCgCAgCAgCgoAgMOUQmJ8RqfrUO3yNjjZIkMwpd4GkQ4KAICAICAKCgCAgCAgCgsAMQCBiBoxRhigICAKCgCAgCAgCgoAgMIkIvHS6n96+OEBDHCDzanDxfyex19K0ICAICAKCgCAgCAgCgoAgIAhMJwSECJ9OV1PGIggIAoKAICAICAKCwBREoHPwOnWKIsoUvDLSJUFAEBAEBAFBQBAQBAQBQWDmICDSKDPnWstIBQFBQBAQBAQBQUAQEAQEAUFAEBAEBAFBQBAQBAQBQUAQmJEICBE+Iy+7DFoQEAQEAUFAEBAEBAFBQBAQBAQBQUAQEAQEAUFAEBAEBIGZg4AQ4TPnWstIBQFBQBAQBAQBQUAQEAQEAUFAEBAEBAFBQBAQBAQBQUAQmJEICBE+Iy+7DFoQEAQEAUFAEBAEBAFBQBAQBAQBQUAQEAQEAUFAEBAEBIGZg4AQ4TPnWstIBQFBQBAQBAQBQUAQEAQEAUFAEBAEBAFBQBAQBAQBQUAQmJEICBE+Iy+7DFoQEAQEAUFAEBAEBAFBQBAQBAQBQUAQEAQEAUFAEBAEBIGZg4AQ4TPnWstIBQFBQBAQBAQBQUAQEAQEAUFAEBAEBAFBQBAQBAQBQUAQmJEICBE+Iy+7DFoQEAQEAUFAEBAEBAFBQBAQBAQBQUAQEAQEAUFAEBAEBIGZg4AQ4TPnWstIBQFBQBAQBAQBQUAQEAQEAUFAEBAEBAFBQBAQBAQBQUAQmJEICBE+Iy+7DFoQEAQEAUFAEBAEBAFBQBAQBAQBQUAQEAQEAUFAEBAEBIGZg4AQ4TPnWstIBQFBQBAQBAQBQUAQEAQEAUFAEBAEBAFBQBAQBAQBQUAQmJEICBE+Iy+7DFoQEAQEAUFAEBAEBAFBQBAQBAQBQUAQEAQEAUFAEBAEBIGZg4AQ4TPnWstIBQFBQBAQBAQBQUAQEAQEAUFAEBAEBAFBQBAQBAQBQUAQmJEICBE+Iy+7DFoQEAQEAUFAEBAEBAFBQBAQBAQBQUAQEAQEAUFAEBAEBIGZg4AQ4TPnWstIBQFBQBAQBAQBQUAQEAQEAUFAEBAEBAFBQBAQBAQBQUAQmJEICBE+Iy+7DFoQEATsEIiNT7BLljRBQBAQBASBGYpAVHQMJSalzNDRy7AFAUFAEBAEBAFBQBAQBASB6YVAxPQajoxGEBAEBIHgEVi8bDWt37KDIiMj6V//6S+Cr0BKCAKCgCAgCExLBPIL59Fnv/INqr1cScc/PkAnPjk4LccpgxIEBAFBQBAQBAQBQUAQEARmAgJChM+EqyxjFAQEAVsElq5cR5vu3Ek5eQXqfHNjg20+SRQEwolAZEQUzcsup7jYBKq6co66+trDWb3UNQ4Cgv84AMlpLwQiIiKoeH65euFz442XfkkdbS1e+SRBEBAEBAFBQBAQBAQBQUAQEASmNgJChE/t6zPpvUtOTafSsoU++1F5kUmcjjaf52+VE+mZOVRUXKq6W19bTU1X6jy6XrpgMSWnpHqk4eD6jev8Y7iNGuou0+jIiNf5qZJg1//R0VGqYQ+36XD9QsF5/eZtdO/Dn6ZZs1wKUcCj8sLZUKoKqkxGUjZlJOdSUlwqXbt+jbp626mxs5Z6B7qCqudmZs5KzqP4mCSvJm/w/d8z0EkdfW10nccSqIEEnnWbC/fewS5q6boSaFEKB35O2g+4o34yblx0Fy0sXKlyLJm7ln6+5//wvXDVT4nwnQoHfuHrTeg13XbbbZQcn0ZJsak0e5bnV5nq5ot+8ZxM/EMf8a1bMjsln+KiE2nk6jDVtV7yGkhMVDzlphaq9Pbe5rBNDMVExXG9c73a0wlXOsQKYfUAAEAASURBVGpocLhfH/rcdvJ3nPraywTPcNj88sX01Bd/m37wnb+jkeEhn+XkhCAgCAgCgoAgIAgIAoKAICAITD0EPH89Tr3+SY8mGYFlq9bTjnsf9tmLX/3k36YFkQoS/KEnPq/GufvNl7yI8J0PPk5ZOXk+cbh+/TqTqGfo7Vefo7aWJp/5JuuEv/53dnbQFf6R/+oLz9Bgf9+Ed3HnQ09QZnYuXbt6lX7xo+9NeHt2DSxbtc4gwXHtTh//mN7f/fqEXrvY6AS6nQnQ0tzFXl26em2UTlQdpE8qPgqKUPaqaIISNi3ZSZlMhvsykOCXmy/Q/jO7qX+ox1c2lQ7y8p41Txh5mjrr6KV9PzaOfe2EC79Q2/fVr1DSUxMzjWKxTNalMCZtPc1G2kTshAu/iehbsHXmpBbQlqX3UWqCG0dzHT/e9U9McPqeWJgM/M39m2n7dyx/gO/xDOrqb6dfvvcvXsNPT8yiu1d/SqUfPL+Hjlce8MoTSkJJ7iLavPgen0VfO/hzqh++7PO8PgHP7+9/+29o6cq1tGX7feq7QDZ/H3jo8c/R88/8QGeTrSAgCAgCgoAgIAgIAoKAICAI3AIISLDMW+AiTeku3rgxpbt3szoHr+KyhUvpN3/vTymvoOhmNRuWdlLY033x8tX0ha/9PiUkJYelTn+V5BcW03z2sC8pW+Qv24SdQ+CzHfd9yvAEP/DhHkVmTOQEBrxXdzLRYybBQX7DIxwWMXsOrZ6/hdYtuFMd32r/Zs2aTSU5i+jJrV9Tnu7++l+QWexxOiMplyBV4c/CiV8o7fvrWyjnztUeU96xN/j5WdNSMeEkeDjxC2W84SwTNSeG7lr1KZ8keCBt3Wz8A+mT5Ln5CNyg4L6/nDp2hH74vX+g9rZW1VlMqG7Ysv3md1xaFAQEAUFAEBAEBAFBQBAQBASBkBEQj/CQoZsZBU9yUKi66kqPwS5fvYFWrr3dI22mHAwNDdHPvv9tY7iRUVGUnZtP6zZtU9IpMTExdP9jTyvvMSPTFNoZGBigH//r/1Y9io2No+z8Alp3+zZKSU2j3PxCevLzX6Mffvfvp1CPw9+Vzdvu4WuVoiq+Ul9Lu994MfyNWGpcXLSGslMKVGo3S4l8ePJNqm+rYjJ+Ni3IX8ae4nfTnIhIWjZvHVU0nKL2nqmpPTs8Okgv7Xd7b8+ZHUlpSVm0vHgjJbPUS3RkDN2x7H565cDPLAi4D3MsUgWzGYPctLkEOQtfFk78QmnfV79CTT9fe5wqG06zpMccAqYTbeHEb6L7Ol79BRnFLLORoLK1dl+hoxX7CfI6Zhse8Y/pzcbf3DfZv3kIVDacpaYOT5mzBQXLaGnRupA7MTQ4QG+yPvhnvvy7NHv2bJ5UfYzOnz5BXZ2i8x8yqFJQEBAEBAFBQBAQBAQBQUAQuIkIiEf4TQT7VmwKP+4uV17weA30j6+peSuONZA+Q86jruaS8bp08Szt2/sO/ft3/pb6+npVFdARLSouC6S6m57nBsuAQP8cr6rK87R/7y76t2//NXV3uYgk9D06Jvam9+tmNli2aJlqDpIorz3/c7p+zeWVPZF9ANGr7b1jLysSHMeQFIF36tFLH6nTIMbz0t15dZmpsr3K/e3sbTNe0PY+V3OMXvzoRyyJ4rr/c9OKKI2lDnyZnhCAJzQ0xmF5GUVq6+tfOPELpX1f/XKSfvXa1ZtCgqOP4cTPyZjDUTYxzr1q5cSlQ3S56Ty1dTd5vBC7YTy7mfiP1xc5PzEIDI30e9wXuE8GRwYcN1Zx/jQdO7Jf1RMZGakkUxxXKhUIAoKAICAICAKCgCAgCAgCgsBNQUA8wm8KzNKIRiAxKYVuv+NuSs/KpqTkVBVgEsEaQbYfOfC+zuZzm5ySpryvM7JyKC3DpQ/b3dVJ9TVV9OG7b40buGr56vW0ZMU6Sk3PJMgFoO3D+/YGuUDau3u93V2EZdMbx5ZJZ7GXeHWVt4er0/4vXr6GMIbU9CzljdbNExUfH/yQ4KW27vY7VcfwA/3c6WPenfSRMsAE/tHDH9G2nQ+qOssWLqGTRw/b5g6l/9AET+f+atPXDd50n/3yN3SysW1uaqA9rNNuZ6G0b64nLSOLslifHNbF2ugNddVq398/eNPmpOZTd38ntTKRsnjuKoqJjKXKxrNKy3Z+3hIqL1hOCPgGL++D59710vmGBjSsf7iPmjrrvZqrbrpI6xe4ltgns5au1TYs3MHBKhNUH45c8H6fpLHm9MpS1yqNioYzVNNc4VEFNJUXF61WaccvHaTb+K8oZwEVpM9Tsiydfe3soXxGkYoeBQM8gFfz+brjSt4FRdISstir3VvzGoEaoYkNu9JeTQkxiSxxkUU5Y97y6oTNP6f46SpDbX/tgjtY8iWF+gZ76ZOLH9LcrDJ+laigp4N8TdvYg/9oxT7WpbbX2Ef++XmLdDc8tu29LXSMvZp92VS4/3TfIEuytHitkiVJ5OCpo9dG1D1Z33qZKq+c0dm8tk7x86iQn9vaBpnoDMSc4G+uPz+9mMoLl7PedbpazYFAsacvf0wjo0MKF+Q9yxNDV9przMUc768u26J05PH8OHTuPSrMKOH7r5SyOcAk3nsdva3q/usb7PbbVnRkHC0qWsnvz0w1BmTu4SC90Ok/VXXEb4BR5J2s8U/08wtjC9YuXTxHazZsUcWKWeYL3z8CsdnsfvLgwlhalhNNvcPXaFfFAJ1pGg2kqOQRBAQBQUAQEAQEAUFAEBAEBIEwICBEeBhAlCoCQwByKnc/+ATFxbmIMF0qr2Cu0qheyoE5X+DAU76WGIMEvu/RpyghIVEXVds0JrWLSxfQMpZsefbH/+qT3HzgU5+ltRu3KgJcV5CWnkHzuCxIbKfW291pVAHC1mpO+7+Tsdu4dYehbY36U9PSqaikjM6fOUELFrs8nasvexPw1r5Yj1ubG42knPy5tkR4qP0vKp5vq5sOXXXdZ6Nx3omMjjYfGvuhtm9UwDvpmdnG9W9v8yZqzXn1fnZKHmt7L6Eell9YNm+9kjDBufSkHJa2iKBVpZt5O1tlT03IUMTyByff0MXVNoIlRGC+iFJ4Wb+07z+4bCQN2JCpIL10sDk7Ijw2KkH1EW0g6KKVCE+MTTXOd/V30MqSTUafUQZBB0tyFtLZ2qNk7TvOB2J9piCZCXFJtkXyWNZC25W2WkpmQhFEODzIo3lyYciHt6ZT/HSbobYPOQ4ECwURCQmbxXNdkwqoNzkujSdK5iqN9LeO/IrgJW+11MR0A3/ruaTuRr9E+FS4/9DnouwFtJUDVMbyhI/ZMPbyghW0oHAZ7Tn6Cl9Db3LaCX6YYALpri0xxu0RnsRyPFevepOIrYyp2SvcCf663VVlm2ntfHx+uBfSgRAvzCxVMjd4RsAa2mrCToRjwgqkN94fCTz+4uxy3S21xSoHpO06+gK3X+1xTh+AxL5zxYMUH+35+Yn3fhFP1CwsXEVvHPoFT2x06CIe28kc/814fnkMNoCDWpaMg8Y/JtQTg4itsTI3knaWud5D2QkR/3979x0cx3UnePxH5JwIgAQIEkxgArMYTVIyJVnJkm2tnC17V/Y5lHfP5buq2zuX/3HV3u3t1dXu3pb3fHXr89ply2uXbMm2LFk5UYEiJeZMkGBOIDIGOd379bB7egY9wGBmAMwQ31c1mk6v+71PD4fir9/8nujr+y82mYcQEVyUQxBAAAEEEEAAAQQQQCBmgcC/6GI+FSdAILxA2axKeeCTn3OC4B3t7VJfd9KkGDlnAhkDVsXqBYusQLfXWTSA+dgXv+oEwTXXtdbXHM/6j1EtRUXF8shnviwpZqRxaFm6Yk1QELzhxnUr+F138pgZvTtkjbIOrTPe9aKSUqdKaDA/1vZrqhV3EPymq/2DJrXH8pVrnWtHs9DX2+NU0/QcoSWW9ne0t0mLGX1tv/r7A4Ere5v7XUfph5ZYru8+V0FBIIjWaAzHUzQAd7X5guw9/aYTrN645C6z7bzsOfWG2IHgpVVrTEB7/M8YdaS4jihvNiOEJ7JoEHxoeFDOmhHtxy7ss0aD2tdbYYJhoUE2e99Y7wU5/rzrelxHp/fI1MqZ86zT9JgczhqsvN7kHx2vwcUqE+yLpUTiF+v1c01QVoO++jBBR8DXmTzfdo5vHem+Y9UDzoMWd196+3pNnaaglztQ6z423PJUfv7yTCB655qHnSB4hxl5rDndrzSZ72+T4kXL3NJFsq32Y+Gab22Pxm/r8rvl0e1POC/1t8udqx5ytruPyTS56t0lVn99ULNh8Q4nCN7Yft16aHT22gnR79+aOavcl5uwZX1YpH8+1f/U5UPWfAJ2qg/dt33l/ZLiCtTbDck1we8HN33OCYLrSHq9f9ebA39/Fpo/v3ev+4Tn5zdR+q/9majvL9sq0nef+Xut3by0ZOcEPxwa7Rwa+HaXvMxUyc/gf8XdJiwjgAACCCCAAAIIIDCRAsH/Rz6RV+Lc01rgrnsfkqxbI3119PIzv/qp9Pb4JzSbN3+xfO4vviV5efmyrHaNLKxZboLcJ4K8Nmy9y0rboRvrTh0LmrCytLxCvvZXfy05OTlSYVKSLFi0VDR3t7ts2vZR5x/4Bz/cLb/79c+c3Xq9P//md531aBa0DavWbXKqXrl4zlnWhXi0X0dQazl2aJ/81oyct3Nba/u//PXvBI0Utw6M439iaf+vfvqjoJZ89S//WvShhwbE/9d/+17QvnArsVzffc6MrExntcUj4O7s9FjQwOWbh54zo7o7JT013QrI6EOYNw8+b/Jjt1sBKA2M6+jwQjNK2Cs1iMdpp2TTM2//q7T4Ag8c1tVsM6lZdlptWb1os9SbvMvjKRpoWz53nVOloe2Ks2wvaIBuVlGVtXqj1R8Av9wY+HOiudFHS69hnyfa93hdX4O/L3/4WycArH3/MxOo1QkcyworzatixKjw4+aBg77c5fF7v+MEJt3bwy1P5efvDvP50LQoWjT4/9bh55z+668gPr75i1b/NU3Q4fo91kOOcP0Yr5+OuI21xOq/asFGKxWKtkMfgLx1+HnnAazeb73/7pHisbZ3tPr6MO7FvU9J30CvdZj+GuQTH3nc+mWC/mpER3eH/vldUb3O+QWI7tPPr1308/vpO79m0j3lWn8+vT6/idR/bXe8v79si/G+d5i0bIVmNHh6enrEVfde6pG7F+dKZpr/c33seo+09jAcPGJADkQAAQQQQAABBBBAIEYBAuExAlI9MoHyW3mZ+/r65I9mgkI7CK619SfGe955Q+554BPWyTRVSmggvOnmddmjubxN4PGdN4JzcTY2XJPTxw/J2g1brfqz51SNCITbo7V7enrlhT88ZR1n/0evdWjfnohGhaelZ8iKVevtqpKekS7ls6tk3aZtkp3tDxSdP1snl0MC4fFqv44+fOHZp5wguDZE26+pXTR3+ESVWNsfa7sm4vr2RI2Rtk1TlmgQXEtjm3/Uto6s1CC4lpb2m9a7/ifDpM9I1KKBPHcQXNt58Mx7JpC9VnRUt6abCFf0AcCc0vnO7rSUdCkpLJdV8zeZ1Cb+z//Fm2ek1eQcDy2zTZ71zHR/2hvNSaxF7XSktKYXmW3ymE9kidf1dx9/1QkC2304euFD50GCBiO90qPE2rep/PzZk59q8PWdoy8G9V/zUx84+55sr73f6mJ5ceWogfDx+mlgvf5a4MGMpmhZWuVPA/X+ydelzeOz1tfvDxLHam7X1/zwWgbNZLG7j7/mBMF1m/6yQVMK1VZv0NUJL++b69tBcL1YV2+HlVpn59pHrGsX5Zu0XCE/dmnpaJL9Z941c2EMy2Ezwai76J/Bs1ePy8r5G63NM00e/9DPbyL1P5bvL3e/47GsnuMtDb4h+d4LN6V2Voa09w7JmUb/LyrGex6ORwABBBBAAAEEEEAAgegECIRH50atcQoUFvlzZusoXP1JcWhxj6DWiSxDywfvvRW6KWhdg8F2IDw7OzgHuR6Yl+/PMdvW0mhNLBlU2azcuK4jVMcOJGdmZsjn/vybodWddU358twz/+as2wsxt7/A335NM6ITc4aWSNsfWi/S9VjbH+l1wh031dcP1y739vGHRNy1J2+5tTMwEty+qj5g0uC4BsJ1ZGiaCXgPDAZS2NjHZaRlyiNbHrdXR7xryoZdh18YsV03zHGlPrlq8ijb5YZJCaOBcA0g6+hU+8GCvT/c+xfv/iszojp/xO766yfk1f2/H7E9HtfvH+gTzeceWlpd27KzckJ3T8r6RH7+Cm49HGkzDy16zcSQoaWhJfALgNEepETjpxPU6ssuxQVl9qLcNPnYw+XEdg6Kw0Ju1q3vX/P5tlPhuE+rk6VORhkcGvB8yKDBeLvku/Kp29vOXD1qZqe110a+X2qodwLhmemBX83YRyZK/7U9sXx/2f2Z6vdeE/vef6VvqpvB9RFAAAEEEEAAAQQQmJYCBMKn5W2f/E6npPrTerhzUbtb0enrcFbT0rx/ZpyekSEbttwpZbMqrMB2SkrgJ/NewW/nhGbBPrbP5Or1Kr3d3V6bI96mOcvrThyRl59/2jPQryeKpf12egAdUe9VYm2/1zlDt8XS/tBzRbM+1dePps2JWKffY3JBbec1ky/YK79wJH3QPMX1Juf43pNvegZK9RwVZrI/LRpIdI84vdZ8yYzwXWPtm1u+UE5ePGgtj/UfTRXklc8+XIqKeFy/b9D7z5+dJ3usNifr/tQZ/nkDwo201pzvdtEJZMOVZPWzv38Hwtz/vr6RDwfCGcSyXR8k2HNiuM/jfjgR7vOvf1aWVK0yD5xKrTQ27uPsX3O4z+leTpT+a5sm4vvL3VeWEUAAAQQQQAABBBBA4PYWCP8v1tu73/QuyQQWL62VRz5t8qAWh0/bMBld0oD3s0/93LmUTrTZcOOqtDQF0mI4O10LidJ+V5PGtTjV7Z+I67sDQePCuE0PPnhmt0mRsnvU3mnA+5V9TzvHaHqZ1s4WkzLG52zzWtDJQ8uLKq1deo4lc/ypLXRDVoY/XYouV86sjjgQfsCkesgxk1dq0SDfukUfsZa9/jMR1/e6DtsQSESBWUVzZOe6T5pfXkzt358TaRPJ91e8rz9DAg/j431uzocAAggggAACCCCAAAITI0AgfGJcOWscBbJz8+QTn/2KNSmVnrattdXkAD8mXZ3+fM26TQPkK9dOfI7WYRP4PnH0gF4y4hKX9t/Ke5Ca6h+ZGXrxtHFM1hVad6z1uLR/rIuMsj+e1+92fWaKZ5aOclV2eQnohI1XmwJpTbyO8dpWOXO+lW5F92kaFDufceixs4v9k2mGbvdaP3Z+n7NZA92jBcIn4vrOxVmYNgI6Ea5XSTWfv0Qt6akZcs/6R03aoyKrie1dLXL+xmnRB1J2KcgukuXzApPd2ttD35Ox/6F9iOd6fpE/d3xvz+T8IiCebedcCCCAAAIIIIAAAghMV4HE/dfbdL0jt3m/vVIZaJfTXYHc0J9+L1ux2gmCXzxfLz/55/8xQmnVuo0RBcI1nYJXSQkTYPY6drzb4tH+ri6fFBQWSn5BkWjqmIGQ9BbFM0fmVR9PO/PyC5zD3ROZ6sZ4tN85eRQL8bz+zRuBXLql5bOjaE1sVcKlHtFg1YZld1onb2ptkNNXDgddyKTwtkrKrRQVQTvNSrjPdehxU7XunmDTn0YkOKO1uuh3gz1ZZ1tns2dTw/mNlo5DTxSv63s2Kok2hvMb8/N3a1LAcJ+zcAHSJKIZtan6iwfNvZ1ncoWroT4QcpfCvMkZaR3uVyzh7ou2cU7ZAicIfrmxXp57f+QcFnPLFo0aCI+1//b3l8494FV0Et5kK3lm3o6CW3N3tLd5f18lW59oLwIIIIAAAggggAAC00GAQPh0uMsT2MfUNO8RcqGX9HW0S4kZgZtf6B+VFrp/ZtksZ5NOCOkusyoCo0RPhhmNnZs3ctI89zl6erolw+QYz8v3vn5hsX8yT3edeC3Ho/1tLc0yu2KO6UO67LjnQXnjpWed5qnpyrUbnfVoFirnzneqXaivc5Z1IR7tDzrhOFfief1rVy7J4OCg6Mj6maWBz9w4mzTuw7t6O/yBNI+J7PRkJWYCwDULtljnPXJu74hAuNYvydfJJPO9A3G5gc91V/foaUrG3fg4VKgomWudRXMc//Tlv5ehocGgsy6bt1Y+uvpha9vcsoUSGggfy68oL/Dnt6tnZP9jvX5QY5NwZSy/sT5/nT0dkpGXKXlm5LBXcU+Q6etp9zokqbe1d7Wa1D5zJD0tQ1Yt3CiHzu5x+pOZni3LbuW4dzaOsZCRmSWrzC+Ymk1KrXNnTo1xdGB3ZnqWZGfmmlREgV9D6d7CnEAg3j3SW/eVFga+585eO6GbRhQ952gl1v5bqZPM91eemQx3ZsEsaWq/EXS5KjM3gF06J/H7K9yDRbsto71Xz18sdu70ttaW0Q4dsa+yIFVyM/xpVfoGh+VCS/D34YgKbEAAAQQQQAABBBBAAIG4CXgPj43b6TnR7SjQ6QsEOhbWLI+oiy3NjdZxOoJqw5YdI+qs27jN2dZw/YqzrAs6GtouWdk59mLQ+7KVo/+su90EkrUUFhXJqnWbgurqCOvlY9QPqjDOlXi0/+jBvc5V7zSB8M88/nXZvvN+ufuBT8rX//33JC/PnyvZOWgcC4uWrJB1G/35lXu6e0zameNBtePRfvcJ+29NWKq/Aojk8xPP6+tI+pbmJqs5mk6nemGNu2kTttzq83/+MtIypXb+HSOus6I6sK25Y2S+eTswrCNvV4TU12BMjSvn9s22wKj3EReagg0avCst8I++b2i7OiIIrk26fPOc07IKkyc8tLj9VlSvD90t7m2hfvG4/ogLJtkGt180n7/WWyP0dVT0oooVI3q/Yn7gnjS3N4zYn+wbTl8+4nRhy7J75K41H7c+c2sWbZHHdnzVekDlHDDGQpF56Pofvv/f5ROf+bL8xbf+o3z6S/9ujBrBu1fO3xC8wawtnbva2aapT9zFPZGp/lnwKosqR/97PNb+t7natLBi2Ygm6Ih0u7T4Rn7/2fvi8e5+iKCT80ZbapavdKq6f2nkbBxl4eubCuW7O0qs1xMbCkc5kl0IIIAAAggggAACCCAQbwFGhMdbdBqc7/LFc6LpSzQAt+aOLSZlR7HcCAleX6w/IyePHXQ0Du/bLYtq/P8AfvBTn5eKqmq5evmCSfORZo1mnjff/w/hFhOwPnX8sFNPF65cPO+sb95+j5VCQUeGX7pQL/MXLRUNDC9YtMQ5xmvhbN0JqapeYO16+M++JDPLyuWSSbOSnZMrW++8x4wOLvOqFpdt8Wj/4f17TQB/sywx//jWn8FrPnR3TvQTRw+aYP7aMdurucQ/ep9/5G1mZraUls8SnYjS/mn9EVfA3T5ZPNpvn0vfG29eN9f0B9Me/fwT5n4fkr5bwXHdf67upNSdPKqLVon39ffveVvue/gxq88PP/Yl+Zd/+lvp7+uzLzch73UmkLakapWZWm2GfGTFfaIjaDX4qyk9Fs9Z4QQXu/s6Tf7e4BH52qC6y0dN6oL11mhwDcRlZWTL5YZ6yTTvqxdukrLCCqvdN1qvSIvP/9BpQjoSxUmrShdYf2a16vWWy55n8HW3mUk3m63J/LzyhLv9ttXeZ6VQuXyz/pZfrXkQ4A9KefnF4/qejR7HxrWLtzoGdjVNR6JFR+OuX7Ld3my9N7U1yAWTxzlexe0Xzefv5MWDsmCW/ztW87uXFVfIzZarlv+SuaukqtQfUGztbJIrjefj1ey4nSdW/4sNZ+TstePWn1NNT7J87jrrZTfw9BXz53vOKnt11Pc1G7ZKTk6Oc8zS2rWSY37R1OXrcLaNtrBu8TaTbz9Nzl8/bf0dvHTuGufz3z/YJ5fM94K7NLQEHiyvX7zd1EmR89dOWd8TpWZ09h1L7pTq8tEfCMba/zNXjlmpV/T7b83CLSbRzrBcbbwomemZ5sHeeuvXMtrm5o4GmegHKeqh19e21FZvsH7l0Nge/PDwetNFMxfCRTdj0PLyVeus//fRjTqB9p533wjaP9pKcXaKlOcH/tf7nfOBXO2j1WMfAggggAACCCCAAAIIxEcg8H/j8TkfZ5kGApo649ihfVYgVlNMaFDTDmza3dfAqjsQfvDD900Qd7XUrrnDCn77R4UHjwwfGBiQl//4W+npDv6HoY5QtgO9mZkZZiT0fdbLDsbrNevNz8sXLl5qX37E+65X/2SuvUFKTQA8KztLdt73SNAxdaeOSY0JCE9EiUf7tV2//MkP5WMmgLvS9KPQTNKlDyI6zeSPhz7cLa0tjREFwjMzM0f03e7z3vfekuefGZk/Nl7tt6+z+61XTVqATZJrRrFr3vONW/25se39QyZ1iTsQHvfrv/2abNh6l5Wqp3xWhdz/yGfkuad/aV9+Qt4vN56T4xf2m8DLHSZ4mCqrF2y2Xu6L6ef5vWOvmLQHgV9A2Ps1gHzk3B4TRNpqBcE21Nwp+nIXTTuy6/Dz7k0JsVxZOt9px7XG8BNtNpggfpF5QKDpX2YWlJv0CYGRxcF+abJ20Vbr5ZzYLITzi8f13deJZvmOxTustBpedTVdxKYlHw3adery4bgGwoP9xv/506D8yUsHZdnctdakp2vN5zC0DAz2yztHXhR9T7QSD/9X9j0jTTU3zAOtNSYVif/7t8v8WT12YZ90dLZGHAg3n9QgHvM1bn2XB20Ms6JpT9RXvwf0FVoO1+8RfajkLg2tV6XOBOprTKBef5GyeelO62UHg/VYnTxz/q0HHe667uVY+q8T7J66dMj5/FjfXSGxd02XpN9/ofnX3W2Ix7J+r+iDHZ0cVL+LF85ear3c5/6wblfYQHiumU/jgU9+znl4rA9WO03qt0jL0rJ051BNi/Le+V5nnQUEEEAAAQQQQAABBBCYeAEC4RNvfFte4elf/as0NTZYwfDCohIruO3uqOZhDi1P/eJfZOuFe80I7I9ZAVA7v6YGwHXU7yvPP22N8g6tp+t/+M0vRHOHawoPe2JNrd/f3y8njhyQgyYYbAfCBwcHRpxCU2L8/P/+ozzy6S+JpgKxR0C3tbZKfd1x0eC+HQjXQGy8S6ztt9vzynNPi750BKGOCmxv8/8MfvP2u+1DIn7Xe9R0s0FuXLss58+ekg/ffzts3Xi1Xy/Q2tIkv/jxP8m9Dz0qFXPmWQFx94W97l88r6/3d9erz1upCfRzoA9lSmaWyduvvzCufL3a5sGQXNfufoQuv33kBdG0JXfU7HBGQOoxGpBqNNs1CHSt+VJoNWd99/HXzGjJRtm47C4r1669QwNHl26elXePvSztncFpEexjxtNOu0683suL/KPVNYA3Wv90nz2qVtOjuAPh2pZo/eJ1/dE8hoYD3xmh+c+1nnv/aOex93mdw97nfh/PfY3Wz77em4ees0b0rzcjkvNziqwRtbpPJz+91nzB+vxG+2sEt0+kfddrR3qs+/xab6wS7rz7694VfWlAWUdW9/Z3W6da4kpNNNa59+99V9Zv2i6ammloaEiO7N8TcSBVH/a89MFTVmqWssJK51J9A73y4em35HD9Xmebe2HX4RdEc7evnL9R7F8i6Iho/TOpo9k1MGwHwsP1Xc8XS//186O5wdfXbJfsjFynefr9p8H6d4++ZL07O1wL4/mcu6qFXdx15E/mFyiNstQ81NAJekMn8fQy0Am1t+y4WzZtu1uKzINoLc1NjebvjRfDXsdrxxJXIHzf5W7p6g9+MOJVh20IIIAAAggggAACCCAQP4EZtbW1Qf8Xbuca9vlGjkqM32UT90zTvf+TdWd0VJWOxh0wgewrJkVKpMHndDPhZUXlPGvSTR05ft0EccczGkv7p0HkKjM5ZG9vjxUAn6w+63Xi0X6v9mpQecfdD1i7Xnz2N7J716teh8W8baLaH2nD4nn99Zu3yUOf+oLzYEWDTIf2vS+/+/XPIm1O1MdlZ+ZZo581DK4BXw1kjafkmlHEml5lwKRC0HQCGoycTiVWv+lk5dXXWP00EFyQW2wmnh0wAcUmazS+13Wmy7a1iz8iW5b5H0a+efg5K7A8Vt/1gaxOstjYEJyWw6vepz7yFZldMk96zIjwn738D9YhOkGsBnE7TYBb8+Lr99dYJcWMgNZfXeRk5pvvnB5p9TWN+7vH6xrj7b/9/TU41G8e7t0UTemSyKV89hz54lf/UopLZjrNbGy4If/20/9tHiYHT/zpHBBm4W/umykluanW3r97o0kutQYeooWpwmYEEEAAAQQQQAABBBCIowAjwuOIyakiF9Dg9blx/JzYPrPmcr54/oy9GtW75mI9fSIw+VlUJ4myUjzaH3rpktJy0TyzdmlsuG4vxv19Ito/nkbG8/r797wr3Sa/68OPPW5NNqq/MNAR6pNRNP2JVwqUSK+twS99TdcSq990dbP7HaufPrhpbJu47xm7ncnwrkHlxZX+OQ+0vS0ek9169UNTPsVSNIitr/EUHemsQfPQCWXHc47QY6Ppf7J9f+WbSb7tILiO4j9nUrH94amfmwcZ/kmQQ03CrZfmpjhB8HPNJp87QfBwVGxHAAEEEEAAAQQQQGDCBAiETxgtJ0Yg/gJf/fZ/kszsbOfEmuNUJ/50p3o5Xx+/SfacC92mC5pW54zJD3/H5u2yev0WSTWTt1IQQAABL4GPb/6CmeAxy9mlI6xL8s33r0mToqW9q8WkP7p9HxBM1/5rGrHe3l45aSal3vPO63Ll0nnrfo/3P8tcaVF21fvT6oz3HByPAAIIIIAAAggggAACsQkQ9YnNj9oITKpAVfUC0QlKvUqXGd38wu9/LTpqmhK5gHq9//br1kvT5lAQQAABL4HKmfOtCRa99nX1dormwfbKL+11fDJum6791zk0/uG//pcRE3mP9x7WlGVYVTp6B2X/lfGlwxrvtTgeAQQQQAABBBBAAAEEvAUIhHu7sBWBhBTQST110i536e70WROX7nnnDWfyTPd+liMX0LQ5FAQQQMBLQCeltX99Y+/v6e2SFjPx4vHzB5zJM+198Xq/YSaT7DN5tPsHpvYh51T1P16OsZxH5ySJtfz+aKe8dLpLeswEmQNDsZ6N+ggggAACCCCAAAIIIBCNAJNlhqgxWWYICKsIIIAAAggggAACCCCAAAIIIIAAAggggECSC/gTWyZ5J2g+AggggAACCCCAAAIIIIAAAggggAACCCCAAALhBAiEh5NhOwIIIIAAAggggAACCCCAAAIIIIAAAggggMBtIUAg/La4jXQCAQQQQAABBBBAAAEEEEAAAQQQQAABBBBAIJwAgfBwMmxHAAEEEEAAAQQQQAABBBBAAAEEEEAAAQQQuC0ECITfFreRTiCAAAIIIIAAAggggAACCCCAAAIIIIAAAgiEEyAQHk6G7QgggAACCCCAAAIIIIAAAggggAACCCCAAAK3hUDabdGLOHbC5/PF8WycCgEEEEAAAQQQQAABBBBAAAEEEEAAAQQQQGCqBRgRPtV3gOsjgAACCCCAAAIIIIAAAggggAACCCCAAAIITKgAgfAJ5eXkCCCAAAIIIIAAAggggAACCCCAAAIIIIAAAlMtQCB8qu8A10cAAQQQQAABBBBAAAEEEEAAAQQQQAABBBCYUAEC4RPKy8kRQAABBBBAAAEEEEAAAQQQQAABBBBAAAEEplqAQPhU3wGujwACCCCAAAIIIIAAAggggAACCCCAAAIIIDChAgTCJ5SXkyOAAAIIIIAAAggggAACCCCAAAIIIIAAAghMtQCB8Km+A1wfAQQQQAABBBBAAAEEEEAAAQQQQAABBBBAYEIFCIRPKC8nRwABBBBAAAEEEEAAAQQQQAABBBBAAAEEEJhqAQLhU30HuD4CCCCAAAIIIIAAAggggAACCCCAAAIIIIDAhAqkTejZb6OTf+GJb0tV9ULp7uqS9tZmOXJgrxz44L3bqId0BQEEEEAAAQQQQAABBBBAAAEEEEAAAQQQuD0FCIRHeF+zs3MlLy/fepWVz5JFS5bLstq18quf/SjCM3AYAggggAACCCCAAAIIIIAAAggggAACCCCAwFQIpJaXl//AfeGMjAxrta+vz7152i9nZmVLV6dP0tIzJCc31/IoLZ8tnb4OuXrpwrT3AQABBBBAAAEEEEAAAQQQQAABBBBAAAEEEEhUAUaER3hn3n/7NefIhx79vGzettNar6yqdrazgAACCCCAAAIIIIAAAggggAACCCCAAAIIIJB4AkyWGcU9OXHkgFMrO8c/OtzZwAICCCCAAAIIIIAAAggggAACCCCAAAIIIIBAQgkQCI/idgwNDTm1+np7nGUWEEAAAQQQQAABBBBAAAEEEEAAAQQQQAABBBJPgEB4FPckv6DIqdXp8znLLCCAAAIIIIAAAggggAACCCCAAAIIIIAAAggkngCB8CjuSX5BgVOrs7PDWWYBAQQQQAABBBBAAAEEEEAAAQQQQAABBBBAIPEECIRHcU9ycvOdWl0+AuEOBgsIIIAAAggggAACCCCAAAIIIIAAAggggEACChAIj+KmDA8PO7XyCwNpUpyNLCCAAAIIIIAAAggggAACCCCAAAIIIIAAAggkjACB8ChuRdPNG06t6gU1kpKa6qyzgAACCCCAAAIIIIAAAggggAACCCCAAAIIIJBYAjNqa2sDw5tN2/Ly8qwW+pgEctQ79dkvf0OWr1onKSkp4jPpUdpbW2RwcMCq09bSLL958sej1mcnAggggAACCCCAAAIIIIAAAggggAACCCCAwOQIpE3OZW6/q7zw7FNSWFwiVfMWmIcH+dbL7mVOrv9hgr3OOwIIIIAAAggggAACCCCAAAIIIIAAAggggMDUCRAIj8JeU6F85RvflfJZFVbt9vY2/4jwgVsjwlubozgrVRBAAAEEEEAAAQQQQAABBBBAAAEEEEAAAQQmQoBAeBSqazdscYLgZ0+fkCd/8kMZGhyM4kxUQQABBBBAAAEEEEAAAQQQQAABBBBAAAEEEJhoASbLjEK4uKTMqXXhXB1BcEeDBQQQQAABBBBAAAEEEEAAAQQQQAABBBBAIPEECITHeE862lpjPAPVEUAAAQQQQAABBBBAAAEEEEAAAQQQQAABBCZSgEB4FLqdvg6nVo6ZKJOCAAIIIIAAAggggAACCCCAAAIIIIAAAgggkLgCBMKjuDe+jnanVi6BcMeCBQQQQAABBBBAAAEEEEAAAQQQQAABBBBAIBEFCIRHcVc62gPpUHJzGREeBSFVEEAAAQQQQAABBBBAAAEEEEAAAQQQQACBSRMgEB4FdWpKqlMrMyvLWWYBAQQQQAABBBBAAAEEEEAAAQQQQAABBBBAIPEECIRHcU+Wr17v1BocHHSWWUAAAQQQQAABBBBAAAEEEEAAAQQQQAABBBBIPIG0xGtSYrZoxz0PyuyKKqmcO19KZpY6jbxQX+css4AAAggggAACCCCAAAIIIIAAAggggAACCCCQeAIEwiO8JzVLV0r1wsVBR586dlj2vPN60DZWEEAAAQQQQAABBBBAAAEEEEAAAQQQQAABBBJLgEB4hPfD19Em7W1t0t3dKe2tzXJ4/x7z2hthbQ5DAAEEEEAAAQQQQAABBBBAAAEEEEAAAQQQmCqBGbW1tcPui+fl5VmrPp/PvZllBBBAAAEEEEAAAQQQQAABBBBAAAEEEEAAAQSSUoDJMpPyttFoBBBAAAEEEEAAAQQQQAABBBBAAAEEEEAAgUgFCIRHKsVxCCCAAAIIIIAAAggggAACCCCAAAIIIIAAAkkpQCA8KW8bjUYAAQQQQAABBBBAAAEEEEAAAQQQQAABBBCIVIBAeKRSHIcAAggggAACCCCAAAIIIIAAAggggAACCCCQlAIEwpPyttFoBBBAAAEEEEAAAQQQQAABBBBAAAEEEEAAgUgFCIRHKsVxCCCAAAIIIIAAAggggAACCCCAAAIIIIAAAkkpQCA8KW8bjUYAAQQQQAABBBBAAAEEEEAAAQQQQAABBBCIVIBAeKRSHIcAAggggAACCCCAAAIIIIAAAggggAACCCCQlAIEwpPyttFoBBBAAAEEEEAAAQQQQAABBBBAAAEEEEAAgUgFCIRHKsVxCCCAAAIIIIAAAggggAACCCCAAAIIIIAAAkkpQCA8KW8bjUYAAQQQQAABBBBAAAEEEEAAAQQQQAABBBCIVIBAeKRSHIcAAggggAACCCCAAAIIIIAAAggggAACCCCQlAIEwpPyttFoBBBAAAEEEEAAAQQQQAABBBBAAAEEEEAAgUgFCIRHKsVxCCCAAAIIIIAAAggggAACCCCAAAIIIIAAAkkpQCA8KW8bjUYAAQQQQAABBBBAAAEEEEAAAQQQQAABBBCIVIBAeKRSHIcAAggggAACCCCAAAIIIIAAAggggAACCCCQlAIEwpPyttFoBBBAAAEEEEAAAQQQQAABBBBAAAEEEEAAgUgFCIRHKsVxCCCAAAIIIIAAAggggAACCCCAAAIIIIAAAkkpQCA8KW8bjUYAAQQQQAABBBBAAAEEEEAAAQQQQAABBBCIVIBAeKRSHIcAAggggAACCCCAAAIIIIAAAggggAACCCCQlAIEwpPyttFoBBBAAAEEEEAAAQQQQAABBBBAAAEEEEAAgUgF0iI9kOMSR+DemiyZW5Qu/YPD8uR+X+I0jJYggAACCCCAAAIIIIAAAggggAACCCCAAAIJKMCI8AS8KWM1aUlphmyoypY7zIuCAAIIIIAAAggggAACCCCAAAIIIIAAAgggMLoAgfDRfdiLAAIIIIAAAggggAACCCCAAAIIIIAAAgggkOQCBMKT/AbSfAQQQAABBBBAAAEEEEAAAQQQQAABBBBAAIHRBcgRPrqPs7e6OFV2LPCnInntTLfMmCGyenaG1M7KlIzUGXK1fUA+vNwjx270O3W8FgoyU2Tl7HRZODNdqoszpLNvUM4198vZpn45dr1fhj0qaU7w2fmBWzWnMN06Ki1lhjy+Pm9EjcttA/Lm2Z6g7Q8vz5Gi7BS52TkoL53qDtqnK7PyU+RjNTnW9g8v98rJhuB+xNr/+5dmS1luqrR2D8lLp7tkRXm6ccg0DhnS1jMoF1sH5JXT3cZjaETbQjekmsc32p/VFVnS0Tsor9R1WXahx7GOAAIIIIAAAggggAACCCCAAAIIIIAAAgioQCC6iseoAqU5qbK12h8objDB5IeX5UmqCUTbpcpMXrlpXra8cbZTfnu4094c9F6elyLf2VYsxeZcgZImNaWZ1uruC13ySzP5ZWgwfIUJti8t8x8TqCeil7fb5N5++FrPiED46opM0QD69Y4Bz0B4YVagf1dMUD80EB5r/1eZoPeCEn/QOytthuxcnOs0WYP82r/N87Lkn99tlSttg84+r4V1lRly3xL/AwCtq6/vv9gkg2PH0L1OxzYEEEAAAQQQQAABBBBAAAEEEEAAAQQQuM0FCIRHcYM1CD5ggq77LneZEczDUlUUCGbvXJQrJxr6RoxQnpmTIt/dUSwacNZy/EaPNRI8My1F1lVmyszcNCeo/aQJhrtLc9egFcC2txVnp0qmCSZr0cB2aPHaFnpMLOvR9N++nvZ/x8IcuWHafepmr+io9jWVWZKbkSIFmanyhbX58vdvtY54GGDX13f36HhdzzP18k391h4i4epBQQABBBBAAAEEEEAAAQQQQAABBBBAAIFgAQLhwR4Rr/3t603S2BkIvN69OEseW1Vg1dcUI8eutwWda11VhhMEf+Zou7xWF0hd8qeTnfLd7cUyrzhdtszLkaePdEp3f2BceGhg/NtbC6R2dpb0DQ7L37zaHHSdyVoZb//d7Tpxo1f+395262GCbv/j8S75zzuLTeqWVGvUeGVh6qijwvde6pG7zYhy+2HAses9BMHdwCwjgAACCCCAAAIIIIAAAggggAACCCCAQJAAk2UGcUS2squ+KygIrrXeONMjN33+0dmzXPm87TMuNmlBtLR2D1rH2tv1vddU+9NJ/yhwzT2+eGZiP5+Ipv/u/j59xOcEwXV7e++QvHYmkE6mIt+dOsZd07/c4BuS771wU36yt1X+8e1m+T+720cexBYEEEAAAQQQQAABBBBAAAEEEEAAAQQQQOCWAIHwKD4K1zzSkej47au3tmuKD5PxJKhUl/gnuNS6Q4HB3s4x7rzYC24d6+xMsIVo+m93oWdg2EzYGRhJb2+/3hHIC56fFYJnH+R614cH+6/0yZnGkalhXIexiAACCCCAAAIIIIAAAggggAACCCCAAAIIMFlmNJ+BXhPM9Sp1jX2SGpg/M+iQjFR/cLfCjBb/2qb8oH264p54MyPcSUbUmpoN0fTfbmmvJlf3KGE2exzJJgQQQAABBBBAAAEEEEAAAQQQQAABBBBAYHwCiZ2DY3x9mfKjNT2KvkYrmgd7/Zzs0Q5J2n2R9D9pO0fDEUAAAQQQQAABBBBAAAEEEEAAAQQQQCBpBQiET/KtazB5xN8+1zXqVesa+0fdz04EEEAAAQQQQAABBBBAAAEEEEAAAQQQQACByAUIhEduFdORw7eyqWh+7dfHGDUe04XGqBwu60pKmJQuY5yO3QgggAACCCCAAAIIIIAAAggggAACCCCAQMILjD0rYcJ3ITkaeKPDP8q7xKRGmYrS1uOfjLI4J1W8gt6lOYGPQmtXYOLKqWhrJNesLEiVmtI061VdPDWmkbSTYxBAAAEEEEAAAQQQQAABBBBAAAEEEEBg6gUYET5J9+Bsc7/ML8mQqsJ0mVuUKpdag4PN9y/NlvuX5FmtefpIu7x7vjdsy3puTdapk2pWFqbK1bbgc3lVvNYxKCtmiaSZKPiWeZny3oXA+XUw+NbqQN7ySxGcz+sak7nt65sKpdxMPKrlpkk384NXmifz8lwLAQQQQAABBBBAAAEEEEAAAQQQQAABBJJIgED4JN2sEzf65J7FuTLDRJ2/taVIfne0Q842DUhRdoosNiObP74sT1JNkFpTqIyVI/xq+4Dccavd3zQB4Q8u90jPwJDTk1M3+0cE2j+41CM7F+Vao8E/u6ZA8rJ8om3KzUiRe2tyrCC9nuBsU580dgbO5Zw0gRaKjZkdBNdmvXN+9JzrCdR0moIAAggggAACCCCAAAIIIIAAAggggAACUyBAIHyS0E809MtvzUjvx1YVmOB3qjyxscjzys+d6JAG3+iB6F31PXLnwhwpzEqV0rw0edAE0d1FrxM64lzXXz7tkweW5km6GUn+yRX55uWuJSaYPiy/PNAevDEB15aWpTut6hsclvdGGT3vHMgCAggggAACCCCAAAIIIIAAAggggAACCExbAQLhEd76gaFbs11GeLzXYW+YSTJ7+odl+/xskx4l3RoBbh93saVfXjKB6oNX/bnE7e1e713mHP/zzRZ5dGWuGU2eYQXE3ccNhMmU8sfjXSaNyoCply+aK9wu2rWj13vkqUM+aen2DsLHo//29bze3ecP13673hJXIHzf5W5RDwoCCCCAAAIIIIAAAggggAACCCCAAAIIIBBOYEZtbW1QFDEvzz+62OfzhavD9jgIpJm5KeeY/N5aGjuHpbPPOwAdh0t5niI/M0VKc1NER1TfMPnDXZlVPI9PpI1/c99MKcn12/3dG00jRr8nUltpCwIIIIAAAggggAACCCCAAAIIIIAAAghMvQAjwqfoHmjg+UJLmKHbk9Cmjt4h0VeyFQ3e20Hwc819BMGT7QbSXgQQQAABBBBAAAEEEEAAAQQQQAABBKZAwIxLpiCQPALLXGlRdtV3J0/DaSkCCCCAAAIIIIAAAggggAACCCCAAAIITJkAgfApo+fC0QjUlGVY1Tp6B2X/ld5oTkEdBBBAAAEEEEAAAQQQQAABBBBAAAEEEJhmAqRGmWY3PNm7+/ujnWZS0S5r0tFkymue7O60HwEEEEAAAQQQQAABBBBAAAEEEEAAgWQWIBCezHdvGra9pXtIWsiIMg3vPF1GAAEEEEAAAQQQQAABBBBAAAEEEEAgegFSo0RvR00EEEAAAQQQQAABBBBAAAEEEEAAAQQQQACBJBAgEJ4EN4kmIoAAAggggAACCCCAAAIIIIAAAggggAACCEQvQCA8ejtqIoAAAggggAACCCCAAAIIIIAAAggggAACCCSBAIHwJLhJNBEBBBBAAAEEEEAAAQQQQAABBBBAAAEEEEAgegEC4dHbURMBBBBAAAEEEEAAAQQQQAABBBBAAAEEEEAgCQQIhCfBTaKJCCCAAAIIIIAAAggggAACCCCAAAIIIIAAAtELpIVW9fl8oZtYRwABBBBAAAEEEEAAAQQQQAABBBBAAAEEEEAgaQUYEZ60t46GI4AAAggggAACCCCAAAIIIIAAAggggAACCEQiQCA8EiWOQQABBBBAAAEEEEAAAQQQQAABBBBAAAEEEEhaAQLhSXvraDgCCCCAAAIIIIAAAggggAACCCCAAAIIIIBAJAIEwiNR4hgEEEAAAQQQQAABBBBAAAEEEEAAAQQQQACBpBUgEJ60t46GI4AAAggggAACCCCAAAIIIIAAAggggAACCEQiQCA8EiWOQQABBBBAAAEEEEAAAQQQQAABBBBAAAEEEEhaAQLhSXvraDgCCCCAAAIIIIAAAggggAACCCCAAAIIIIBAJAIEwiNR4hgEEEAAAQQQQAABBBBAAAEEEEAAAQQQQACBpBUgEJ60t46GI4AAAggggAACCCCAAAIIIIAAAggggAACCEQikBbJQXrMF574tlRVL5Turi5pb22WIwf2yoEP3ou0OschgAACCCCAAAIIIIAAAggggAACCCCAAAIIIDAlAhEHwrOzcyUvL996lZXPkkVLlsuy2rXyq5/9aEoazkURQAABBBBAAAEEEEAAAQQQQAABBBBAAAEEEIhEILW8vPwHkRyYmZUtXZ0+SUvPkJzcXKtKafls6fR1yNVLFyI5BccggAACCCCAAAIIIIAAAggggAACCCCAAAIIIDDpAhGPCH//7decxj306Odl87ad1nplVbWznQUEEEAAAQQQQAABBBBAAAEEEEAAAQQQQAABBBJNIKrJMk8cOeD0IzvHPzrc2cACAggggAACCCCAAAIIIIAAAggggAACCCCAAAIJJBBVIHxoaMjpQl9vj7PMAgIIIIAAAggggAACCCCAAAIIIIAAAggggAACiSYQVSA8v6DI6Uenz+css4AAAggggAACCCCAAAIIIIAAAggggAACCCCAQKIJRBkIL3D60dnZ4SyzgAACCCCAAAIIIIAAAggggAACCCCAAAIIIIBAoglEFQjPyc13+tHlIxDuYLCAAAIIIIAAAggggAACCCCAAAIIIIAAAgggkHACUQXCh4eHnY7kFwbSpDgbWUAAAQQQQAABBBBAAAEEEEAAAQQQQAABBBBAIEEEogqEN9284TS/ekGNpKSmOussIIAAAggggAACCCCAAAIIIIAAAggggAACCCCQSAIzamtrA8O7x9Gyz375G7J81TpJSUkRn0mP0t7aIoODA9YZ2lqa5TdP/ngcZ+NQBBBAAAEEEEAAAQQQQAABBBBAAAEEEEAAAQQmRiAt2tO+8OxTUlhcIlXzFkheXr71ss+Vk5tnL/KOAAIIIIAAAggggAACCCCAAAIIIIAAAggggMCUCkQVCNdUKF/5xnelfFaF1fj29jb/iPCBWyPCW5untFNcHAEEEEAAAQQQQAABBBBAAAEEEEAAAQQQQAABWyCqQPjaDVucIPjZ0yfkyZ/8UIYGB+1z8o4AAggggAACCCCAAAIIIIAAAggggAACCCCAQMIIRDVZZnFJmdOBC+fqCII7GiwggAACCCCAAAIIIIAAAggggAACCCCAAAIIJJpAVIFwdyc62lrdqywjgAACCCCAAAIIIIAAAggggAACCCCAAAIIIJBQAlEFwjt9HU4ncswA1m/vAAACI0lEQVREmRQEEEAAAQQQQAABBBBAAAEEEEAAAQQQQAABBBJVIKpAuK+j3elPLoFwx4IFBBBAAAEEEEAAAQQQQAABBBBAAAEEEEAAgcQTiCoQ3tEeSIeSm8uI8MS7rbQIAQQQQAABBBBAAAEEEEAAAQQQQAABBBBAwBaIKhCempJq15fMrCxnmQUEEEAAAQQQQAABBBBAAAEEEEAAAQQQQAABBBJNIKpA+PLV651+DA4OOsssIIAAAggggAACCCCAAAIIIIAAAggggAACCCCQaAJpkTZoxz0PyuyKKqmcO19KZpY61S7U1znLLCCAAAIIIIAAAggggAACCCCAAAIIIIAAAgggkGgCEQfCa5aulOqFi4Paf+rYYdnzzutB21hBAAEEEEAAAQQQQAABBBBAAAEEEEAAAQQQQCCRBCIOhPs62qS9rU26uzulvbVZDu/fY157E6kvtAUBBBBAAAEEEEAAAQQQQAABBBBAAAEEEEAAgRECM2pra4dHbGUDAggggAACCCCAAAIIIIAAAggggAACCCCAAAK3iUBUk2XeJn2nGwgggAACCCCAAAIIIIAAAggggAACCCCAAALTQIBA+DS4yXQRAQQQQAABBBBAAAEEEEAAAQQQQAABBBCYzgIEwqfz3afvCCCAAAIIIIAAAggggAACCCCAAAIIIIDANBAgED4NbjJdRAABBBBAAAEEEEAAAQQQQAABBBBAAAEEprPA/wf7WMU8GXpCPwAAAABJRU5ErkJggg==;" parent="1" vertex="1">
          <mxGeometry x="632.97" y="519" width="557.03" height="130" as="geometry" />
        </mxCell>
        <mxCell id="jz5FCo_KHYX5uSRo76Uy-41" value="" style="edgeStyle=orthogonalEdgeStyle;rounded=0;orthogonalLoop=1;jettySize=auto;html=1;" parent="1" source="jz5FCo_KHYX5uSRo76Uy-38" target="jz5FCo_KHYX5uSRo76Uy-40" edge="1">
          <mxGeometry relative="1" as="geometry" />
        </mxCell>
        <mxCell id="jz5FCo_KHYX5uSRo76Uy-38" value="检查Pag文件和屏幕是否可用&lt;br&gt;（如果Pag缩放后有不能展示的区域，则不播放）" style="whiteSpace=wrap;html=1;fontFamily=Comic Sans MS;rounded=1;" parent="1" vertex="1">
          <mxGeometry x="1190" y="90" width="190" height="70" as="geometry" />
        </mxCell>
        <mxCell id="jz5FCo_KHYX5uSRo76Uy-43" value="" style="edgeStyle=orthogonalEdgeStyle;rounded=0;orthogonalLoop=1;jettySize=auto;html=1;" parent="1" source="jz5FCo_KHYX5uSRo76Uy-40" target="jz5FCo_KHYX5uSRo76Uy-42" edge="1">
          <mxGeometry relative="1" as="geometry" />
        </mxCell>
        <mxCell id="jz5FCo_KHYX5uSRo76Uy-40" value="state = RUNNING" style="whiteSpace=wrap;html=1;fontFamily=Comic Sans MS;rounded=1;fillColor=#dae8fc;strokeColor=#6c8ebf;" parent="1" vertex="1">
          <mxGeometry x="1225" y="190" width="120" height="60" as="geometry" />
        </mxCell>
        <mxCell id="jz5FCo_KHYX5uSRo76Uy-45" value="" style="edgeStyle=orthogonalEdgeStyle;rounded=0;orthogonalLoop=1;jettySize=auto;html=1;" parent="1" source="jz5FCo_KHYX5uSRo76Uy-42" target="jz5FCo_KHYX5uSRo76Uy-44" edge="1">
          <mxGeometry relative="1" as="geometry" />
        </mxCell>
        <mxCell id="jz5FCo_KHYX5uSRo76Uy-42" value="addAnimationLayer()" style="whiteSpace=wrap;html=1;fontFamily=Comic Sans MS;rounded=1;" parent="1" vertex="1">
          <mxGeometry x="1217.5" y="280" width="135" height="60" as="geometry" />
        </mxCell>
        <mxCell id="jz5FCo_KHYX5uSRo76Uy-51" value="" style="edgeStyle=orthogonalEdgeStyle;rounded=0;orthogonalLoop=1;jettySize=auto;html=1;" parent="1" source="jz5FCo_KHYX5uSRo76Uy-44" target="jz5FCo_KHYX5uSRo76Uy-50" edge="1">
          <mxGeometry relative="1" as="geometry" />
        </mxCell>
        <mxCell id="jz5FCo_KHYX5uSRo76Uy-44" value="mPagView.player()" style="whiteSpace=wrap;html=1;fontFamily=Comic Sans MS;rounded=1;" parent="1" vertex="1">
          <mxGeometry x="1225" y="370" width="120" height="60" as="geometry" />
        </mxCell>
        <mxCell id="jz5FCo_KHYX5uSRo76Uy-50" value="结束" style="ellipse;whiteSpace=wrap;html=1;fontFamily=Comic Sans MS;rounded=1;" parent="1" vertex="1">
          <mxGeometry x="1212.5" y="470" width="145" height="70" as="geometry" />
        </mxCell>
        <mxCell id="jz5FCo_KHYX5uSRo76Uy-56" style="edgeStyle=orthogonalEdgeStyle;rounded=0;orthogonalLoop=1;jettySize=auto;html=1;exitX=0.5;exitY=1;exitDx=0;exitDy=0;" parent="1" source="jz5FCo_KHYX5uSRo76Uy-54" target="jz5FCo_KHYX5uSRo76Uy-55" edge="1">
          <mxGeometry relative="1" as="geometry" />
        </mxCell>
        <mxCell id="jz5FCo_KHYX5uSRo76Uy-54" value="下载PAGFile" style="whiteSpace=wrap;html=1;rounded=1;fontFamily=Comic Sans MS;fillColor=#f8cecc;strokeColor=#b85450;" parent="1" vertex="1">
          <mxGeometry x="1470" y="90" width="120" height="60" as="geometry" />
        </mxCell>
        <mxCell id="jz5FCo_KHYX5uSRo76Uy-58" value="" style="edgeStyle=orthogonalEdgeStyle;rounded=0;orthogonalLoop=1;jettySize=auto;html=1;" parent="1" source="jz5FCo_KHYX5uSRo76Uy-55" target="jz5FCo_KHYX5uSRo76Uy-57" edge="1">
          <mxGeometry relative="1" as="geometry" />
        </mxCell>
        <mxCell id="jz5FCo_KHYX5uSRo76Uy-55" value="下载" style="whiteSpace=wrap;html=1;fontFamily=Comic Sans MS;rounded=1;" parent="1" vertex="1">
          <mxGeometry x="1470" y="190" width="120" height="60" as="geometry" />
        </mxCell>
        <mxCell id="jz5FCo_KHYX5uSRo76Uy-60" value="Y" style="edgeStyle=orthogonalEdgeStyle;rounded=0;orthogonalLoop=1;jettySize=auto;html=1;" parent="1" source="jz5FCo_KHYX5uSRo76Uy-57" target="jz5FCo_KHYX5uSRo76Uy-59" edge="1">
          <mxGeometry relative="1" as="geometry" />
        </mxCell>
        <mxCell id="jz5FCo_KHYX5uSRo76Uy-62" value="" style="edgeStyle=orthogonalEdgeStyle;rounded=0;orthogonalLoop=1;jettySize=auto;html=1;" parent="1" source="jz5FCo_KHYX5uSRo76Uy-57" target="jz5FCo_KHYX5uSRo76Uy-61" edge="1">
          <mxGeometry relative="1" as="geometry" />
        </mxCell>
        <mxCell id="jz5FCo_KHYX5uSRo76Uy-68" value="N" style="edgeLabel;html=1;align=center;verticalAlign=middle;resizable=0;points=[];" parent="jz5FCo_KHYX5uSRo76Uy-62" vertex="1" connectable="0">
          <mxGeometry x="-0.0633" y="-1" relative="1" as="geometry">
            <mxPoint as="offset" />
          </mxGeometry>
        </mxCell>
        <mxCell id="jz5FCo_KHYX5uSRo76Uy-57" value="下载结果" style="rhombus;whiteSpace=wrap;html=1;fontFamily=Comic Sans MS;rounded=1;" parent="1" vertex="1">
          <mxGeometry x="1475" y="290" width="110" height="80" as="geometry" />
        </mxCell>
        <mxCell id="jz5FCo_KHYX5uSRo76Uy-64" value="" style="edgeStyle=orthogonalEdgeStyle;rounded=0;orthogonalLoop=1;jettySize=auto;html=1;" parent="1" source="jz5FCo_KHYX5uSRo76Uy-59" target="jz5FCo_KHYX5uSRo76Uy-65" edge="1">
          <mxGeometry relative="1" as="geometry">
            <mxPoint x="1530" y="542.5" as="targetPoint" />
          </mxGeometry>
        </mxCell>
        <mxCell id="jz5FCo_KHYX5uSRo76Uy-59" value="loadPagFile&lt;br&gt;state = DOWNLOAD" style="whiteSpace=wrap;html=1;fontFamily=Comic Sans MS;rounded=1;fillColor=#dae8fc;strokeColor=#6c8ebf;" parent="1" vertex="1">
          <mxGeometry x="1460" y="400" width="140" height="65" as="geometry" />
        </mxCell>
        <mxCell id="jz5FCo_KHYX5uSRo76Uy-67" style="edgeStyle=orthogonalEdgeStyle;rounded=0;orthogonalLoop=1;jettySize=auto;html=1;exitX=0.5;exitY=1;exitDx=0;exitDy=0;entryX=1;entryY=0.5;entryDx=0;entryDy=0;" parent="1" source="jz5FCo_KHYX5uSRo76Uy-61" target="jz5FCo_KHYX5uSRo76Uy-65" edge="1">
          <mxGeometry relative="1" as="geometry" />
        </mxCell>
        <mxCell id="jz5FCo_KHYX5uSRo76Uy-61" value="state = DOWNLOAD_ERROR" style="whiteSpace=wrap;html=1;fontFamily=Comic Sans MS;rounded=1;fillColor=#dae8fc;strokeColor=#6c8ebf;" parent="1" vertex="1">
          <mxGeometry x="1660" y="300" width="180" height="60" as="geometry" />
        </mxCell>
        <mxCell id="jz5FCo_KHYX5uSRo76Uy-65" value="结束" style="ellipse;whiteSpace=wrap;html=1;fontFamily=Comic Sans MS;rounded=1;" parent="1" vertex="1">
          <mxGeometry x="1457.5" y="481.25" width="145" height="70" as="geometry" />
        </mxCell>
        <mxCell id="jz5FCo_KHYX5uSRo76Uy-77" value="&lt;font style=&quot;font-size: 20px;&quot;&gt;老的Android全屏动画特效逻辑&lt;/font&gt;" style="text;html=1;strokeColor=none;fillColor=none;align=center;verticalAlign=middle;whiteSpace=wrap;rounded=0;" parent="1" vertex="1">
          <mxGeometry x="90" y="-50" width="320" height="40" as="geometry" />
        </mxCell>
        <mxCell id="3UxPf9taXEpscqPvkn2j-25" value="" style="edgeStyle=orthogonalEdgeStyle;rounded=0;orthogonalLoop=1;jettySize=auto;html=1;" edge="1" parent="1" source="3UxPf9taXEpscqPvkn2j-2" target="3UxPf9taXEpscqPvkn2j-24">
          <mxGeometry relative="1" as="geometry" />
        </mxCell>
        <mxCell id="3UxPf9taXEpscqPvkn2j-2" value="Clock" style="rounded=1;whiteSpace=wrap;html=1;fillColor=#f8cecc;strokeColor=#b85450;fontFamily=Comic Sans MS;" vertex="1" parent="1">
          <mxGeometry x="136.25" y="890" width="120" height="60" as="geometry" />
        </mxCell>
        <mxCell id="3UxPf9taXEpscqPvkn2j-40" style="edgeStyle=orthogonalEdgeStyle;rounded=0;orthogonalLoop=1;jettySize=auto;html=1;exitX=0;exitY=0.5;exitDx=0;exitDy=0;" edge="1" parent="1" source="3UxPf9taXEpscqPvkn2j-23" target="3UxPf9taXEpscqPvkn2j-2">
          <mxGeometry relative="1" as="geometry" />
        </mxCell>
        <mxCell id="3UxPf9taXEpscqPvkn2j-23" value="等待1s" style="rounded=1;whiteSpace=wrap;html=1;fillColor=#f8cecc;strokeColor=#b85450;fontFamily=Comic Sans MS;" vertex="1" parent="1">
          <mxGeometry x="426.25" y="890" width="120" height="60" as="geometry" />
        </mxCell>
        <mxCell id="3UxPf9taXEpscqPvkn2j-27" value="" style="edgeStyle=orthogonalEdgeStyle;rounded=0;orthogonalLoop=1;jettySize=auto;html=1;" edge="1" parent="1" source="3UxPf9taXEpscqPvkn2j-24" target="3UxPf9taXEpscqPvkn2j-26">
          <mxGeometry relative="1" as="geometry" />
        </mxCell>
        <mxCell id="3UxPf9taXEpscqPvkn2j-70" value="N" style="edgeLabel;html=1;align=center;verticalAlign=middle;resizable=0;points=[];" vertex="1" connectable="0" parent="3UxPf9taXEpscqPvkn2j-27">
          <mxGeometry x="-0.2748" y="3" relative="1" as="geometry">
            <mxPoint x="-1" as="offset" />
          </mxGeometry>
        </mxCell>
        <mxCell id="3UxPf9taXEpscqPvkn2j-29" value="" style="edgeStyle=orthogonalEdgeStyle;rounded=0;orthogonalLoop=1;jettySize=auto;html=1;" edge="1" parent="1" source="3UxPf9taXEpscqPvkn2j-24" target="3UxPf9taXEpscqPvkn2j-28">
          <mxGeometry relative="1" as="geometry" />
        </mxCell>
        <mxCell id="3UxPf9taXEpscqPvkn2j-24" value="checkManualPag" style="rhombus;whiteSpace=wrap;html=1;fontFamily=Comic Sans MS;rounded=1;" vertex="1" parent="1">
          <mxGeometry x="99.38" y="1020" width="193.75" height="60" as="geometry" />
        </mxCell>
        <mxCell id="3UxPf9taXEpscqPvkn2j-30" style="edgeStyle=orthogonalEdgeStyle;rounded=0;orthogonalLoop=1;jettySize=auto;html=1;exitX=0.5;exitY=1;exitDx=0;exitDy=0;" edge="1" parent="1" source="3UxPf9taXEpscqPvkn2j-26" target="3UxPf9taXEpscqPvkn2j-28">
          <mxGeometry relative="1" as="geometry">
            <Array as="points">
              <mxPoint x="437" y="1100" />
              <mxPoint x="196" y="1100" />
            </Array>
          </mxGeometry>
        </mxCell>
        <mxCell id="3UxPf9taXEpscqPvkn2j-71" value="Y" style="edgeLabel;html=1;align=center;verticalAlign=middle;resizable=0;points=[];" vertex="1" connectable="0" parent="3UxPf9taXEpscqPvkn2j-30">
          <mxGeometry x="0.7316" y="-4" relative="1" as="geometry">
            <mxPoint x="-1" as="offset" />
          </mxGeometry>
        </mxCell>
        <mxCell id="3UxPf9taXEpscqPvkn2j-72" value="Y" style="edgeLabel;html=1;align=center;verticalAlign=middle;resizable=0;points=[];" vertex="1" connectable="0" parent="3UxPf9taXEpscqPvkn2j-30">
          <mxGeometry x="-0.8471" y="-1" relative="1" as="geometry">
            <mxPoint x="-1" as="offset" />
          </mxGeometry>
        </mxCell>
        <mxCell id="3UxPf9taXEpscqPvkn2j-34" value="" style="edgeStyle=orthogonalEdgeStyle;rounded=0;orthogonalLoop=1;jettySize=auto;html=1;" edge="1" parent="1" source="3UxPf9taXEpscqPvkn2j-26" target="3UxPf9taXEpscqPvkn2j-33">
          <mxGeometry relative="1" as="geometry">
            <Array as="points">
              <mxPoint x="570" y="1050" />
              <mxPoint x="570" y="1120" />
              <mxPoint x="437" y="1120" />
            </Array>
          </mxGeometry>
        </mxCell>
        <mxCell id="3UxPf9taXEpscqPvkn2j-73" value="N" style="edgeLabel;html=1;align=center;verticalAlign=middle;resizable=0;points=[];" vertex="1" connectable="0" parent="3UxPf9taXEpscqPvkn2j-34">
          <mxGeometry x="-0.8351" y="-2" relative="1" as="geometry">
            <mxPoint as="offset" />
          </mxGeometry>
        </mxCell>
        <mxCell id="3UxPf9taXEpscqPvkn2j-26" value="checkEggPag" style="rhombus;whiteSpace=wrap;html=1;fontFamily=Comic Sans MS;rounded=1;" vertex="1" parent="1">
          <mxGeometry x="340" y="1020" width="193.75" height="60" as="geometry" />
        </mxCell>
        <mxCell id="3UxPf9taXEpscqPvkn2j-32" value="" style="edgeStyle=orthogonalEdgeStyle;rounded=0;orthogonalLoop=1;jettySize=auto;html=1;" edge="1" parent="1" source="3UxPf9taXEpscqPvkn2j-28" target="3UxPf9taXEpscqPvkn2j-31">
          <mxGeometry relative="1" as="geometry" />
        </mxCell>
        <mxCell id="3UxPf9taXEpscqPvkn2j-28" value="state = RUNNING" style="whiteSpace=wrap;html=1;fontFamily=Comic Sans MS;rounded=1;" vertex="1" parent="1">
          <mxGeometry x="136.245" y="1140" width="120" height="60" as="geometry" />
        </mxCell>
        <mxCell id="3UxPf9taXEpscqPvkn2j-38" style="edgeStyle=orthogonalEdgeStyle;rounded=0;orthogonalLoop=1;jettySize=auto;html=1;exitX=0.5;exitY=1;exitDx=0;exitDy=0;" edge="1" parent="1" source="3UxPf9taXEpscqPvkn2j-31" target="3UxPf9taXEpscqPvkn2j-23">
          <mxGeometry relative="1" as="geometry">
            <Array as="points">
              <mxPoint x="196" y="1360" />
              <mxPoint x="640" y="1360" />
              <mxPoint x="640" y="920" />
            </Array>
          </mxGeometry>
        </mxCell>
        <mxCell id="3UxPf9taXEpscqPvkn2j-31" value="开始播放" style="whiteSpace=wrap;html=1;fontFamily=Comic Sans MS;rounded=1;" vertex="1" parent="1">
          <mxGeometry x="136.245" y="1240" width="120" height="60" as="geometry" />
        </mxCell>
        <mxCell id="3UxPf9taXEpscqPvkn2j-37" value="" style="edgeStyle=orthogonalEdgeStyle;rounded=0;orthogonalLoop=1;jettySize=auto;html=1;" edge="1" parent="1" source="3UxPf9taXEpscqPvkn2j-33" target="3UxPf9taXEpscqPvkn2j-36">
          <mxGeometry relative="1" as="geometry" />
        </mxCell>
        <mxCell id="3UxPf9taXEpscqPvkn2j-33" value="state = STOP" style="whiteSpace=wrap;html=1;fontFamily=Comic Sans MS;rounded=1;" vertex="1" parent="1">
          <mxGeometry x="376.875" y="1140" width="120" height="60" as="geometry" />
        </mxCell>
        <mxCell id="3UxPf9taXEpscqPvkn2j-39" style="edgeStyle=orthogonalEdgeStyle;rounded=0;orthogonalLoop=1;jettySize=auto;html=1;exitX=0.5;exitY=1;exitDx=0;exitDy=0;" edge="1" parent="1" source="3UxPf9taXEpscqPvkn2j-36" target="3UxPf9taXEpscqPvkn2j-23">
          <mxGeometry relative="1" as="geometry">
            <Array as="points">
              <mxPoint x="437" y="1360" />
              <mxPoint x="640" y="1360" />
              <mxPoint x="640" y="920" />
            </Array>
          </mxGeometry>
        </mxCell>
        <mxCell id="3UxPf9taXEpscqPvkn2j-36" value="停止播放" style="whiteSpace=wrap;html=1;fontFamily=Comic Sans MS;rounded=1;" vertex="1" parent="1">
          <mxGeometry x="376.875" y="1240" width="120" height="60" as="geometry" />
        </mxCell>
        <mxCell id="3UxPf9taXEpscqPvkn2j-69" value="" style="edgeStyle=orthogonalEdgeStyle;rounded=0;orthogonalLoop=1;jettySize=auto;html=1;" edge="1" parent="1" source="3UxPf9taXEpscqPvkn2j-67" target="3UxPf9taXEpscqPvkn2j-68">
          <mxGeometry relative="1" as="geometry" />
        </mxCell>
        <mxCell id="3UxPf9taXEpscqPvkn2j-67" value="checkManualPag" style="rounded=1;whiteSpace=wrap;html=1;fillColor=#f8cecc;strokeColor=#b85450;fontFamily=Comic Sans MS;" vertex="1" parent="1">
          <mxGeometry x="745" y="890" width="120" height="60" as="geometry" />
        </mxCell>
        <mxCell id="3UxPf9taXEpscqPvkn2j-75" value="" style="edgeStyle=orthogonalEdgeStyle;rounded=0;orthogonalLoop=1;jettySize=auto;html=1;" edge="1" parent="1" source="3UxPf9taXEpscqPvkn2j-68" target="3UxPf9taXEpscqPvkn2j-74">
          <mxGeometry relative="1" as="geometry" />
        </mxCell>
        <mxCell id="3UxPf9taXEpscqPvkn2j-105" value="Y" style="edgeLabel;html=1;align=center;verticalAlign=middle;resizable=0;points=[];" vertex="1" connectable="0" parent="3UxPf9taXEpscqPvkn2j-75">
          <mxGeometry x="-0.03" y="-4" relative="1" as="geometry">
            <mxPoint as="offset" />
          </mxGeometry>
        </mxCell>
        <mxCell id="3UxPf9taXEpscqPvkn2j-77" value="" style="edgeStyle=orthogonalEdgeStyle;rounded=0;orthogonalLoop=1;jettySize=auto;html=1;" edge="1" parent="1" source="3UxPf9taXEpscqPvkn2j-68" target="3UxPf9taXEpscqPvkn2j-76">
          <mxGeometry relative="1" as="geometry" />
        </mxCell>
        <mxCell id="3UxPf9taXEpscqPvkn2j-107" value="N" style="edgeLabel;html=1;align=center;verticalAlign=middle;resizable=0;points=[];" vertex="1" connectable="0" parent="3UxPf9taXEpscqPvkn2j-77">
          <mxGeometry x="-0.625" y="1" relative="1" as="geometry">
            <mxPoint y="-1" as="offset" />
          </mxGeometry>
        </mxCell>
        <mxCell id="3UxPf9taXEpscqPvkn2j-68" value="needPlayManualPag" style="rhombus;whiteSpace=wrap;html=1;fontFamily=Comic Sans MS;rounded=1;" vertex="1" parent="1">
          <mxGeometry x="720" y="980" width="170" height="60" as="geometry" />
        </mxCell>
        <mxCell id="3UxPf9taXEpscqPvkn2j-106" style="edgeStyle=orthogonalEdgeStyle;rounded=0;orthogonalLoop=1;jettySize=auto;html=1;exitX=0.5;exitY=1;exitDx=0;exitDy=0;" edge="1" parent="1" source="3UxPf9taXEpscqPvkn2j-74" target="3UxPf9taXEpscqPvkn2j-76">
          <mxGeometry relative="1" as="geometry" />
        </mxCell>
        <mxCell id="3UxPf9taXEpscqPvkn2j-74" value="停止播放&lt;br&gt;计算ManualPag播放区间" style="whiteSpace=wrap;html=1;fontFamily=Comic Sans MS;rounded=1;" vertex="1" parent="1">
          <mxGeometry x="965" y="980" width="150" height="60" as="geometry" />
        </mxCell>
        <mxCell id="3UxPf9taXEpscqPvkn2j-81" value="" style="edgeStyle=orthogonalEdgeStyle;rounded=0;orthogonalLoop=1;jettySize=auto;html=1;" edge="1" parent="1" source="3UxPf9taXEpscqPvkn2j-76" target="3UxPf9taXEpscqPvkn2j-80">
          <mxGeometry relative="1" as="geometry" />
        </mxCell>
        <mxCell id="3UxPf9taXEpscqPvkn2j-108" value="N" style="edgeLabel;html=1;align=center;verticalAlign=middle;resizable=0;points=[];" vertex="1" connectable="0" parent="3UxPf9taXEpscqPvkn2j-81">
          <mxGeometry x="-0.098" y="3" relative="1" as="geometry">
            <mxPoint as="offset" />
          </mxGeometry>
        </mxCell>
        <mxCell id="3UxPf9taXEpscqPvkn2j-83" value="" style="edgeStyle=orthogonalEdgeStyle;rounded=0;orthogonalLoop=1;jettySize=auto;html=1;" edge="1" parent="1" source="3UxPf9taXEpscqPvkn2j-76" target="3UxPf9taXEpscqPvkn2j-82">
          <mxGeometry relative="1" as="geometry" />
        </mxCell>
        <mxCell id="3UxPf9taXEpscqPvkn2j-109" value="Y" style="edgeLabel;html=1;align=center;verticalAlign=middle;resizable=0;points=[];" vertex="1" connectable="0" parent="3UxPf9taXEpscqPvkn2j-83">
          <mxGeometry x="-0.775" y="-2" relative="1" as="geometry">
            <mxPoint y="-1" as="offset" />
          </mxGeometry>
        </mxCell>
        <mxCell id="3UxPf9taXEpscqPvkn2j-76" value="是否命中ManualPag区间" style="rhombus;whiteSpace=wrap;html=1;fontFamily=Comic Sans MS;rounded=1;" vertex="1" parent="1">
          <mxGeometry x="720" y="1090" width="170" height="60" as="geometry" />
        </mxCell>
        <mxCell id="3UxPf9taXEpscqPvkn2j-80" value="return false" style="ellipse;whiteSpace=wrap;html=1;fontFamily=Comic Sans MS;rounded=1;" vertex="1" parent="1">
          <mxGeometry x="1015" y="1080" width="80" height="80" as="geometry" />
        </mxCell>
        <mxCell id="3UxPf9taXEpscqPvkn2j-87" value="" style="edgeStyle=orthogonalEdgeStyle;rounded=0;orthogonalLoop=1;jettySize=auto;html=1;" edge="1" parent="1" source="3UxPf9taXEpscqPvkn2j-82" target="3UxPf9taXEpscqPvkn2j-86">
          <mxGeometry relative="1" as="geometry" />
        </mxCell>
        <mxCell id="3UxPf9taXEpscqPvkn2j-82" value="保存PagFile" style="whiteSpace=wrap;html=1;fontFamily=Comic Sans MS;rounded=1;" vertex="1" parent="1">
          <mxGeometry x="745" y="1180" width="120" height="60" as="geometry" />
        </mxCell>
        <mxCell id="3UxPf9taXEpscqPvkn2j-86" value="return true" style="ellipse;whiteSpace=wrap;html=1;fontFamily=Comic Sans MS;rounded=1;" vertex="1" parent="1">
          <mxGeometry x="1015" y="1170" width="80" height="80" as="geometry" />
        </mxCell>
        <mxCell id="3UxPf9taXEpscqPvkn2j-92" value="" style="edgeStyle=orthogonalEdgeStyle;rounded=0;orthogonalLoop=1;jettySize=auto;html=1;" edge="1" parent="1" source="3UxPf9taXEpscqPvkn2j-88" target="3UxPf9taXEpscqPvkn2j-91">
          <mxGeometry relative="1" as="geometry" />
        </mxCell>
        <mxCell id="3UxPf9taXEpscqPvkn2j-88" value="checkEggPag" style="rounded=1;whiteSpace=wrap;html=1;fillColor=#f8cecc;strokeColor=#b85450;fontFamily=Comic Sans MS;" vertex="1" parent="1">
          <mxGeometry x="1237.5" y="890" width="120" height="60" as="geometry" />
        </mxCell>
        <mxCell id="3UxPf9taXEpscqPvkn2j-95" value="" style="edgeStyle=orthogonalEdgeStyle;rounded=0;orthogonalLoop=1;jettySize=auto;html=1;" edge="1" parent="1" source="3UxPf9taXEpscqPvkn2j-89" target="3UxPf9taXEpscqPvkn2j-94">
          <mxGeometry relative="1" as="geometry" />
        </mxCell>
        <mxCell id="3UxPf9taXEpscqPvkn2j-111" value="N" style="edgeLabel;html=1;align=center;verticalAlign=middle;resizable=0;points=[];" vertex="1" connectable="0" parent="3UxPf9taXEpscqPvkn2j-95">
          <mxGeometry x="0.075" y="4" relative="1" as="geometry">
            <mxPoint y="1" as="offset" />
          </mxGeometry>
        </mxCell>
        <mxCell id="3UxPf9taXEpscqPvkn2j-104" style="edgeStyle=orthogonalEdgeStyle;rounded=0;orthogonalLoop=1;jettySize=auto;html=1;exitX=1;exitY=0.5;exitDx=0;exitDy=0;" edge="1" parent="1" source="3UxPf9taXEpscqPvkn2j-89" target="3UxPf9taXEpscqPvkn2j-102">
          <mxGeometry relative="1" as="geometry" />
        </mxCell>
        <mxCell id="3UxPf9taXEpscqPvkn2j-110" value="Y" style="edgeLabel;html=1;align=center;verticalAlign=middle;resizable=0;points=[];" vertex="1" connectable="0" parent="3UxPf9taXEpscqPvkn2j-104">
          <mxGeometry x="-0.5125" y="-1" relative="1" as="geometry">
            <mxPoint as="offset" />
          </mxGeometry>
        </mxCell>
        <mxCell id="3UxPf9taXEpscqPvkn2j-89" value="PagConfig是否为空" style="rhombus;whiteSpace=wrap;html=1;fontFamily=Comic Sans MS;rounded=1;" vertex="1" parent="1">
          <mxGeometry x="1213.75" y="1080" width="167.5" height="60" as="geometry" />
        </mxCell>
        <mxCell id="3UxPf9taXEpscqPvkn2j-93" style="edgeStyle=orthogonalEdgeStyle;rounded=0;orthogonalLoop=1;jettySize=auto;html=1;exitX=0.5;exitY=1;exitDx=0;exitDy=0;" edge="1" parent="1" source="3UxPf9taXEpscqPvkn2j-91" target="3UxPf9taXEpscqPvkn2j-89">
          <mxGeometry relative="1" as="geometry" />
        </mxCell>
        <mxCell id="3UxPf9taXEpscqPvkn2j-91" value="获取pagConfig" style="whiteSpace=wrap;html=1;fontFamily=Comic Sans MS;rounded=1;" vertex="1" parent="1">
          <mxGeometry x="1237.5" y="990" width="120" height="60" as="geometry" />
        </mxCell>
        <mxCell id="3UxPf9taXEpscqPvkn2j-97" value="" style="edgeStyle=orthogonalEdgeStyle;rounded=0;orthogonalLoop=1;jettySize=auto;html=1;" edge="1" parent="1" source="3UxPf9taXEpscqPvkn2j-94" target="3UxPf9taXEpscqPvkn2j-96">
          <mxGeometry relative="1" as="geometry" />
        </mxCell>
        <mxCell id="3UxPf9taXEpscqPvkn2j-112" value="N" style="edgeLabel;html=1;align=center;verticalAlign=middle;resizable=0;points=[];" vertex="1" connectable="0" parent="3UxPf9taXEpscqPvkn2j-97">
          <mxGeometry x="-0.1872" y="-1" relative="1" as="geometry">
            <mxPoint as="offset" />
          </mxGeometry>
        </mxCell>
        <mxCell id="3UxPf9taXEpscqPvkn2j-99" value="Y" style="edgeStyle=orthogonalEdgeStyle;rounded=0;orthogonalLoop=1;jettySize=auto;html=1;" edge="1" parent="1" source="3UxPf9taXEpscqPvkn2j-94" target="3UxPf9taXEpscqPvkn2j-98">
          <mxGeometry relative="1" as="geometry" />
        </mxCell>
        <mxCell id="3UxPf9taXEpscqPvkn2j-94" value="是否下载PagFile" style="rhombus;whiteSpace=wrap;html=1;fontFamily=Comic Sans MS;rounded=1;" vertex="1" parent="1">
          <mxGeometry x="1213.75" y="1170" width="167.5" height="60" as="geometry" />
        </mxCell>
        <mxCell id="3UxPf9taXEpscqPvkn2j-103" value="" style="edgeStyle=orthogonalEdgeStyle;rounded=0;orthogonalLoop=1;jettySize=auto;html=1;" edge="1" parent="1" source="3UxPf9taXEpscqPvkn2j-96" target="3UxPf9taXEpscqPvkn2j-102">
          <mxGeometry relative="1" as="geometry" />
        </mxCell>
        <mxCell id="3UxPf9taXEpscqPvkn2j-96" value="下载PagFile" style="whiteSpace=wrap;html=1;fontFamily=Comic Sans MS;rounded=1;" vertex="1" parent="1">
          <mxGeometry x="1440" y="1170" width="120" height="60" as="geometry" />
        </mxCell>
        <mxCell id="3UxPf9taXEpscqPvkn2j-101" value="" style="edgeStyle=orthogonalEdgeStyle;rounded=0;orthogonalLoop=1;jettySize=auto;html=1;" edge="1" parent="1" source="3UxPf9taXEpscqPvkn2j-98" target="3UxPf9taXEpscqPvkn2j-100">
          <mxGeometry relative="1" as="geometry" />
        </mxCell>
        <mxCell id="3UxPf9taXEpscqPvkn2j-98" value="保存PagFile" style="whiteSpace=wrap;html=1;fontFamily=Comic Sans MS;rounded=1;" vertex="1" parent="1">
          <mxGeometry x="1237.5" y="1260" width="120" height="60" as="geometry" />
        </mxCell>
        <mxCell id="3UxPf9taXEpscqPvkn2j-100" value="return true" style="ellipse;whiteSpace=wrap;html=1;fontFamily=Comic Sans MS;rounded=1;" vertex="1" parent="1">
          <mxGeometry x="1457.5" y="1250" width="80" height="80" as="geometry" />
        </mxCell>
        <mxCell id="3UxPf9taXEpscqPvkn2j-102" value="return false" style="ellipse;whiteSpace=wrap;html=1;fontFamily=Comic Sans MS;rounded=1;" vertex="1" parent="1">
          <mxGeometry x="1620" y="1160" width="80" height="80" as="geometry" />
        </mxCell>
      </root>
    </mxGraphModel>
  </diagram>
</mxfile>
